<svg width="111" height="101" viewBox="0 0 111 101" fill="none" xmlns="http://www.w3.org/2000/svg">
<g clip-path="url(#clip0_245_10035)">
<g style="mix-blend-mode:multiply">
<g opacity="0.5">
<path d="M49.6218 99.1498C47.5242 96.0582 45.4267 92.9285 44.0346 89.4743C42.6426 86.0201 41.9943 82.146 42.9096 78.5391C43.1193 77.6995 43.4435 76.8407 44.1109 76.3063C45.1406 75.4666 46.7043 75.543 47.9056 76.0964C55.514 79.5506 59.671 87.375 62.9699 89.7796C61.9783 86.8598 61.8639 85.1231 62.2072 82.5086C62.3216 81.6117 62.9318 80.4857 63.5801 79.875C64.8577 78.6537 66.8981 80.0277 68.0041 81.3827C71.3983 85.543 76.0702 94.1117 78.0724 99.0735" fill="#ABE4FF"/>
</g>
<g opacity="0.5">
<path d="M13.6782 98.938C15.7186 93.5564 21.668 84.7205 26.7594 82.0296C27.9226 81.3999 29.2002 80.8846 30.5159 80.9419C31.8317 80.9991 33.1856 81.8006 33.5097 83.0793C33.7004 83.7663 33.5669 84.4915 33.4335 85.1785C33.0521 87.2777 32.6644 89.377 32.2703 91.4762C33.586 90.3312 34.978 89.148 36.6751 88.8045C38.3913 88.48 40.4698 89.3579 40.8131 91.0564C40.9275 91.648 40.8321 92.2586 40.6987 92.8502C40.2601 94.6632 39.5927 97.7357 38.4295 99.1861" fill="#ABE4FF"/>
</g>
</g>
<path d="M69.4712 34.6616V98.6692H110.259V30.9211C110.259 16.4364 101.125 4.68066 89.8557 4.68066C82.0566 4.68066 75.2872 10.3104 71.8548 18.5929" fill="#F0F9F8"/>
<path d="M69.4712 34.6616V98.6692H110.259V30.9211C110.259 16.4364 101.125 4.68066 89.8557 4.68066C82.0566 4.68066 75.2872 10.3104 71.8548 18.5929" stroke="#008ECC" stroke-width="0.901639" stroke-miterlimit="10"/>
<path opacity="0.2" d="M102.193 31.1147C102.193 18.2712 95.0045 7.58419 85.5464 5.33228C86.9003 4.95061 88.3114 4.75977 89.7606 4.75977C101.03 4.75977 110.164 16.5155 110.164 31.0002V98.7483H102.193V31.1147Z" fill="#008ECC"/>
<path d="M69.4711 98.6709H0.937988" stroke="#008ECC" stroke-width="0.901639" stroke-miterlimit="10"/>
<path d="M27.7295 25.9229L33.0687 34.1862L32.1344 42.1824L29.1024 31.9725L27.7295 25.9229Z" fill="#072D30"/>
<path d="M20.6553 16.0564C20.6553 16.0564 19.168 13.9763 19.168 13.461C19.168 12.9267 21.7995 11.3809 21.7995 11.3809C21.7995 11.3809 23.4966 15.961 23.1915 16.4954C22.8673 17.0488 21.113 15.0831 20.6553 16.0564Z" fill="#06477D"/>
<path d="M21.8381 15.8074C21.8381 15.8074 20.4461 15.254 20.6177 16.5135C20.7321 17.3723 21.5902 17.4296 21.5902 17.4296L21.5139 21.7235L27.0629 23.5555L26.1858 19.1471C26.1858 19.1471 27.1201 19.2425 27.6159 18.1738C27.9973 16.7616 27.349 12.9448 26.1476 10.6166L23.2301 10.2158L21.7999 11.3799C21.7999 11.3799 22.6962 15.5975 22.2957 15.7502C22.0669 15.8456 21.8381 15.8074 21.8381 15.8074Z" fill="#F89D9D"/>
<path d="M22.123 11.1704C22.123 11.1704 25.2313 9.28112 25.3266 9.22387C26.7949 8.46051 26.1656 10.6933 25.7652 11.2086C24.9071 12.2964 22.123 11.1704 22.123 11.1704Z" fill="#06477D"/>
<path d="M26.2227 19.1467L24.354 19.0322L26.3753 20.4444L26.2227 19.1467Z" fill="#CC6666"/>
<path d="M25.3082 12.8127L24.3167 13.5188C24.2594 13.557 24.1832 13.557 24.145 13.5188C23.9734 13.3471 24.0306 13.0799 24.2785 12.9082L24.6218 12.6601C24.8696 12.4883 25.1747 12.4883 25.3464 12.6601C25.3845 12.6982 25.3654 12.7746 25.3082 12.8127Z" fill="#06477D"/>
<path d="M27.2913 12.9443L26.4904 13.0015C26.4332 13.0015 26.376 12.9634 26.376 12.9252V12.8298C26.3378 12.6389 26.5285 12.4863 26.7574 12.4672L26.9099 12.4481C27.1387 12.429 27.3676 12.5626 27.3866 12.7534V12.8489C27.4057 12.887 27.3485 12.9252 27.2913 12.9443Z" fill="#06477D"/>
<path d="M26.2627 14.1494L27.1399 15.1227C27.3115 15.2563 27.1971 15.2945 27.1017 15.3326L26.4534 15.5998L26.2627 14.1494Z" fill="#CC6666"/>
<path d="M21.8196 16.8558L20.9043 16.4551C20.9043 16.4551 21.8196 15.6536 21.8196 16.8558Z" fill="#CC6666"/>
<path d="M25.7846 14.4357C25.7846 14.5883 25.7274 14.7219 25.6511 14.7219C25.5557 14.7219 25.4985 14.5883 25.4985 14.4357C25.4985 14.2639 25.5557 14.1494 25.6511 14.1494C25.7274 14.1494 25.7846 14.2639 25.7846 14.4357Z" fill="#06477D"/>
<path d="M26.9477 14.1085C26.9477 14.2803 26.8714 14.3948 26.7951 14.3948C26.7188 14.3948 26.6616 14.2803 26.6616 14.1085C26.6616 13.9559 26.7188 13.8223 26.7951 13.8223C26.8714 13.8223 26.9477 13.9559 26.9477 14.1085Z" fill="#06477D"/>
<path d="M25.9189 16.0957L27.33 15.6377C27.33 15.6377 27.2728 16.6682 26.9105 16.8972C26.5291 17.1453 25.9189 16.0957 25.9189 16.0957Z" fill="#F1FAF9"/>
<path d="M27.6547 7.31516C27.5403 7.16249 27.3114 7.10524 27.1589 7.21974L24.8897 8.61287L24.8325 8.53654C23.3261 6.64722 21.4192 6.34188 19.7221 7.506C18.0249 8.68921 17.6626 10.5785 18.7305 12.7923L19.1309 13.651L25.4427 9.22356L27.5593 7.88768C27.75 7.77318 27.7882 7.506 27.6547 7.31516Z" fill="#008ECC"/>
<path d="M10.1288 89.2832L8.39355 93.7298L17.8898 97.9092C17.8898 97.9092 17.6991 95.0084 15.6778 93.4244C13.6565 91.8595 14.4765 90.7145 14.4765 90.7145L10.1288 89.2832Z" fill="#06477D"/>
<path d="M8.68018 92.9834L17.6425 96.7048" stroke="white" stroke-width="0.409836" stroke-miterlimit="10"/>
<path d="M14.8028 92.3145L13.6396 92.8297" stroke="white" stroke-width="0.409836" stroke-miterlimit="10"/>
<path d="M15.3165 93.1553L14.1533 93.6515" stroke="white" stroke-width="0.409836" stroke-miterlimit="10"/>
<path d="M24.2976 74.1471L15.2018 91.1891L9.69092 89.109C9.69092 89.109 16.6319 70.6166 17.3947 68.67C18.1765 66.7235 20.5982 45.8838 20.5982 45.8838L31.5056 45.941L24.679 73.0784L24.2976 74.1471Z" fill="#232A5F"/>
<path d="M33.0136 45.846C32.556 62.4872 31.1258 69.7582 30.7826 70.7887C30.4584 71.8193 30.2868 93.4605 30.2868 93.4605L23.9941 93.9185L21.1338 45.0254L33.0136 45.846Z" fill="#2B4B94"/>
<path d="M24.7959 93.8044V98.6136L35.1121 98.8426C35.1121 98.8426 33.8917 96.209 31.4509 95.522C29.0101 94.835 29.3343 93.4609 29.3343 93.4609L24.7959 93.8044Z" fill="#06477D"/>
<path d="M24.7959 97.8135H34.4447" stroke="white" stroke-width="0.409836" stroke-miterlimit="10"/>
<path d="M30.2268 94.835L29.3306 95.751" stroke="white" stroke-width="0.409836" stroke-miterlimit="10"/>
<path d="M31.01 95.4082L30.1138 96.3242" stroke="white" stroke-width="0.409836" stroke-miterlimit="10"/>
<path d="M19.5869 35.5977L16.7456 45.2923L19.339 46.2465L21.4937 38.174C21.4937 38.174 21.2458 36.5328 21.2458 35.8076C21.2458 35.8076 20.5022 35.8457 19.5869 35.5977Z" fill="#0C1E45"/>
<path d="M29.1029 24.1863C29.1029 24.1863 29.0839 24.1291 29.0648 24.0146C28.9694 23.442 28.7025 22.2779 28.1686 21.9917C27.5393 21.6481 19.7402 19.9688 19.7402 19.9688C19.7402 19.9688 10.4346 23.1749 16.4985 31.61C16.4985 31.61 16.2124 33.881 19.5304 33.881C22.8293 33.881 29.1029 24.1863 29.1029 24.1863Z" fill="#16649C"/>
<path d="M20.8096 23.5959C20.8096 23.5959 15.2224 23.7677 18.7692 38.0234L21.1147 46.8593L33.4712 47.7181C33.4712 47.7181 30.9732 28.3669 28.3799 22.8135" fill="#16649C"/>
<path d="M29.5994 26.1338L21.7812 47.6033L24.3555 48.3666L30.6673 30.8284L29.5994 26.1338Z" fill="white"/>
<path d="M39.686 38.2516L47.1801 38.1943C47.2754 38.1943 47.3135 38.3279 47.2182 38.3661L41.2687 41.2287L39.686 38.2516Z" fill="#F89D9D"/>
<path d="M31.4874 36.8582L29.6759 31.9155C28.3029 29.6445 27.5592 27.5452 26.0337 25.4269C25.7858 25.0834 24.1078 24.4155 23.1544 24.3391C22.3916 24.2628 20.9614 25.2552 20.4275 25.8277C17.7007 28.8048 22.4297 38.5185 23.1544 39.5872C24.5845 41.6674 25.3663 43.404 27.6355 44.4345L42.0324 42.717L39.687 38.1559H31.4683L31.7925 38.1368" fill="#008ECC"/>
<path d="M25.2525 63.04L8.75806 56.3987C7.61393 55.9407 7.06094 54.643 7.51859 53.4789L12.076 42.1621L32.7275 50.4827L28.1701 61.7995C27.7124 62.9446 26.3967 63.5171 25.2525 63.04Z" fill="#008ECC"/>
<path d="M8.49121 51.4368L25.3289 58.0971C26.1298 58.4024 27.026 58.0398 27.3693 57.2574L30.7063 49.7383" stroke="#F1FAF9" stroke-width="0.696721" stroke-miterlimit="10"/>
<path d="M52.0245 38.2518H32.479V20.5801H52.0245V38.2518Z" fill="#008ECC"/>
<path d="M52.0243 38.2518H46.3037V20.5801H52.0243V38.2518Z" fill="#023259"/>
<path d="M50.5172 32.0113H47.1802V29.4922H50.5172V32.0113Z" fill="#F1FAF9"/>
<path d="M52.1763 35.751H32.3257V32.793H52.1763V35.751Z" fill="#06477D"/>
<path d="M65.8098 14.7775C65.8098 10.7317 62.53 7.44922 58.4874 7.44922C54.4449 7.44922 51.165 10.7317 51.165 14.7775C51.165 18.8233 54.4449 22.1057 58.4874 22.1057C62.53 22.1057 65.8098 18.8233 65.8098 14.7775Z" fill="#ABE4FF"/>
<path d="M49.3547 17.1817C49.3547 16.6474 48.9351 16.2275 48.4012 16.2275C47.8673 16.2275 47.4287 16.6474 47.4287 17.1817C47.4287 17.7161 47.8673 18.155 48.4012 18.155C48.9351 18.155 49.3547 17.7161 49.3547 17.1817Z" fill="#ABE4FF"/>
<path d="M66.2876 6.36099C66.2876 5.55946 65.6583 4.92969 64.8574 4.92969C64.0565 4.92969 63.4082 5.55946 63.4082 6.36099C63.4082 7.16251 64.0565 7.81137 64.8574 7.81137C65.6583 7.81137 66.2876 7.16251 66.2876 6.36099Z" stroke="#ABE4FF" stroke-width="0.778688" stroke-miterlimit="10"/>
<path d="M65.3338 22.7173C65.3338 22.4502 65.1241 22.2402 64.8571 22.2402C64.5901 22.2402 64.3804 22.4502 64.3804 22.7173C64.3804 22.9845 64.5901 23.1944 64.8571 23.1944C65.1241 23.1944 65.3338 22.9845 65.3338 22.7173Z" fill="#ABE4FF"/>
<path d="M11.5226 32.3347C11.5226 31.3995 10.7599 30.6553 9.82551 30.6553C8.91021 30.6553 8.14746 31.3995 8.14746 32.3347C8.14746 33.2698 8.91021 34.0141 9.82551 34.0141C10.7599 34.0141 11.5226 33.2698 11.5226 32.3347Z" fill="#023259"/>
<path d="M59.0786 44.1094C59.0786 44.5102 58.7544 44.8346 58.373 44.8346C57.9726 44.8346 57.6484 44.5102 57.6484 44.1094C57.6484 43.7277 57.9726 43.4033 58.373 43.4033C58.7544 43.4033 59.0786 43.7277 59.0786 44.1094Z" fill="#023259"/>
<path d="M39.1538 2.02993C39.1538 1.24749 38.5055 0.598633 37.7046 0.598633C36.9037 0.598633 36.2554 1.24749 36.2554 2.02993C36.2554 2.83146 36.9037 3.48031 37.7046 3.48031C38.5055 3.48031 39.1538 2.83146 39.1538 2.02993Z" fill="#023259"/>
<path d="M97.0462 72.4865C97.0462 71.8185 96.5123 71.2842 95.8449 71.2842C95.1775 71.2842 94.6436 71.8185 94.6436 72.4865C94.6436 73.1544 95.1775 73.6888 95.8449 73.6888C96.5123 73.6888 97.0462 73.1544 97.0462 72.4865Z" fill="#023259"/>
<path d="M70.3884 17.126C70.3884 17.126 69.2825 19.7786 70.3694 21.668C71.7614 24.1107 68.7295 22.2405 68.2718 23.9962C68.043 24.8741 68.2146 26.8588 68.2146 26.8588L76.5667 29.6451L70.3884 17.126Z" fill="#232A5F"/>
<path d="M74.8886 31.7444L69.3587 16.9161C69.0155 16.439 69.2252 14.6451 69.5112 14.1108C70.274 12.6795 71.5707 11.3054 73.1152 11.1528C78.1494 10.6757 79.7893 14.8741 79.8846 16.4963C79.9991 18.0039 80.3995 18.3665 81.105 18.3856C81.5055 18.4047 83.1645 18.5001 83.1454 21.21C83.1263 23.8245 82.8594 22.4314 84.5374 23.8245C86.2155 25.2177 85.815 27.1451 85.815 27.1451L74.8886 31.7444Z" fill="#232A5F"/>
<path d="M71.4358 21.1135C71.8934 20.5219 71.779 19.6631 71.1879 19.2051C70.5968 18.7471 69.7387 18.8616 69.281 19.4532C68.8234 20.0448 68.9378 20.8845 69.5289 21.3425C70.12 21.8196 70.9781 21.7051 71.4358 21.1135Z" fill="#FAE06E"/>
<path d="M75.3257 16.6482C75.3447 16.7245 75.5926 16.4001 75.6498 16.3619C75.9168 16.1902 76.6033 15.8657 77.0991 16.5718C77.5949 17.297 76.6796 18.0413 76.2791 18.3276C76.1647 18.4039 76.0884 18.5375 76.0503 18.6711C75.974 19.11 76.6033 26.1711 76.6033 26.1711C76.6033 26.1711 69.4334 32.5451 71.7026 26.9154C71.7026 26.9154 72.6942 22.2589 72.3128 21.2665C72.3128 21.2474 70.0818 21.8963 69.4144 18.3848C68.8042 15.1978 69.8911 14.4917 71.2259 13.9764C71.6645 13.8238 73.0565 18.3657 75.3257 16.6482Z" fill="#FFB0B0"/>
<path d="M77.7092 20.2346C78.1669 19.643 78.0525 18.8033 77.4613 18.3262C76.8702 17.8682 76.0312 17.9827 75.5545 18.5743C75.0968 19.1659 75.2112 20.0246 75.8024 20.4827C76.3935 20.9407 77.2516 20.8262 77.7092 20.2346Z" fill="#FAE06E"/>
<path d="M76.7934 17.0484C76.7934 17.0484 76.3167 15.9797 75.7256 17.411L76.7934 17.0484Z" fill="#D66651"/>
<path d="M69.6614 14.2606C69.6614 14.2606 69.1084 17.9057 70.9962 15.2148C71.4539 14.566 73.8375 11.5316 69.6614 14.2606Z" fill="#232A5F"/>
<path d="M72.5976 17.6215C72.1972 17.8505 72.0637 18.3657 72.3116 18.7665C72.5404 19.1482 73.0362 19.2818 73.4367 19.0527C73.8371 18.8237 73.9706 18.3085 73.7418 17.9268C73.513 17.526 72.9981 17.3924 72.5976 17.6215Z" fill="#FF9191"/>
<path d="M70.0444 19.5091L71.5318 19.1465C71.5318 19.1465 71.589 20.0434 71.0551 20.0816C70.5021 20.1007 70.0444 19.5091 70.0444 19.5091Z" fill="white"/>
<path d="M70.4445 18.1934L70.7496 19.0712L70.2729 19.1476C70.1775 19.1476 70.1203 19.0712 70.1394 18.9758L70.4445 18.1934Z" fill="#D4635F"/>
<path d="M71.5334 16.6489C71.724 16.7253 71.3617 16.2672 71.1329 16.2672C70.885 16.2482 70.6943 16.4008 70.6943 16.6107C70.6943 16.6107 71.0948 16.4581 71.5334 16.6489Z" fill="#040F33"/>
<path d="M69.3184 16.8569C69.5281 16.7614 69.776 16.8187 69.8714 17.0095C69.8714 17.0095 69.5853 17.0095 69.2993 17.2004" fill="#040F33"/>
<path d="M71.2455 17.8295C71.2645 17.9822 71.2264 18.1349 71.1501 18.154C71.0739 18.154 70.9785 18.0395 70.9594 17.8868C70.9213 17.715 70.9594 17.5815 71.0548 17.5624C71.1311 17.5433 71.2073 17.6769 71.2455 17.8295Z" fill="#040F33"/>
<path d="M70.0619 18.0783C70.1 18.231 70.0619 18.3646 69.9856 18.3836C69.9093 18.4027 69.814 18.2882 69.7949 18.1355C69.7758 17.9829 69.814 17.8493 69.8902 17.8302C69.9665 17.8111 70.0428 17.9256 70.0619 18.0783Z" fill="#040F33"/>
<path d="M72.2354 21.267C72.2354 21.267 72.5595 21.3242 73.0172 21.2097C73.3795 21.1143 73.9515 20.8662 73.9515 20.8662C73.9515 20.8662 73.5702 22.0494 72.9981 22.0494C72.4642 22.0494 72.5023 21.8013 72.2354 21.267Z" fill="#D66651"/>
<path d="M85.2026 90.8457L86.5565 95.2159C86.5565 95.2159 87.6053 96.132 87.9676 96.1129C88.6541 96.0556 89.0164 94.8915 89.0164 94.8915L89.1308 90.8457H85.2026Z" fill="#FFB0B0"/>
<path d="M87.1685 89.6826L88.1219 96.9154C88.1219 96.9154 90.0669 97.4307 88.9991 95.4841L89.2279 89.9116L87.1685 89.6826Z" fill="#DC7B7B"/>
<path d="M89.0749 94.7376L91.1534 98.23C91.3632 98.5735 91.2488 98.9743 90.8483 99.2033C90.2 99.604 89.6661 100.367 89.2465 100.386C88.5029 100.406 87.3587 99.6231 86.6913 99.3369C86.2337 99.1269 85.8904 98.8407 85.9476 98.4781L86.4625 94.9666C86.4625 94.9285 86.5388 94.9094 86.5769 94.9475L87.3778 95.6727C87.6448 95.9017 88.3503 95.8636 88.5219 95.5964C88.6554 95.3865 88.9414 94.7376 88.9414 94.7376C88.9796 94.6994 89.0368 94.6994 89.0749 94.7376Z" fill="#06477D"/>
<path d="M72.808 91.1897L72.1978 95.5599C72.1978 95.5599 71.2063 98.4798 70.291 97.3538C69.3757 96.2279 68.4604 95.6363 68.4604 95.6363L68.1553 91.0752L72.808 91.1897Z" fill="#FFB0B0"/>
<path d="M70.405 91.3428L70.2524 97.3161C70.2524 97.3161 73.1509 97.755 72.083 95.8084L72.7123 91.6672L70.405 91.3428Z" fill="#DC7B7B"/>
<path d="M68.1548 95.5987L64.4936 98.5758C64.3029 98.7285 64.4363 98.9575 64.7033 98.9575L70.1188 98.9957C70.2523 98.9957 70.3667 98.9384 70.4049 98.8621L70.8244 98.0224C70.9388 97.7743 71.1676 97.7552 71.1486 98.0033L71.3583 98.8239C71.3392 98.9384 72.6359 98.9193 72.655 98.8048C72.7122 98.0796 72.5787 95.7323 72.4452 95.0644C72.4262 94.969 72.3308 94.9117 72.1973 94.8926C72.0829 94.8735 71.9685 94.8926 71.8922 94.969C71.5299 95.3125 70.3667 96.3812 69.7375 96.1712C69.318 96.0186 68.784 95.7705 68.6124 95.6178C68.498 95.5224 68.2882 95.5224 68.1548 95.5987Z" fill="#06477D"/>
<path d="M77.7856 40.6935C79.3874 40.7126 81.5612 45.2928 82.4002 48.8424C83.3727 52.9264 92.9071 85.4264 93.3457 92.8691C92.1634 93.1935 85.6419 93.308 84.8792 93.2699C82.9914 87.3539 75.7643 64.0714 73.6477 55.6554C73.5523 55.2355 72.9803 55.3309 72.9612 55.7699C72.6561 69.8539 75.3639 90.6745 74.7537 94.0523C74.1244 94.3958 66.3634 94.0332 65.6579 93.9378C64.857 84.7584 61.272 46.3233 69.1665 40.6554C73.1328 40.56 74.9253 40.6554 77.7856 40.6935Z" fill="#06477D"/>
<path d="M70.7111 40.6377C70.7111 40.6377 68.1177 43.1186 66.9164 48.8438C65.7341 54.569 67.7745 91.611 67.7745 91.611" stroke="#008ECC" stroke-width="0.204918" stroke-miterlimit="10"/>
<path d="M77.7656 40.6377C77.7656 40.6377 82.0942 53.0232 90.351 90.1224" stroke="#008ECC" stroke-width="0.204918" stroke-miterlimit="10"/>
<path d="M65.7158 91.0195H66.1925" stroke="#008ECC" stroke-width="0.204918" stroke-miterlimit="10"/>
<path d="M67.0874 91.0008L73.8187 90.8672" stroke="#008ECC" stroke-width="0.204918" stroke-miterlimit="10" stroke-dasharray="1.93 1.93"/>
<path d="M74.2778 90.8457H74.7546" stroke="#008ECC" stroke-width="0.204918" stroke-miterlimit="10"/>
<path d="M84.1919 90.5982L93.1923 89.6631" stroke="#008ECC" stroke-width="0.204918" stroke-miterlimit="10" stroke-dasharray="2.05 2.05"/>
<g style="mix-blend-mode:multiply" opacity="0.4">
<path d="M69.0317 40.542L82.1892 48.0229C82.1892 48.0229 81.6743 44.855 78.2038 40.542H69.0317Z" fill="#16649C"/>
</g>
<path d="M78.6058 45.8855C78.6058 45.9619 78.5486 46.0191 78.4723 46.0191C78.4151 46.0191 78.3579 45.9619 78.3579 45.8855C78.3579 45.8092 78.4151 45.752 78.4723 45.752C78.5486 45.752 78.6058 45.8092 78.6058 45.8855Z" fill="#414ACB"/>
<path d="M71.5308 33.2892C72.0648 32.8057 72.6495 32.2714 73.2852 31.6861L71.3211 28.0411C71.6834 27.3159 71.9694 26.6861 72.122 26.2854C72.2173 26.0182 72.1601 25.7129 72.122 25.7129C71.302 25.7892 66.4585 31.5144 65.6386 32.2968C65.3907 32.5449 64.9712 32.3159 64.8186 32.0106L60.204 22.7548C60.0896 22.5067 58.7929 20.8846 57.8395 18.0029C55.2652 18.1174 57.0195 21.2472 57.2293 22.2968C57.2293 22.2968 60.49 35.9609 63.8461 37.9075C63.8461 37.9075 68.2701 38.4037 71.0732 33.69C71.3401 33.8999 71.5308 34.0525 71.5308 34.0525C72.3508 33.5945 72.122 33.3846 71.5308 33.2892Z" fill="#FFB0B0"/>
<path d="M80.5901 26.514C80.5901 26.514 77.9777 25.5026 76.7001 24.9873C76.2234 25.6934 73.9542 27.3155 72.6194 26.9148C71.7994 26.6476 72.0473 25.2736 72.0473 25.2736C72.1236 25.5026 68.7675 29.5484 68.3289 31.6667C67.9285 33.6705 68.7294 40.2545 68.7294 41.0369L78.7595 40.7697C78.7595 40.7697 81.4673 29.2239 80.5901 26.514Z" fill="#008ECC"/>
<g style="mix-blend-mode:multiply" opacity="0.4">
<path d="M79.5395 28.1377L69.4331 41.2675L79.1963 41.7446L79.5395 28.1377Z" fill="#CC8F2B"/>
</g>
<path d="M79.0632 43.3083C80.4361 43.4037 81.6374 42.4495 81.9044 41.1136L82.896 34.7014H82.9151C82.9151 34.7014 83.6969 28.0029 81.8663 26.9533C81.5612 26.7816 80.9891 26.5525 80.5315 26.3808L80.5505 26.3617C79.9785 26.1709 77.5186 25.5029 77.5186 25.5029C77.4995 26.3808 78.3767 28.5945 78.7199 30.1212C78.4911 31.3617 78.3386 34.7777 77.9953 36.6098C77.7665 37.8884 76.6414 38.8235 75.3448 38.8235C71.0733 38.8235 61.9394 37.9266 61.8441 37.9266C61.539 37.9266 60.6427 37.8884 60.3948 38.0793C60.166 38.251 60.5474 38.3274 61.5199 38.4037C63.0835 38.5182 59.1935 38.48 59.1363 38.8999C59.0982 39.1671 60.7381 39.1098 60.7572 39.1671C60.7381 39.3197 59.0791 39.0716 59.0791 39.3197C59.0982 39.6441 60.3758 39.6823 60.5474 39.7205C60.5093 39.7587 59.2507 39.5487 59.2698 39.7205C59.2698 39.8922 60.6046 40.1976 60.6237 40.293C60.6618 40.3884 59.3079 40.1785 59.4605 40.4457C59.4986 40.5029 62.4733 41.0564 62.4733 41.0564C62.9691 41.1327 64.1323 41.419 64.8951 41.5907C69.4716 42.6022 75.7643 43.0793 79.0632 43.3083Z" fill="#FFB0B0"/>
<path d="M77.1756 25.2158C77.1756 25.2158 81.8093 26.3227 82.6864 27.4296C83.5445 28.5364 83.7161 32.5441 83.7161 32.5441L76.9849 34.1853L77.1756 25.2158Z" fill="#008ECC"/>
<path d="M68.7275 30.6932L67.2783 29.7008C67.2783 29.7008 70.9967 25.1016 71.9311 25.6932L68.7275 30.6932Z" fill="#008ECC"/>
<g opacity="0.6">
<path d="M70.5974 28.9959C71.2648 28.9959 71.2648 27.9463 70.5974 27.9463C69.9109 27.9463 69.9109 28.9959 70.5974 28.9959Z" fill="#F1FAF9"/>
<path d="M72.9221 33.6512C73.5895 33.6512 73.5895 32.6016 72.9221 32.6016C72.2356 32.6016 72.2356 33.6512 72.9221 33.6512Z" fill="#F1FAF9"/>
<path d="M69.3195 37.1434C69.987 37.1434 69.987 36.0938 69.3195 36.0938C68.6331 36.0938 68.6331 37.1434 69.3195 37.1434Z" fill="#F1FAF9"/>
<path d="M76.3936 29.3592C77.0801 29.3592 77.0801 28.3096 76.3936 28.3096C75.7262 28.3096 75.7262 29.3592 76.3936 29.3592Z" fill="#F1FAF9"/>
<path d="M75.3659 37.4881C76.0333 37.4881 76.0333 36.4385 75.3659 36.4385C74.6795 36.4385 74.6795 37.4881 75.3659 37.4881Z" fill="#F1FAF9"/>
<path d="M81.2764 30.159C81.9629 30.159 81.9629 29.1094 81.2764 29.1094C80.609 29.1094 80.609 30.159 81.2764 30.159Z" fill="#F1FAF9"/>
</g>
<path d="M54.3115 19.6812V10.3301H60.0894V19.6812H54.3115Z" fill="#2F94C5"/>
<path d="M58.5649 19.0545H55.8571C55.8571 18.5965 55.4757 18.2148 55.0181 18.2148V11.8026C55.4757 11.8026 55.8571 11.4209 55.8571 10.9629H58.5649C58.5649 11.4209 58.9272 11.8026 59.3848 11.8026V18.2148C58.9272 18.2148 58.5649 18.5965 58.5649 19.0545Z" fill="#57B8E7"/>
<path d="M58.241 15.0632C58.241 14.5098 57.7833 14.0518 57.2303 14.0518C56.6773 14.0518 56.2388 14.5098 56.2388 15.0632C56.2388 15.6166 56.6773 16.0747 57.2303 16.0747C57.7833 16.0747 58.241 15.6166 58.241 15.0632Z" fill="#2F94C5"/>
<path d="M54.4644 17.2773L60.8715 10.4834L65.0666 14.4529L58.6786 21.2468L54.4644 17.2773Z" fill="#2F94C5"/>
<path d="M57.9739 19.7192L56.0098 17.8681C56.334 17.5437 56.3149 17.0093 55.9717 16.6849L60.3766 12.0284C60.7007 12.3337 61.2347 12.3337 61.5588 11.9902L63.5229 13.8414C63.1987 14.1849 63.2178 14.7002 63.561 15.0246L59.1562 19.7002C58.832 19.3757 58.2981 19.3948 57.9739 19.7192Z" fill="#57B8E7"/>
<path d="M60.4913 16.6093C60.8727 16.2086 60.8536 15.5597 60.4341 15.178C60.0337 14.7964 59.4044 14.8154 59.023 15.2162C58.6417 15.6361 58.6607 16.2658 59.0612 16.6475C59.4616 17.0292 60.11 17.0101 60.4913 16.6093Z" fill="#2F94C5"/>
<path d="M59.9368 22.5072C59.9368 22.5072 59.6126 18.9195 59.0787 19.2057C59.0024 19.263 58.7926 20.5416 58.6782 21.305C58.6782 21.305 59.6126 22.2973 59.9368 22.5072Z" fill="#F2A398"/>
</g>
<defs>
<clipPath id="clip0_245_10035">
<rect width="109.836" height="100" fill="white" transform="translate(0.824219 0.50293)"/>
</clipPath>
</defs>
</svg>
