<svg width="110" height="101" viewBox="0 0 110 101" fill="none" xmlns="http://www.w3.org/2000/svg">
<g clip-path="url(#clip0_245_10035)">
<g style="mix-blend-mode:multiply">
<g opacity="0.5">
<path d="M48.8376 99.1498C46.74 96.0582 44.6425 92.9285 43.2505 89.4743C41.8584 86.0201 41.2101 82.146 42.1254 78.5391C42.3352 77.6995 42.6593 76.8407 43.3267 76.3063C44.3564 75.4666 45.9201 75.543 47.1214 76.0964C54.7299 79.5506 58.8868 87.375 62.1857 89.7796C61.1942 86.8598 61.0798 85.1231 61.423 82.5086C61.5374 81.6117 62.1476 80.4857 62.7959 79.875C64.0736 78.6537 66.1139 80.0277 67.2199 81.3827C70.6141 85.543 75.286 94.1117 77.2882 99.0735" fill="#ABE4FF"/>
</g>
<g opacity="0.5">
<path d="M12.894 98.938C14.9344 93.5564 20.8839 84.7205 25.9752 82.0296C27.1384 81.3999 28.416 80.8846 29.7318 80.9419C31.0475 80.9991 32.4014 81.8006 32.7256 83.0793C32.9162 83.7663 32.7828 84.4915 32.6493 85.1785C32.2679 87.2777 31.8802 89.377 31.4861 91.4762C32.8018 90.3312 34.1939 89.148 35.891 88.8045C37.6072 88.48 39.6857 89.3579 40.0289 91.0564C40.1433 91.648 40.048 92.2586 39.9145 92.8502C39.4759 94.6632 38.8085 97.7357 37.6453 99.1861" fill="#ABE4FF"/>
</g>
</g>
<path d="M68.687 34.6616V98.6692H109.475V30.9211C109.475 16.4364 100.341 4.68066 89.0715 4.68066C81.2724 4.68066 74.503 10.3104 71.0706 18.5929" fill="#F0F9F8"/>
<path d="M68.687 34.6616V98.6692H109.475V30.9211C109.475 16.4364 100.341 4.68066 89.0715 4.68066C81.2724 4.68066 74.503 10.3104 71.0706 18.5929" stroke="#008ECC" stroke-width="0.901639" stroke-miterlimit="10"/>
<path opacity="0.2" d="M101.409 31.1147C101.409 18.2712 94.2203 7.58419 84.7622 5.33228C86.1161 4.95061 87.5272 4.75977 88.9764 4.75977C100.246 4.75977 109.38 16.5155 109.38 31.0002V98.7483H101.409V31.1147Z" fill="#008ECC"/>
<path d="M68.6869 98.6709H0.153809" stroke="#008ECC" stroke-width="0.901639" stroke-miterlimit="10"/>
<path d="M26.9453 25.9229L32.2846 34.1862L31.3502 42.1824L28.3183 31.9725L26.9453 25.9229Z" fill="#072D30"/>
<path d="M19.8712 16.0564C19.8712 16.0564 18.3838 13.9763 18.3838 13.461C18.3838 12.9267 21.0153 11.3809 21.0153 11.3809C21.0153 11.3809 22.7124 15.961 22.4073 16.4954C22.0831 17.0488 20.3288 15.0831 19.8712 16.0564Z" fill="#06477D"/>
<path d="M21.0539 15.8074C21.0539 15.8074 19.6619 15.254 19.8335 16.5135C19.9479 17.3723 20.806 17.4296 20.806 17.4296L20.7297 21.7235L26.2787 23.5555L25.4016 19.1471C25.4016 19.1471 26.336 19.2425 26.8317 18.1738C27.2131 16.7616 26.5648 12.9448 25.3634 10.6166L22.4459 10.2158L21.0158 11.3799C21.0158 11.3799 21.912 15.5975 21.5116 15.7502C21.2827 15.8456 21.0539 15.8074 21.0539 15.8074Z" fill="#F89D9D"/>
<path d="M21.3389 11.1704C21.3389 11.1704 24.4471 9.28112 24.5424 9.22387C26.0107 8.46051 25.3814 10.6933 24.981 11.2086C24.1229 12.2964 21.3389 11.1704 21.3389 11.1704Z" fill="#06477D"/>
<path d="M25.4386 19.1467L23.5698 19.0322L25.5911 20.4444L25.4386 19.1467Z" fill="#CC6666"/>
<path d="M24.524 12.8127L23.5325 13.5188C23.4753 13.557 23.399 13.557 23.3609 13.5188C23.1892 13.3471 23.2464 13.0799 23.4943 12.9082L23.8376 12.6601C24.0855 12.4883 24.3906 12.4883 24.5622 12.6601C24.6003 12.6982 24.5813 12.7746 24.524 12.8127Z" fill="#06477D"/>
<path d="M26.5071 12.9443L25.7062 13.0015C25.649 13.0015 25.5918 12.9634 25.5918 12.9252V12.8298C25.5537 12.6389 25.7443 12.4863 25.9732 12.4672L26.1257 12.4481C26.3545 12.429 26.5834 12.5626 26.6024 12.7534V12.8489C26.6215 12.887 26.5643 12.9252 26.5071 12.9443Z" fill="#06477D"/>
<path d="M25.4785 14.1494L26.3557 15.1227C26.5273 15.2563 26.4129 15.2945 26.3175 15.3326L25.6692 15.5998L25.4785 14.1494Z" fill="#CC6666"/>
<path d="M21.0354 16.8558L20.1201 16.4551C20.1201 16.4551 21.0354 15.6536 21.0354 16.8558Z" fill="#CC6666"/>
<path d="M25.0004 14.4357C25.0004 14.5883 24.9432 14.7219 24.8669 14.7219C24.7716 14.7219 24.7144 14.5883 24.7144 14.4357C24.7144 14.2639 24.7716 14.1494 24.8669 14.1494C24.9432 14.1494 25.0004 14.2639 25.0004 14.4357Z" fill="#06477D"/>
<path d="M26.1635 14.1085C26.1635 14.2803 26.0872 14.3948 26.0109 14.3948C25.9346 14.3948 25.8774 14.2803 25.8774 14.1085C25.8774 13.9559 25.9346 13.8223 26.0109 13.8223C26.0872 13.8223 26.1635 13.9559 26.1635 14.1085Z" fill="#06477D"/>
<path d="M25.1348 16.0957L26.5459 15.6377C26.5459 15.6377 26.4886 16.6682 26.1263 16.8972C25.745 17.1453 25.1348 16.0957 25.1348 16.0957Z" fill="#F1FAF9"/>
<path d="M26.8705 7.31516C26.7561 7.16249 26.5273 7.10524 26.3747 7.21974L24.1055 8.61287L24.0483 8.53654C22.5419 6.64722 20.635 6.34188 18.9379 7.506C17.2408 8.68921 16.8785 10.5785 17.9463 12.7923L18.3468 13.651L24.6585 9.22356L26.7752 7.88768C26.9658 7.77318 27.004 7.506 26.8705 7.31516Z" fill="#008ECC"/>
<path d="M9.34463 89.2832L7.60938 93.7298L17.1056 97.9092C17.1056 97.9092 16.9149 95.0084 14.8936 93.4244C12.8724 91.8595 13.6923 90.7145 13.6923 90.7145L9.34463 89.2832Z" fill="#06477D"/>
<path d="M7.896 92.9834L16.8583 96.7048" stroke="white" stroke-width="0.409836" stroke-miterlimit="10"/>
<path d="M14.0187 92.3145L12.8555 92.8297" stroke="white" stroke-width="0.409836" stroke-miterlimit="10"/>
<path d="M14.5323 93.1553L13.3691 93.6515" stroke="white" stroke-width="0.409836" stroke-miterlimit="10"/>
<path d="M23.5134 74.1471L14.4176 91.1891L8.90674 89.109C8.90674 89.109 15.8478 70.6166 16.6105 68.67C17.3923 66.7235 19.8141 45.8838 19.8141 45.8838L30.7214 45.941L23.8948 73.0784L23.5134 74.1471Z" fill="#232A5F"/>
<path d="M32.2294 45.846C31.7718 62.4872 30.3416 69.7582 29.9984 70.7887C29.6742 71.8193 29.5026 93.4605 29.5026 93.4605L23.2099 93.9185L20.3496 45.0254L32.2294 45.846Z" fill="#2B4B94"/>
<path d="M24.0117 93.8044V98.6136L34.3279 98.8426C34.3279 98.8426 33.1075 96.209 30.6667 95.522C28.2259 94.835 28.5501 93.4609 28.5501 93.4609L24.0117 93.8044Z" fill="#06477D"/>
<path d="M24.0117 97.8135H33.6605" stroke="white" stroke-width="0.409836" stroke-miterlimit="10"/>
<path d="M29.4426 94.835L28.5464 95.751" stroke="white" stroke-width="0.409836" stroke-miterlimit="10"/>
<path d="M30.2258 95.4082L29.3296 96.3242" stroke="white" stroke-width="0.409836" stroke-miterlimit="10"/>
<path d="M18.8027 35.5977L15.9614 45.2923L18.5548 46.2465L20.7095 38.174C20.7095 38.174 20.4617 36.5328 20.4617 35.8076C20.4617 35.8076 19.718 35.8457 18.8027 35.5977Z" fill="#0C1E45"/>
<path d="M28.3187 24.1863C28.3187 24.1863 28.2997 24.1291 28.2806 24.0146C28.1853 23.442 27.9183 22.2779 27.3844 21.9917C26.7551 21.6481 18.956 19.9688 18.956 19.9688C18.956 19.9688 9.65043 23.1749 15.7143 31.61C15.7143 31.61 15.4283 33.881 18.7462 33.881C22.0451 33.881 28.3187 24.1863 28.3187 24.1863Z" fill="#16649C"/>
<path d="M20.0254 23.5959C20.0254 23.5959 14.4382 23.7677 17.985 38.0234L20.3305 46.8593L32.687 47.7181C32.687 47.7181 30.189 28.3669 27.5957 22.8135" fill="#16649C"/>
<path d="M28.8153 26.1338L20.9971 47.6033L23.5714 48.3666L29.8831 30.8284L28.8153 26.1338Z" fill="white"/>
<path d="M38.9019 38.2516L46.3959 38.1943C46.4912 38.1943 46.5294 38.3279 46.434 38.3661L40.4846 41.2287L38.9019 38.2516Z" fill="#F89D9D"/>
<path d="M30.7032 36.8582L28.8917 31.9155C27.5187 29.6445 26.7751 27.5452 25.2496 25.4269C25.0017 25.0834 23.3236 24.4155 22.3702 24.3391C21.6074 24.2628 20.1773 25.2552 19.6433 25.8277C16.9165 28.8048 21.6456 38.5185 22.3702 39.5872C23.8003 41.6674 24.5822 43.404 26.8513 44.4345L41.2483 42.717L38.9028 38.1559H30.6842L31.0083 38.1368" fill="#008ECC"/>
<path d="M24.4684 63.04L7.97388 56.3987C6.82975 55.9407 6.27676 54.643 6.73441 53.4789L11.2918 42.1621L31.9433 50.4827L27.3859 61.7995C26.9282 62.9446 25.6125 63.5171 24.4684 63.04Z" fill="#008ECC"/>
<path d="M7.70703 51.4368L24.5447 58.0971C25.3456 58.4024 26.2419 58.0398 26.5851 57.2574L29.9221 49.7383" stroke="#F1FAF9" stroke-width="0.696721" stroke-miterlimit="10"/>
<path d="M51.2403 38.2518H31.6948V20.5801H51.2403V38.2518Z" fill="#008ECC"/>
<path d="M51.2402 38.2518H45.5195V20.5801H51.2402V38.2518Z" fill="#023259"/>
<path d="M49.733 32.0113H46.396V29.4922H49.733V32.0113Z" fill="#F1FAF9"/>
<path d="M51.3921 35.751H31.5415V32.793H51.3921V35.751Z" fill="#06477D"/>
<path d="M65.0257 14.7775C65.0257 10.7317 61.7458 7.44922 57.7033 7.44922C53.6607 7.44922 50.3809 10.7317 50.3809 14.7775C50.3809 18.8233 53.6607 22.1057 57.7033 22.1057C61.7458 22.1057 65.0257 18.8233 65.0257 14.7775Z" fill="#ABE4FF"/>
<path d="M48.5705 17.1817C48.5705 16.6474 48.151 16.2275 47.617 16.2275C47.0831 16.2275 46.6445 16.6474 46.6445 17.1817C46.6445 17.7161 47.0831 18.155 47.617 18.155C48.151 18.155 48.5705 17.7161 48.5705 17.1817Z" fill="#ABE4FF"/>
<path d="M65.5034 6.36099C65.5034 5.55946 64.8741 4.92969 64.0732 4.92969C63.2724 4.92969 62.624 5.55946 62.624 6.36099C62.624 7.16251 63.2724 7.81137 64.0732 7.81137C64.8741 7.81137 65.5034 7.16251 65.5034 6.36099Z" stroke="#ABE4FF" stroke-width="0.778688" stroke-miterlimit="10"/>
<path d="M64.5496 22.7173C64.5496 22.4502 64.3399 22.2402 64.0729 22.2402C63.8059 22.2402 63.5962 22.4502 63.5962 22.7173C63.5962 22.9845 63.8059 23.1944 64.0729 23.1944C64.3399 23.1944 64.5496 22.9845 64.5496 22.7173Z" fill="#ABE4FF"/>
<path d="M10.7385 32.3347C10.7385 31.3995 9.9757 30.6553 9.04133 30.6553C8.12603 30.6553 7.36328 31.3995 7.36328 32.3347C7.36328 33.2698 8.12603 34.0141 9.04133 34.0141C9.9757 34.0141 10.7385 33.2698 10.7385 32.3347Z" fill="#023259"/>
<path d="M58.2944 44.1094C58.2944 44.5102 57.9702 44.8346 57.5889 44.8346C57.1884 44.8346 56.8643 44.5102 56.8643 44.1094C56.8643 43.7277 57.1884 43.4033 57.5889 43.4033C57.9702 43.4033 58.2944 43.7277 58.2944 44.1094Z" fill="#023259"/>
<path d="M38.3696 2.02993C38.3696 1.24749 37.7213 0.598633 36.9204 0.598633C36.1195 0.598633 35.4712 1.24749 35.4712 2.02993C35.4712 2.83146 36.1195 3.48031 36.9204 3.48031C37.7213 3.48031 38.3696 2.83146 38.3696 2.02993Z" fill="#023259"/>
<path d="M96.262 72.4865C96.262 71.8185 95.7281 71.2842 95.0607 71.2842C94.3933 71.2842 93.8594 71.8185 93.8594 72.4865C93.8594 73.1544 94.3933 73.6888 95.0607 73.6888C95.7281 73.6888 96.262 73.1544 96.262 72.4865Z" fill="#023259"/>
<path d="M69.6043 17.126C69.6043 17.126 68.4983 19.7786 69.5852 21.668C70.9772 24.1107 67.9453 22.2405 67.4876 23.9962C67.2588 24.8741 67.4304 26.8588 67.4304 26.8588L75.7826 29.6451L69.6043 17.126Z" fill="#232A5F"/>
<path d="M74.1045 31.7444L68.5745 16.9161C68.2313 16.439 68.441 14.6451 68.7271 14.1108C69.4898 12.6795 70.7865 11.3054 72.3311 11.1528C77.3652 10.6757 79.0051 14.8741 79.1005 16.4963C79.2149 18.0039 79.6153 18.3665 80.3209 18.3856C80.7213 18.4047 82.3803 18.5001 82.3612 21.21C82.3422 23.8245 82.0752 22.4314 83.7532 23.8245C85.4313 25.2177 85.0309 27.1451 85.0309 27.1451L74.1045 31.7444Z" fill="#232A5F"/>
<path d="M70.6516 21.1135C71.1093 20.5219 70.9948 19.6631 70.4037 19.2051C69.8126 18.7471 68.9545 18.8616 68.4968 19.4532C68.0392 20.0448 68.1536 20.8845 68.7447 21.3425C69.3359 21.8196 70.194 21.7051 70.6516 21.1135Z" fill="#FAE06E"/>
<path d="M74.5415 16.6482C74.5606 16.7245 74.8085 16.4001 74.8657 16.3619C75.1326 16.1902 75.8191 15.8657 76.3149 16.5718C76.8107 17.297 75.8954 18.0413 75.4949 18.3276C75.3805 18.4039 75.3042 18.5375 75.2661 18.6711C75.1898 19.11 75.8191 26.1711 75.8191 26.1711C75.8191 26.1711 68.6492 32.5451 70.9184 26.9154C70.9184 26.9154 71.91 22.2589 71.5286 21.2665C71.5286 21.2474 69.2976 21.8963 68.6302 18.3848C68.02 15.1978 69.1069 14.4917 70.4417 13.9764C70.8803 13.8238 72.2723 18.3657 74.5415 16.6482Z" fill="#FFB0B0"/>
<path d="M76.925 20.2346C77.3827 19.643 77.2683 18.8033 76.6772 18.3262C76.086 17.8682 75.247 17.9827 74.7703 18.5743C74.3126 19.1659 74.427 20.0246 75.0182 20.4827C75.6093 20.9407 76.4674 20.8262 76.925 20.2346Z" fill="#FAE06E"/>
<path d="M76.0093 17.0484C76.0093 17.0484 75.5325 15.9797 74.9414 17.411L76.0093 17.0484Z" fill="#D66651"/>
<path d="M68.8772 14.2606C68.8772 14.2606 68.3242 17.9057 70.212 15.2148C70.6697 14.566 73.0533 11.5316 68.8772 14.2606Z" fill="#232A5F"/>
<path d="M71.8135 17.6215C71.413 17.8505 71.2795 18.3657 71.5274 18.7665C71.7563 19.1482 72.2521 19.2818 72.6525 19.0527C73.0529 18.8237 73.1864 18.3085 72.9576 17.9268C72.7288 17.526 72.2139 17.3924 71.8135 17.6215Z" fill="#FF9191"/>
<path d="M69.2603 19.5091L70.7476 19.1465C70.7476 19.1465 70.8048 20.0434 70.2709 20.0816C69.7179 20.1007 69.2603 19.5091 69.2603 19.5091Z" fill="white"/>
<path d="M69.6603 18.1934L69.9654 19.0712L69.4887 19.1476C69.3934 19.1476 69.3361 19.0712 69.3552 18.9758L69.6603 18.1934Z" fill="#D4635F"/>
<path d="M70.7492 16.6489C70.9399 16.7253 70.5776 16.2672 70.3487 16.2672C70.1008 16.2482 69.9102 16.4008 69.9102 16.6107C69.9102 16.6107 70.3106 16.4581 70.7492 16.6489Z" fill="#040F33"/>
<path d="M68.5342 16.8569C68.744 16.7614 68.9919 16.8187 69.0872 17.0095C69.0872 17.0095 68.8012 17.0095 68.5151 17.2004" fill="#040F33"/>
<path d="M70.4613 17.8295C70.4804 17.9822 70.4422 18.1349 70.3659 18.154C70.2897 18.154 70.1943 18.0395 70.1753 17.8868C70.1371 17.715 70.1753 17.5815 70.2706 17.5624C70.3469 17.5433 70.4232 17.6769 70.4613 17.8295Z" fill="#040F33"/>
<path d="M69.2777 18.0783C69.3158 18.231 69.2777 18.3646 69.2014 18.3836C69.1251 18.4027 69.0298 18.2882 69.0107 18.1355C68.9916 17.9829 69.0298 17.8493 69.1061 17.8302C69.1823 17.8111 69.2586 17.9256 69.2777 18.0783Z" fill="#040F33"/>
<path d="M71.4512 21.267C71.4512 21.267 71.7753 21.3242 72.233 21.2097C72.5953 21.1143 73.1674 20.8662 73.1674 20.8662C73.1674 20.8662 72.786 22.0494 72.2139 22.0494C71.68 22.0494 71.7181 21.8013 71.4512 21.267Z" fill="#D66651"/>
<path d="M84.4185 90.8457L85.7723 95.2159C85.7723 95.2159 86.8211 96.132 87.1834 96.1129C87.8699 96.0556 88.2322 94.8915 88.2322 94.8915L88.3466 90.8457H84.4185Z" fill="#FFB0B0"/>
<path d="M86.3843 89.6826L87.3377 96.9154C87.3377 96.9154 89.2827 97.4307 88.2149 95.4841L88.4437 89.9116L86.3843 89.6826Z" fill="#DC7B7B"/>
<path d="M88.2907 94.7376L90.3692 98.23C90.579 98.5735 90.4646 98.9743 90.0641 99.2033C89.4158 99.604 88.8819 100.367 88.4624 100.386C87.7187 100.406 86.5746 99.6231 85.9071 99.3369C85.4495 99.1269 85.1063 98.8407 85.1635 98.4781L85.6783 94.9666C85.6783 94.9285 85.7546 94.9094 85.7927 94.9475L86.5936 95.6727C86.8606 95.9017 87.5661 95.8636 87.7377 95.5964C87.8712 95.3865 88.1573 94.7376 88.1573 94.7376C88.1954 94.6994 88.2526 94.6994 88.2907 94.7376Z" fill="#06477D"/>
<path d="M72.0239 91.1897L71.4137 95.5599C71.4137 95.5599 70.4221 98.4798 69.5068 97.3538C68.5915 96.2279 67.6762 95.6363 67.6762 95.6363L67.3711 91.0752L72.0239 91.1897Z" fill="#FFB0B0"/>
<path d="M69.6208 91.3428L69.4683 97.3161C69.4683 97.3161 72.3667 97.755 71.2989 95.8084L71.9281 91.6672L69.6208 91.3428Z" fill="#DC7B7B"/>
<path d="M67.3706 95.5987L63.7094 98.5758C63.5187 98.7285 63.6522 98.9575 63.9191 98.9575L69.3347 98.9957C69.4681 98.9957 69.5826 98.9384 69.6207 98.8621L70.0402 98.0224C70.1546 97.7743 70.3834 97.7552 70.3644 98.0033L70.5741 98.8239C70.5551 98.9384 71.8517 98.9193 71.8708 98.8048C71.928 98.0796 71.7945 95.7323 71.661 95.0644C71.642 94.969 71.5466 94.9117 71.4132 94.8926C71.2987 94.8735 71.1843 94.8926 71.1081 94.969C70.7458 95.3125 69.5826 96.3812 68.9533 96.1712C68.5338 96.0186 67.9998 95.7705 67.8282 95.6178C67.7138 95.5224 67.5041 95.5224 67.3706 95.5987Z" fill="#06477D"/>
<path d="M77.0014 40.6935C78.6032 40.7126 80.777 45.2928 81.6161 48.8424C82.5886 52.9264 92.1229 85.4264 92.5615 92.8691C91.3793 93.1935 84.8577 93.308 84.095 93.2699C82.2072 87.3539 74.9801 64.0714 72.8635 55.6554C72.7681 55.2355 72.1961 55.3309 72.177 55.7699C71.8719 69.8539 74.5797 90.6745 73.9695 94.0523C73.3402 94.3958 65.5792 94.0332 64.8737 93.9378C64.0728 84.7584 60.4879 46.3233 68.3823 40.6554C72.3486 40.56 74.1411 40.6554 77.0014 40.6935Z" fill="#06477D"/>
<path d="M69.9269 40.6377C69.9269 40.6377 67.3335 43.1186 66.1322 48.8438C64.95 54.569 66.9903 91.611 66.9903 91.611" stroke="#008ECC" stroke-width="0.204918" stroke-miterlimit="10"/>
<path d="M76.9814 40.6377C76.9814 40.6377 81.3101 53.0232 89.5668 90.1224" stroke="#008ECC" stroke-width="0.204918" stroke-miterlimit="10"/>
<path d="M64.9316 91.0195H65.4084" stroke="#008ECC" stroke-width="0.204918" stroke-miterlimit="10"/>
<path d="M66.3032 91.0008L73.0345 90.8672" stroke="#008ECC" stroke-width="0.204918" stroke-miterlimit="10" stroke-dasharray="1.93 1.93"/>
<path d="M73.4937 90.8457H73.9704" stroke="#008ECC" stroke-width="0.204918" stroke-miterlimit="10"/>
<path d="M83.4077 90.5982L92.4082 89.6631" stroke="#008ECC" stroke-width="0.204918" stroke-miterlimit="10" stroke-dasharray="2.05 2.05"/>
<g style="mix-blend-mode:multiply" opacity="0.4">
<path d="M68.2476 40.542L81.405 48.0229C81.405 48.0229 80.8901 44.855 77.4196 40.542H68.2476Z" fill="#16649C"/>
</g>
<path d="M77.8216 45.8855C77.8216 45.9619 77.7644 46.0191 77.6881 46.0191C77.6309 46.0191 77.5737 45.9619 77.5737 45.8855C77.5737 45.8092 77.6309 45.752 77.6881 45.752C77.7644 45.752 77.8216 45.8092 77.8216 45.8855Z" fill="#414ACB"/>
<path d="M70.7467 33.2892C71.2806 32.8057 71.8654 32.2714 72.501 31.6861L70.5369 28.0411C70.8992 27.3159 71.1852 26.6861 71.3378 26.2854C71.4331 26.0182 71.3759 25.7129 71.3378 25.7129C70.5178 25.7892 65.6744 31.5144 64.8544 32.2968C64.6065 32.5449 64.187 32.3159 64.0345 32.0106L59.4198 22.7548C59.3054 22.5067 58.0087 20.8846 57.0553 18.0029C54.481 18.1174 56.2353 21.2472 56.4451 22.2968C56.4451 22.2968 59.7058 35.9609 63.0619 37.9075C63.0619 37.9075 67.4859 38.4037 70.289 33.69C70.556 33.8999 70.7467 34.0525 70.7467 34.0525C71.5666 33.5945 71.3378 33.3846 70.7467 33.2892Z" fill="#FFB0B0"/>
<path d="M79.806 26.514C79.806 26.514 77.1935 25.5026 75.9159 24.9873C75.4392 25.6934 73.17 27.3155 71.8352 26.9148C71.0153 26.6476 71.2631 25.2736 71.2631 25.2736C71.3394 25.5026 67.9833 29.5484 67.5447 31.6667C67.1443 33.6705 67.9452 40.2545 67.9452 41.0369L77.9754 40.7697C77.9754 40.7697 80.6831 29.2239 79.806 26.514Z" fill="#008ECC"/>
<g style="mix-blend-mode:multiply" opacity="0.4">
<path d="M78.7554 28.1377L68.6489 41.2675L78.4121 41.7446L78.7554 28.1377Z" fill="#CC8F2B"/>
</g>
<path d="M78.279 43.3083C79.6519 43.4037 80.8533 42.4495 81.1202 41.1136L82.1118 34.7014H82.1309C82.1309 34.7014 82.9127 28.0029 81.0821 26.9533C80.777 26.7816 80.2049 26.5525 79.7473 26.3808L79.7663 26.3617C79.1943 26.1709 76.7344 25.5029 76.7344 25.5029C76.7153 26.3808 77.5925 28.5945 77.9357 30.1212C77.7069 31.3617 77.5544 34.7777 77.2111 36.6098C76.9823 37.8884 75.8572 38.8235 74.5606 38.8235C70.2892 38.8235 61.1552 37.9266 61.0599 37.9266C60.7548 37.9266 59.8586 37.8884 59.6107 38.0793C59.3818 38.251 59.7632 38.3274 60.7357 38.4037C62.2994 38.5182 58.4093 38.48 58.3521 38.8999C58.314 39.1671 59.9539 39.1098 59.973 39.1671C59.9539 39.3197 58.2949 39.0716 58.2949 39.3197C58.314 39.6441 59.5916 39.6823 59.7632 39.7205C59.7251 39.7587 58.4665 39.5487 58.4856 39.7205C58.4856 39.8922 59.8204 40.1976 59.8395 40.293C59.8776 40.3884 58.5237 40.1785 58.6763 40.4457C58.7144 40.5029 61.6892 41.0564 61.6892 41.0564C62.1849 41.1327 63.3481 41.419 64.1109 41.5907C68.6874 42.6022 74.9801 43.0793 78.279 43.3083Z" fill="#FFB0B0"/>
<path d="M76.3914 25.2158C76.3914 25.2158 81.0251 26.3227 81.9022 27.4296C82.7603 28.5364 82.932 32.5441 82.932 32.5441L76.2007 34.1853L76.3914 25.2158Z" fill="#008ECC"/>
<path d="M67.9434 30.6932L66.4941 29.7008C66.4941 29.7008 70.2125 25.1016 71.1469 25.6932L67.9434 30.6932Z" fill="#008ECC"/>
<g opacity="0.6">
<path d="M69.8132 28.9959C70.4806 28.9959 70.4806 27.9463 69.8132 27.9463C69.1267 27.9463 69.1267 28.9959 69.8132 28.9959Z" fill="#F1FAF9"/>
<path d="M72.1379 33.6512C72.8053 33.6512 72.8053 32.6016 72.1379 32.6016C71.4514 32.6016 71.4514 33.6512 72.1379 33.6512Z" fill="#F1FAF9"/>
<path d="M68.5354 37.1434C69.2028 37.1434 69.2028 36.0938 68.5354 36.0938C67.8489 36.0938 67.8489 37.1434 68.5354 37.1434Z" fill="#F1FAF9"/>
<path d="M75.6094 29.3592C76.2959 29.3592 76.2959 28.3096 75.6094 28.3096C74.942 28.3096 74.942 29.3592 75.6094 29.3592Z" fill="#F1FAF9"/>
<path d="M74.5818 37.4881C75.2492 37.4881 75.2492 36.4385 74.5818 36.4385C73.8953 36.4385 73.8953 37.4881 74.5818 37.4881Z" fill="#F1FAF9"/>
<path d="M80.4923 30.159C81.1787 30.159 81.1787 29.1094 80.4923 29.1094C79.8248 29.1094 79.8248 30.159 80.4923 30.159Z" fill="#F1FAF9"/>
</g>
<path d="M53.5273 19.6812V10.3301H59.3052V19.6812H53.5273Z" fill="#2F94C5"/>
<path d="M57.7807 19.0545H55.0729C55.0729 18.5965 54.6915 18.2148 54.2339 18.2148V11.8026C54.6915 11.8026 55.0729 11.4209 55.0729 10.9629H57.7807C57.7807 11.4209 58.143 11.8026 58.6006 11.8026V18.2148C58.143 18.2148 57.7807 18.5965 57.7807 19.0545Z" fill="#57B8E7"/>
<path d="M57.4568 15.0632C57.4568 14.5098 56.9992 14.0518 56.4462 14.0518C55.8932 14.0518 55.4546 14.5098 55.4546 15.0632C55.4546 15.6166 55.8932 16.0747 56.4462 16.0747C56.9992 16.0747 57.4568 15.6166 57.4568 15.0632Z" fill="#2F94C5"/>
<path d="M53.6802 17.2773L60.0873 10.4834L64.2824 14.4529L57.8944 21.2468L53.6802 17.2773Z" fill="#2F94C5"/>
<path d="M57.1897 19.7192L55.2256 17.8681C55.5498 17.5437 55.5307 17.0093 55.1875 16.6849L59.5924 12.0284C59.9165 12.3337 60.4505 12.3337 60.7746 11.9902L62.7387 13.8414C62.4146 14.1849 62.4336 14.7002 62.7769 15.0246L58.372 19.7002C58.0478 19.3757 57.5139 19.3948 57.1897 19.7192Z" fill="#57B8E7"/>
<path d="M59.7072 16.6093C60.0885 16.2086 60.0695 15.5597 59.6499 15.178C59.2495 14.7964 58.6202 14.8154 58.2389 15.2162C57.8575 15.6361 57.8766 16.2658 58.277 16.6475C58.6774 17.0292 59.3258 17.0101 59.7072 16.6093Z" fill="#2F94C5"/>
<path d="M59.1526 22.5072C59.1526 22.5072 58.8284 18.9195 58.2945 19.2057C58.2182 19.263 58.0085 20.5416 57.894 21.305C57.894 21.305 58.8284 22.2973 59.1526 22.5072Z" fill="#F2A398"/>
</g>
<defs>
<clipPath id="clip0_245_10035">
<rect width="109.836" height="100" fill="white" transform="translate(0.0400391 0.50293)"/>
</clipPath>
</defs>
</svg>
