<svg width="118" height="101" viewBox="0 0 118 101" fill="none" xmlns="http://www.w3.org/2000/svg">
    <path d="M28.2423 71.9114C28.2423 71.5443 28.5275 71.2588 28.8943 71.2588C29.2407 71.2588 29.5464 71.5443 29.5464 71.9114C29.5464 72.258 29.2407 72.5639 28.8943 72.5639C28.5275 72.5639 28.2423 72.258 28.2423 71.9114Z"
          stroke="#F0F9F8" stroke-width="0.832106" stroke-miterlimit="10"/>
    <path d="M30.26 17.2559C30.26 16.9704 30.4841 16.7461 30.7694 16.7461C31.0547 16.7461 31.2788 16.9704 31.2788 17.2559C31.2788 17.5414 31.0547 17.7657 30.7694 17.7657C30.4841 17.7657 30.26 17.5414 30.26 17.2559Z"
          fill="#ABE4FF"/>
    <path d="M36.9434 40.1168C36.9434 40.5451 37.2898 40.8918 37.6974 40.8918C38.1253 40.8918 38.4717 40.5451 38.4717 40.1168C38.4717 39.709 38.1253 39.3623 37.6974 39.3623C37.2898 39.3623 36.9434 39.709 36.9434 40.1168Z"
          fill="#008ECC"/>
    <path d="M24.8596 11.2812C24.8596 11.2812 26.0414 14.1159 24.8799 16.1348C23.3924 18.7451 26.6323 16.7466 27.1214 18.6228C27.3659 19.5609 27.1825 21.6817 27.1825 21.6817L18.2574 24.6591L24.8596 11.2812Z"
          fill="#232A5F"/>
    <path d="M20.0514 26.9017L25.9606 11.0563C26.3274 10.5464 26.1033 8.62948 25.7976 8.05847C24.9825 6.52898 23.5969 5.06068 21.9464 4.89753C16.5669 4.38771 14.8145 8.87419 14.7126 10.6076C14.5904 12.2187 14.1624 12.6061 13.4085 12.6265C12.9806 12.6469 11.2078 12.7489 11.2282 15.6447C11.2485 18.4386 11.5338 16.9499 9.74066 18.4386C7.94749 19.9273 8.37541 21.987 8.37541 21.987L20.0514 26.9017Z"
          fill="#232A5F"/>
    <path d="M23.7384 15.5439C23.2494 14.9118 23.3716 13.9941 24.0033 13.5046C24.635 13.0152 25.552 13.1376 26.041 13.7697C26.5301 14.4019 26.4078 15.2992 25.7761 15.7887C25.1444 16.2985 24.2275 16.1761 23.7384 15.5439Z"
          fill="#023259"/>
    <path d="M19.5821 10.7712C19.5617 10.8527 19.2968 10.5061 19.2357 10.4653C18.9504 10.2817 18.2168 9.93506 17.687 10.6896C17.1572 11.4645 18.1353 12.2599 18.5632 12.5658C18.6855 12.6473 18.767 12.7901 18.8078 12.9328C18.8893 13.4019 18.2168 20.9473 18.2168 20.9473C18.2168 20.9473 25.8785 27.7586 23.4537 21.7427C23.4537 21.7427 22.3941 16.7668 22.8016 15.7063C22.8016 15.6859 25.1857 16.3793 25.8989 12.6269C26.551 9.2213 25.3895 8.46675 23.9631 7.91614C23.4944 7.753 22.0069 12.6066 19.5821 10.7712Z"
          fill="#FFB0B0"/>
    <path d="M17.0363 14.6045C16.5472 13.9723 16.6695 13.075 17.3012 12.5652C17.9329 12.0758 18.8294 12.1981 19.3389 12.8303C19.8279 13.4625 19.7056 14.3802 19.074 14.8696C18.4423 15.359 17.5253 15.2367 17.0363 14.6045Z"
          fill="#023259"/>
    <path d="M18.0132 11.2007C18.0132 11.2007 18.5226 10.0587 19.1543 11.5881L18.0132 11.2007Z" fill="#D66651"/>
    <path d="M25.6337 8.22225C25.6337 8.22225 26.2246 12.1173 24.2073 9.2419C23.7183 8.54854 21.1712 5.30603 25.6337 8.22225Z"
          fill="#232A5F"/>
    <path d="M22.4967 11.8117C22.9246 12.0564 23.0673 12.6071 22.8024 13.0353C22.5578 13.4432 22.028 13.5859 21.6001 13.3412C21.1722 13.0965 21.0296 12.5459 21.2741 12.138C21.5186 11.7098 22.0688 11.567 22.4967 11.8117Z"
          fill="#FF9191"/>
    <path d="M25.2256 13.8308L23.6362 13.4434C23.6362 13.4434 23.5751 14.4018 24.1456 14.4426C24.7365 14.463 25.2256 13.8308 25.2256 13.8308Z"
          fill="white"/>
    <path d="M24.7995 12.4229L24.4734 13.3609L24.9828 13.4425C25.0847 13.4425 25.1459 13.3609 25.1255 13.259L24.7995 12.4229Z"
          fill="#D4635F"/>
    <path d="M23.6381 10.7719C23.4343 10.8535 23.8215 10.364 24.066 10.364C24.3309 10.3436 24.5347 10.5068 24.5347 10.7311C24.5347 10.7311 24.1068 10.568 23.6381 10.7719Z"
          fill="#040F33"/>
    <path d="M26.0006 10.9957C25.7765 10.8937 25.5116 10.9549 25.4097 11.1588C25.4097 11.1588 25.7153 11.1588 26.021 11.3628"
          fill="#040F33"/>
    <path d="M23.9429 12.0355C23.9225 12.1986 23.9633 12.3618 24.0448 12.3822C24.1263 12.3822 24.2282 12.2598 24.2485 12.0967C24.2893 11.9131 24.2485 11.7704 24.1467 11.75C24.0652 11.7296 23.9836 11.8724 23.9429 12.0355Z"
          fill="#040F33"/>
    <path d="M25.2056 12.3005C25.1649 12.4637 25.2056 12.6064 25.2871 12.6268C25.3686 12.6472 25.4705 12.5249 25.4909 12.3617C25.5113 12.1986 25.4705 12.0558 25.389 12.0354C25.3075 12.015 25.226 12.1374 25.2056 12.3005Z"
          fill="#040F33"/>
    <path d="M22.8843 15.7076C22.8843 15.7076 22.5379 15.7687 22.0488 15.6464C21.6617 15.5444 21.0504 15.2793 21.0504 15.2793C21.0504 15.2793 21.4579 16.5437 22.0692 16.5437C22.6398 16.5437 22.599 16.2786 22.8843 15.7076Z"
          fill="#D66651"/>
    <path d="M9.02686 90.0596L7.5801 94.7296C7.5801 94.7296 6.45937 95.7085 6.07221 95.6881C5.33864 95.6269 4.95148 94.3829 4.95148 94.3829L4.82922 90.0596H9.02686Z"
          fill="#FFB0B0"/>
    <path d="M6.92773 88.8154L5.90889 96.5444C5.90889 96.5444 3.83045 97.095 4.97155 95.0149L4.72703 89.0601L6.92773 88.8154Z"
          fill="#DC7B7B"/>
    <path d="M4.89128 94.22L2.67019 97.952C2.44605 98.3191 2.56831 98.7473 2.99622 98.992C3.68904 99.4203 4.25959 100.236 4.70788 100.256C5.50258 100.277 6.72519 99.4407 7.43838 99.1348C7.92743 98.9105 8.29421 98.6046 8.23308 98.2171L7.6829 94.4648C7.6829 94.424 7.60139 94.4036 7.56064 94.4444L6.70482 95.2193C6.41954 95.464 5.6656 95.4232 5.4822 95.1377C5.33957 94.9134 5.03391 94.22 5.03391 94.22C4.99316 94.1793 4.93203 94.1793 4.89128 94.22Z"
          fill="#163376"/>
    <path d="M22.2727 90.4261L22.9247 95.0961C22.9247 95.0961 23.9843 98.2162 24.9624 97.013C25.9405 95.8099 26.9186 95.1777 26.9186 95.1777L27.2446 90.3037L22.2727 90.4261Z"
          fill="#FFB0B0"/>
    <path d="M24.8404 90.5898L25.0034 96.9729C25.0034 96.9729 21.9061 97.4419 23.0472 95.3618L22.3748 90.9365L24.8404 90.5898Z"
          fill="#DC7B7B"/>
    <path d="M27.2447 95.1379L31.157 98.3192C31.3608 98.4824 31.2182 98.7271 30.9329 98.7271L25.1459 98.7678C25.0032 98.7678 24.881 98.7067 24.8402 98.6251L24.3919 97.7278C24.2696 97.4627 24.0251 97.4423 24.0455 97.7074L23.8214 98.5843C23.8417 98.7067 22.4561 98.6863 22.4357 98.5639C22.3746 97.789 22.5172 95.2806 22.6599 94.5669C22.6803 94.4649 22.7821 94.4037 22.9248 94.3833C23.047 94.3629 23.1693 94.3833 23.2508 94.4649C23.638 94.832 24.881 95.974 25.5534 95.7497C26.0017 95.5865 26.5722 95.3214 26.7556 95.1583C26.8779 95.0563 27.102 95.0563 27.2447 95.1379Z"
          fill="#163376"/>
    <path d="M16.9539 36.4666C15.2423 36.487 12.9193 41.3813 12.0227 45.1744C10.9835 49.5385 0.795063 84.268 0.326395 92.2213C1.58976 92.568 8.55865 92.6904 9.37373 92.6496C11.391 86.3277 19.1139 61.4481 21.3757 52.4548C21.4776 52.0061 22.0889 52.1081 22.1093 52.5771C22.4353 67.6272 19.5418 89.8761 20.1938 93.4857C20.8663 93.8528 29.1597 93.4653 29.9136 93.3633C30.7694 83.5543 34.6003 42.4825 26.1643 36.4258C21.9259 36.3238 20.0104 36.4258 16.9539 36.4666Z"
          fill="#163376"/>
    <path d="M24.5146 36.4062C24.5146 36.4062 27.2858 39.0574 28.5696 45.1753C29.8329 51.2932 27.6526 90.8762 27.6526 90.8762"
          stroke="#008ECC" stroke-width="0.218975" stroke-miterlimit="10"/>
    <path d="M16.9731 36.4062C16.9731 36.4062 12.3476 49.6414 3.52442 89.2856" stroke="#008ECC" stroke-width="0.218975"
          stroke-miterlimit="10"/>
    <path d="M29.8525 90.2432H29.3431" stroke="#008ECC" stroke-width="0.218975" stroke-miterlimit="10"/>
    <path d="M28.3843 90.2219L21.1912 90.0791" stroke="#008ECC" stroke-width="0.218975" stroke-miterlimit="10"
          stroke-dasharray="2.07 2.07"/>
    <path d="M20.7026 90.0596H20.1932" stroke="#008ECC" stroke-width="0.218975" stroke-miterlimit="10"/>
    <path d="M10.1064 89.7952L0.48857 88.7959" stroke="#008ECC" stroke-width="0.218975" stroke-miterlimit="10"
          stroke-dasharray="2.19 2.19"/>
    <g style="mix-blend-mode:multiply" opacity="0.4">
        <path d="M26.3071 36.3037L12.2471 44.2978C12.2471 44.2978 12.7973 40.9126 16.5059 36.3037H26.3071Z"
              fill="#16649C"/>
    </g>
    <path d="M16.0774 42.0148C16.0774 42.0964 16.1385 42.1576 16.22 42.1576C16.2812 42.1576 16.3423 42.0964 16.3423 42.0148C16.3423 41.9332 16.2812 41.8721 16.22 41.8721C16.1385 41.8721 16.0774 41.9332 16.0774 42.0148Z"
          fill="#ECF3F8"/>
    <path d="M23.6378 28.5536C23.0673 28.037 22.4424 27.466 21.7632 26.8406L23.862 22.9455C23.4748 22.1706 23.1692 21.4976 23.0062 21.0694C22.9043 20.7839 22.9654 20.4576 23.0062 20.4576C23.8824 20.5391 29.0581 26.6571 29.9343 27.4932C30.1992 27.7583 30.6475 27.5136 30.8105 27.1873L35.7417 17.2966C35.864 17.0315 37.2496 15.2981 38.2684 12.2188C41.0193 12.3411 39.1446 15.6856 38.9205 16.8072C38.9205 16.8072 35.436 31.4087 31.8497 33.4888C31.8497 33.4888 27.1223 34.019 24.1269 28.9819C23.8416 29.2062 23.6378 29.3694 23.6378 29.3694C22.7616 28.8799 23.0062 28.6556 23.6378 28.5536Z"
          fill="#FFB0B0"/>
    <path d="M35.7987 17.1626C35.7987 17.1626 36.1451 13.3287 36.7156 13.6346C36.7971 13.6957 37.0213 15.0621 37.1436 15.8778C37.1436 15.8778 36.1451 16.9382 35.7987 17.1626Z"
          fill="#F2A398"/>
    <path d="M13.9585 21.3141C13.9585 21.3141 16.7502 20.2332 18.1154 19.6826C18.6248 20.4372 21.0497 22.1706 22.4761 21.7423C23.3523 21.4568 23.0874 19.9885 23.0874 19.9885C23.0059 20.2332 26.5922 24.5566 27.0608 26.8202C27.4888 28.9615 26.6329 35.9971 26.6329 36.8332L15.9147 36.5477C15.9147 36.5477 13.0212 24.2099 13.9585 21.3141Z"
          fill="#008ECC"/>
    <g style="mix-blend-mode:multiply" opacity="0.4">
        <path d="M15.0787 23.0479L25.8784 37.0783L15.4455 37.5881L15.0787 23.0479Z" fill="black"/>
    </g>
    <path d="M15.5884 39.2602C14.1213 39.3621 12.8375 38.3425 12.5523 36.915L11.4927 30.0629H11.4723C11.4723 30.0629 10.6368 22.9049 12.593 21.7833C12.919 21.5997 13.5303 21.355 14.0194 21.1715L13.999 21.1511C14.6103 20.9472 17.2389 20.2334 17.2389 20.2334C17.2593 21.1715 16.322 23.5371 15.9552 25.1685C16.1997 26.4941 16.3627 30.1445 16.7295 32.1022C16.974 33.4685 18.1763 34.4678 19.5619 34.4678C24.1263 34.4678 33.8868 33.5093 33.9887 33.5093C34.3147 33.5093 35.2725 33.4685 35.5374 33.6725C35.7819 33.856 35.3743 33.9376 34.3351 34.0191C32.6642 34.1415 36.8211 34.1007 36.8822 34.5494C36.923 34.8349 35.1706 34.7737 35.1502 34.8349C35.1706 34.998 36.9434 34.7329 36.9434 34.998C36.923 35.3447 35.5577 35.3855 35.3743 35.4263C35.4151 35.4671 36.76 35.2427 36.7396 35.4263C36.7396 35.6098 35.3132 35.9361 35.2928 36.0381C35.2521 36.14 36.6988 35.9157 36.5358 36.2012C36.4951 36.2624 33.3163 36.8538 33.3163 36.8538C32.7865 36.9354 31.5435 37.2413 30.7284 37.4248C25.838 38.5056 19.1136 39.0155 15.5884 39.2602Z"
          fill="#FFB0B0"/>
    <path d="M17.6068 19.9287C17.6068 19.9287 12.6552 21.1115 11.7179 22.2943C10.8009 23.4771 10.6175 27.7597 10.6175 27.7597L17.8105 29.5135L17.6068 19.9287Z"
          fill="#008ECC"/>
    <path d="M26.6335 25.781L28.1821 24.7205C28.1821 24.7205 24.2086 19.8058 23.2102 20.438L26.6335 25.781Z"
          fill="#008ECC"/>
    <g opacity="0.6">
        <path d="M24.6349 23.9654C23.9217 23.9654 23.9217 22.8438 24.6349 22.8438C25.3685 22.8438 25.3685 23.9654 24.6349 23.9654Z"
              fill="#F1FAF9"/>
        <path d="M22.149 28.941C21.4359 28.941 21.4359 27.8193 22.149 27.8193C22.8826 27.8193 22.8826 28.941 22.149 28.941Z"
              fill="#F1FAF9"/>
        <path d="M26.0011 32.6724C25.2879 32.6724 25.2879 31.5508 26.0011 31.5508C26.7347 31.5508 26.7347 32.6724 26.0011 32.6724Z"
              fill="#F1FAF9"/>
        <path d="M18.4407 24.3521C17.7071 24.3521 17.7071 23.2305 18.4407 23.2305C19.1539 23.2305 19.1539 24.3521 18.4407 24.3521Z"
              fill="#F1FAF9"/>
        <path d="M19.5411 33.0396C18.8279 33.0396 18.8279 31.918 19.5411 31.918C20.2747 31.918 20.2747 33.0396 19.5411 33.0396Z"
              fill="#F1FAF9"/>
        <path d="M13.2254 25.2095C12.4918 25.2095 12.4918 24.0879 13.2254 24.0879C13.9386 24.0879 13.9386 25.2095 13.2254 25.2095Z"
              fill="#F1FAF9"/>
    </g>
    <path d="M25.492 1.10212C25.4035 0.559741 24.8852 0.181339 24.3417 0.269633C23.7855 0.357927 23.4189 0.862463 23.4948 1.41745C23.5833 1.97244 24.1015 2.33823 24.6577 2.24994C25.2012 2.17426 25.5804 1.65711 25.492 1.10212Z"
          fill="#008ECC"/>
    <path d="M70.6041 4.19055C69.4412 3.66078 68.0634 4.17793 67.5325 5.33836C67.0142 6.51141 67.5325 7.87366 68.6954 8.40342C69.8583 8.93319 71.2361 8.41604 71.767 7.2556C72.2979 6.08256 71.7796 4.72031 70.6041 4.19055Z"
          stroke="#008ECC" stroke-width="1.05108" stroke-miterlimit="10"/>
    <path d="M103.938 11.3831C103.938 15.0032 100.993 17.9547 97.3523 17.9547C93.7245 17.9547 90.7793 15.0032 90.7793 11.3831C90.7793 7.75045 93.7245 4.81152 97.3523 4.81152C100.993 4.81152 103.938 7.75045 103.938 11.3831Z"
          fill="black"/>
    <path d="M96.3016 13.6644C97.3887 13.6896 98.4757 13.7023 99.4743 13.6266C99.7903 13.614 100.056 13.1094 99.6766 12.9581C99.8409 12.8698 100.005 12.7941 100.068 12.6049C100.144 12.4409 100.056 12.2139 99.8788 12.1634C100.258 12.2517 100.41 11.6589 100.106 11.4697C100.271 11.3435 100.397 11.167 100.422 10.9651C100.46 10.7633 100.384 10.5363 100.195 10.448C100.081 10.3849 99.942 10.3723 99.8156 10.3723C99.3606 10.3723 98.9097 10.3681 98.4631 10.3597C98.5769 9.66596 98.6148 8.89655 98.2608 8.27849C98.1597 8.1019 97.869 7.87486 97.6288 8.01361C97.4139 8.15236 97.4771 8.4803 97.4898 8.69473C97.5403 9.56506 97.0347 10.448 96.2637 10.8516C96.2637 10.8516 96.3142 12.7184 96.3016 13.6644Z"
          fill="white"/>
    <path d="M95.9114 13.6653H94.2808V10.8525H95.9114V13.6653Z" fill="white"/>
    <path d="M49.0169 100.067H80.8073C84.8649 100.067 88.164 96.7871 88.164 92.7382V26.2151C88.164 22.1662 84.8649 18.8867 80.8073 18.8867H49.0169C44.9593 18.8867 41.6729 22.1662 41.6729 26.2151V92.7382C41.6729 96.7871 44.9593 100.067 49.0169 100.067Z"
          fill="#06477D"/>
    <path d="M47.118 100.067H78.9084C82.966 100.067 86.2524 96.7871 86.2524 92.7382V26.2151C86.2524 22.1662 82.966 18.8867 78.9084 18.8867H47.118C43.0604 18.8867 39.7739 22.1662 39.7739 26.2151V92.7382C39.7739 96.7871 43.0604 100.067 47.118 100.067Z"
          fill="#008ECC"/>
    <path d="M47.0815 97.8465H78.9604C81.754 97.8465 84.0166 95.5887 84.0166 92.8011V26.6186C84.0166 23.831 81.754 21.5732 78.9604 21.5732H47.0815C44.288 21.5732 42.0254 23.831 42.0254 26.6186V92.8011C42.0254 95.5887 44.288 97.8465 47.0815 97.8465Z"
          fill="#F2F2ED"/>
    <path d="M55.2201 24.0587H70.4644C71.2228 24.0587 71.8295 23.4406 71.8295 22.6964V20.4639H53.855V22.6964C53.855 23.4406 54.4744 24.0587 55.2201 24.0587Z"
          fill="#008ECC"/>
    <path d="M59.9985 21.7637H65.7625" stroke="#312220" stroke-width="0.832106" stroke-linecap="round"
          stroke-linejoin="round"/>
    <path d="M79.6297 63.1747C79.6297 64.1422 78.8454 64.9265 77.8779 64.9265H47.3285C46.361 64.9265 45.5767 64.1422 45.5767 63.1747V58.6688C45.5767 57.7013 46.361 56.917 47.3285 56.917H77.8779C78.8454 56.917 79.6297 57.7013 79.6297 58.6688V63.1747Z"
          fill="#008ECC"/>
    <path d="M53.7297 58.8076L54.248 60.1825L55.7016 60.2455L54.564 61.1537L54.9558 62.5538L53.7297 61.7592L52.5162 62.5538L52.8954 61.1537L51.7578 60.2455L53.2115 60.1825L53.7297 58.8076Z"
          fill="#023259"/>
    <path d="M59.6447 58.8076L60.163 60.1825L61.6166 60.2455L60.479 61.1537L60.8709 62.5538L59.6447 61.7592L58.4313 62.5538L58.8105 61.1537L57.6729 60.2455L59.1391 60.1825L59.6447 58.8076Z"
          fill="#023259"/>
    <path d="M65.5617 58.8076L66.08 60.1825L67.5336 60.2455L66.396 61.1537L66.7878 62.5538L65.5617 61.7592L64.3483 62.5538L64.7401 61.1537L63.5898 60.2455L65.0561 60.1825L65.5617 58.8076Z"
          fill="#023259"/>
    <path d="M71.4768 58.8076L71.995 60.1825L73.4613 60.2455L72.311 61.1537L72.7029 62.5538L71.4768 61.7592L70.2633 62.5538L70.6552 61.1537L69.5049 60.2455L70.9712 60.1825L71.4768 58.8076Z"
          fill="#023259"/>
    <path d="M79.6298 50.7984C79.6298 51.5241 79.0416 52.1123 78.3159 52.1123H47.1307C46.4051 52.1123 45.8169 51.5241 45.8169 50.7984V31.7689C45.8169 31.0433 46.4051 30.4551 47.1307 30.4551H78.3159C79.0416 30.4551 79.6298 31.0433 79.6298 31.7689V50.7984Z"
          fill="#008ECC"/>
    <path fill-rule="evenodd" clip-rule="evenodd"
          d="M68.3417 38.2366L67.5959 42.6765C67.5327 43.1053 67.1535 43.4207 66.7111 43.4207H58.3558L58.558 44.7577H67.0903C67.3304 44.7577 67.5327 44.9595 67.5327 45.1992C67.5327 45.4388 67.3304 45.6406 67.0903 45.6406H58.5707C58.1283 45.6532 57.7491 45.3253 57.6859 44.8838L56.4597 36.7482H55.0567C54.8165 36.7482 54.6143 36.559 54.6143 36.3067C54.6143 36.067 54.8165 35.8652 55.0567 35.8652H56.4471C56.8895 35.8652 57.2687 36.1806 57.3446 36.622L57.4204 37.2023H67.4568C67.7096 37.2023 67.9625 37.3158 68.1394 37.5176C68.3037 37.7068 68.3796 37.9717 68.3417 38.2366ZM67.4568 38.0852H57.5595L58.242 42.5377H66.7111L67.4568 38.0852Z"
          fill="#F2F2ED"/>
    <path d="M59.52 46.5352C60.013 46.5352 60.4048 46.9262 60.4048 47.4181C60.4048 47.91 60.013 48.3136 59.52 48.3136C59.027 48.3136 58.6226 47.91 58.6226 47.4181C58.6226 46.9262 59.027 46.5352 59.52 46.5352Z"
          fill="#F2F2ED"/>
    <path d="M65.3086 46.5352C65.8016 46.5352 66.1934 46.9262 66.1934 47.4181C66.1934 47.91 65.8016 48.3136 65.3086 48.3136C64.8156 48.3136 64.4111 47.91 64.4111 47.4181C64.4111 46.9262 64.8156 46.5352 65.3086 46.5352Z"
          fill="#F2F2ED"/>
    <path d="M70.0355 37.19C70.0355 38.464 68.999 39.5109 67.7097 39.5109C66.433 39.5109 65.3965 38.464 65.3965 37.19C65.3965 35.9161 66.433 34.8691 67.7097 34.8691C68.999 34.8691 70.0355 35.9161 70.0355 37.19Z"
          fill="#023259"/>
    <path d="M66.6729 37.3023L67.545 37.933L68.5815 36.6338" stroke="white" stroke-width="0.43795"
          stroke-linecap="round" stroke-linejoin="round"/>
    <path d="M63.0205 86.4703C63.0205 87.4378 62.2362 88.2221 61.2687 88.2221H48.264C47.2965 88.2221 46.5122 87.4378 46.5122 86.4703V72.4413C46.5122 71.4738 47.2965 70.6895 48.264 70.6895H61.2687C62.2362 70.6895 63.0205 71.4738 63.0205 72.4413V86.4703Z"
          stroke="#023259" stroke-width="0.919696" stroke-miterlimit="10"/>
    <path d="M58.8238 77.9173H50.1904C49.3183 77.9173 48.623 77.2109 48.623 76.3532C48.623 75.4955 49.3183 74.8018 50.1904 74.8018H58.8238C59.6833 74.8018 60.3786 75.4955 60.3786 76.3532C60.3786 77.2109 59.6833 77.9173 58.8238 77.9173Z"
          fill="#008ECC"/>
    <path d="M48.623 81.0596H60.3786" stroke="white" stroke-width="0.919696" stroke-miterlimit="10"/>
    <path d="M48.623 83.0889H52.984" stroke="white" stroke-width="0.919696" stroke-miterlimit="10"/>
    <path d="M48.623 85.0195H57.3449" stroke="white" stroke-width="0.919696" stroke-miterlimit="10"/>
    <path d="M114.808 100.105H71.376C69.9603 100.105 68.8101 98.97 68.8101 97.5447V73.1504C68.8101 71.7377 69.9603 70.5898 71.376 70.5898H114.808C116.224 70.5898 117.374 71.7377 117.374 73.1504V97.5447C117.374 98.97 116.224 100.105 114.808 100.105Z"
          fill="#008ECC"/>
    <path d="M110.927 76.9088C110.927 78.2585 109.828 79.3684 108.475 79.3684C107.11 79.3684 106.01 78.2585 106.01 76.9088C106.01 75.5466 107.11 74.4492 108.475 74.4492C109.828 74.4492 110.927 75.5466 110.927 76.9088Z"
          fill="#06477D"/>
    <path d="M113.391 76.9088C113.391 78.2585 112.292 79.3684 110.926 79.3684C109.574 79.3684 108.474 78.2585 108.474 76.9088C108.474 75.5466 109.574 74.4492 110.926 74.4492C112.292 74.4492 113.391 75.5466 113.391 76.9088Z"
          fill="#74C2EF"/>
    <path d="M99.9546 76.9076C99.9546 77.2907 99.644 77.6013 99.2609 77.6013H73.7118C73.3287 77.6013 73.0181 77.2907 73.0181 76.9076C73.0181 76.5245 73.3287 76.2139 73.7118 76.2139H99.2609C99.644 76.2139 99.9546 76.5245 99.9546 76.9076Z"
          fill="#F2F2ED"/>
    <path d="M82.0053 90.7094C82.0053 91.0925 81.6948 91.4031 81.3116 91.4031H73.7118C73.3287 91.4031 73.0181 91.0925 73.0181 90.7094C73.0181 90.3262 73.3287 90.0156 73.7118 90.0156H81.3116C81.6948 90.0156 82.0053 90.3262 82.0053 90.7094Z"
          fill="#06477D"/>
    <path d="M92.4595 90.7094C92.4595 91.0925 92.1489 91.4031 91.7657 91.4031H84.1659C83.7828 91.4031 83.4722 91.0925 83.4722 90.7094C83.4722 90.3262 83.7828 90.0156 84.1659 90.0156H91.7657C92.1489 90.0156 92.4595 90.3262 92.4595 90.7094Z"
          fill="#06477D"/>
    <path d="M113.392 90.7094C113.392 91.0925 113.082 91.4031 112.698 91.4031H94.6957C94.3126 91.4031 94.002 91.0925 94.002 90.7094C94.002 90.3262 94.3125 90.0156 94.6957 90.0156H112.698C113.082 90.0156 113.392 90.3262 113.392 90.7094Z"
          fill="#06477D"/>
    <path d="M88.9955 94.6049C88.9955 94.988 88.6849 95.2986 88.3017 95.2986H73.7118C73.3287 95.2986 73.0181 94.988 73.0181 94.6049C73.0181 94.2217 73.3287 93.9111 73.7118 93.9111H88.3017C88.6849 93.9111 88.9955 94.2217 88.9955 94.6049Z"
          fill="#06477D"/>
    <path d="M95.2906 94.6049C95.2906 94.988 94.98 95.2986 94.5968 95.2986H91.0546C90.6714 95.2986 90.3608 94.988 90.3608 94.6049C90.3608 94.2217 90.6714 93.9111 91.0546 93.9111H94.5968C94.98 93.9111 95.2906 94.2217 95.2906 94.6049Z"
          fill="#06477D"/>
    <path d="M80.4632 86.4581H73.8903C73.4099 86.4581 73.0181 86.0671 73.0181 85.5878V81.9299C73.0181 81.4506 73.4099 81.0596 73.8903 81.0596H80.4632C80.9562 81.0596 81.3481 81.4506 81.3481 81.9299V85.5878C81.3481 86.0671 80.9562 86.4581 80.4632 86.4581Z"
          fill="#74C2EF"/>
    <path d="M77.2021 85.0188H72.2471V82.4961H77.2021C77.8973 82.4961 78.4535 83.0637 78.4535 83.7574C78.4535 84.4512 77.8973 85.0188 77.2021 85.0188Z"
          stroke="#008ECC" stroke-width="1.18247" stroke-miterlimit="10"/>
    <path d="M78.4546 83.7578H81.9939" stroke="#008ECC" stroke-width="1.18247" stroke-miterlimit="10"/>
    <path d="M37.3024 18.8706L40.1452 19.0662C40.4438 19.1311 40.7191 18.8888 40.7038 18.5913L40.6396 11.3816C40.6217 11.2005 40.5017 11.0542 40.3177 11.0094L37.3247 10.7902C37.0794 10.7305 36.845 10.923 36.8558 11.1752L36.9342 18.4222C36.9388 18.6469 37.0909 18.8321 37.3024 18.8706Z"
          fill="#06477D"/>
    <path d="M36.8674 18.8371L39.7022 19.023C40.0008 19.0879 40.2743 18.8633 40.2688 18.5578L40.1868 11.3464C40.1867 11.167 40.0587 11.011 39.8827 10.9759L36.8817 10.747C36.6347 10.705 36.4002 10.8975 36.411 11.1497L36.4894 18.3967C36.4958 18.6036 36.6478 18.7888 36.8674 18.8371Z"
          fill="#B5B5B5"/>
    <path d="M111.466 66.9448C111.377 66.3898 110.859 66.0114 110.303 66.0997C109.759 66.188 109.38 66.7051 109.468 67.2601C109.557 67.8025 110.075 68.1809 110.619 68.0926C111.175 68.0043 111.554 67.4872 111.466 66.9448Z"
          fill="#023259"/>
    <path d="M107.08 47.6719C107.08 53.3101 102.492 57.8888 96.8417 57.8888C91.1788 57.8888 86.603 53.3101 86.603 47.6719C86.603 42.0211 91.1788 37.4551 96.8417 37.4551C102.492 37.4551 107.08 42.0211 107.08 47.6719Z"
          fill="#008ECC"/>
    <path d="M97.9656 47.3426L96.2086 46.6741C95.9052 46.5605 95.7029 46.2704 95.7029 45.9425C95.7029 45.7407 95.7788 45.5262 95.9178 45.3875C96.0695 45.2361 96.2591 45.1731 96.4866 45.1731H97.1692C97.5358 45.1731 97.8265 45.3875 97.9276 45.7407C98.0288 46.1065 98.4206 46.3209 98.7998 46.22C99.179 46.1065 99.3939 45.7154 99.2802 45.337C99.0526 44.5172 98.3574 43.9243 97.5358 43.7856V43.2054C97.5358 42.8144 97.2198 42.499 96.8279 42.499C96.4361 42.499 96.1201 42.8144 96.1201 43.2054V43.7982C95.6777 43.8739 95.2732 44.0883 94.9445 44.4036C94.5274 44.8073 94.3125 45.3749 94.3125 45.9425C94.3125 46.8254 94.8687 47.6453 95.7156 47.9732L97.4599 48.6418C97.7759 48.7679 97.9782 49.058 97.9782 49.3733C97.9782 49.8022 97.6116 50.168 97.1819 50.168H96.4993C96.1453 50.168 95.8546 49.9409 95.7535 49.6004C95.6397 49.222 95.2479 49.0075 94.8687 49.1211C94.5021 49.222 94.2746 49.613 94.3883 49.9914C94.6159 50.8113 95.3237 51.4167 96.1201 51.5554V52.1357C96.1201 52.5267 96.4361 52.8294 96.8279 52.8294C97.2198 52.8294 97.5358 52.5267 97.5358 52.1357V51.5554C98.5597 51.3789 99.3686 50.4959 99.3686 49.3986C99.3686 48.4904 98.8125 47.6831 97.9656 47.3426Z"
          fill="white"/>
</svg>
