<svg width="173" height="152" viewBox="0 0 173 152" fill="none" xmlns="http://www.w3.org/2000/svg">
<g id="Frame 1410086082">
<g id="Rectangle 41605">
<rect y="0.50293" width="173" height="151" rx="8" fill="#F2F2F2" fill-opacity="0.6"/>
<rect x="0.241573" y="0.744503" width="172.517" height="150.517" rx="7.75843" stroke="#B9B9B9" stroke-opacity="0.16" stroke-width="0.483146"/>
</g>
<g id="Group 1171275028">
<path id="Vector" d="M54.4581 97.9114C54.4581 97.5443 54.7434 97.2588 55.1101 97.2588C55.4566 97.2588 55.7622 97.5443 55.7622 97.9114C55.7622 98.258 55.4566 98.5639 55.1101 98.5639C54.7434 98.5639 54.4581 98.258 54.4581 97.9114Z" stroke="#F0F9F8" stroke-width="0.832106" stroke-miterlimit="10"/>
<path id="Vector_2" d="M56.4758 43.2559C56.4758 42.9704 56.6999 42.7461 56.9852 42.7461C57.2705 42.7461 57.4946 42.9704 57.4946 43.2559C57.4946 43.5414 57.2705 43.7657 56.9852 43.7657C56.6999 43.7657 56.4758 43.5414 56.4758 43.2559Z" fill="#ABE4FF"/>
<path id="Vector_3" d="M63.1592 66.1168C63.1592 66.5451 63.5056 66.8918 63.9132 66.8918C64.3411 66.8918 64.6875 66.5451 64.6875 66.1168C64.6875 65.709 64.3411 65.3623 63.9132 65.3623C63.5056 65.3623 63.1592 65.709 63.1592 66.1168Z" fill="#008ECC"/>
<path id="Vector_4" d="M51.0754 37.2812C51.0754 37.2812 52.2572 40.1159 51.0957 42.1348C49.6082 44.7451 52.8482 42.7466 53.3372 44.6228C53.5817 45.5609 53.3983 47.6817 53.3983 47.6817L44.4733 50.6591L51.0754 37.2812Z" fill="#232A5F"/>
<path id="Vector_5" d="M46.2672 52.9017L52.1765 37.0563C52.5432 36.5464 52.3191 34.6295 52.0134 34.0585C51.1984 32.529 49.8127 31.0607 48.1622 30.8975C42.7827 30.3877 41.0303 34.8742 40.9284 36.6076C40.8062 38.2187 40.3783 38.6061 39.6243 38.6265C39.1964 38.6469 37.4236 38.7489 37.444 41.6447C37.4644 44.4386 37.7496 42.9499 35.9565 44.4386C34.1633 45.9273 34.5912 47.987 34.5912 47.987L46.2672 52.9017Z" fill="#232A5F"/>
<path id="Vector_6" d="M49.9542 41.5439C49.4652 40.9118 49.5875 39.9941 50.2191 39.5046C50.8508 39.0152 51.7678 39.1376 52.2568 39.7697C52.7459 40.4019 52.6236 41.2992 51.9919 41.7887C51.3603 42.2985 50.4433 42.1761 49.9542 41.5439Z" fill="#023259"/>
<path id="Vector_7" d="M45.7979 36.7712C45.7775 36.8527 45.5126 36.5061 45.4515 36.4653C45.1662 36.2817 44.4326 35.9351 43.9028 36.6896C43.373 37.4645 44.3511 38.2599 44.779 38.5658C44.9013 38.6473 44.9828 38.7901 45.0236 38.9328C45.1051 39.4019 44.4326 46.9473 44.4326 46.9473C44.4326 46.9473 52.0943 53.7586 49.6695 47.7427C49.6695 47.7427 48.6099 42.7668 49.0174 41.7063C49.0174 41.6859 51.4015 42.3793 52.1147 38.6269C52.7668 35.2213 51.6053 34.4668 50.1789 33.9161C49.7102 33.753 48.2227 38.6066 45.7979 36.7712Z" fill="#FFB0B0"/>
<path id="Vector_8" d="M43.2521 40.6045C42.7631 39.9723 42.8853 39.075 43.517 38.5652C44.1487 38.0758 45.0453 38.1981 45.5547 38.8303C46.0437 39.4625 45.9215 40.3802 45.2898 40.8696C44.6581 41.359 43.7411 41.2367 43.2521 40.6045Z" fill="#023259"/>
<path id="Vector_9" d="M44.229 37.2007C44.229 37.2007 44.7384 36.0587 45.3701 37.5881L44.229 37.2007Z" fill="#D66651"/>
<path id="Vector_10" d="M51.8495 34.2222C51.8495 34.2222 52.4405 38.1173 50.4231 35.2419C49.9341 34.5485 47.387 31.306 51.8495 34.2222Z" fill="#232A5F"/>
<path id="Vector_11" d="M48.7125 37.8117C49.1404 38.0564 49.2831 38.6071 49.0182 39.0353C48.7737 39.4432 48.2439 39.5859 47.8159 39.3412C47.388 39.0965 47.2454 38.5459 47.4899 38.138C47.7344 37.7098 48.2846 37.567 48.7125 37.8117Z" fill="#FF9191"/>
<path id="Vector_12" d="M51.4414 39.8308L49.852 39.4434C49.852 39.4434 49.7909 40.4018 50.3614 40.4426C50.9524 40.463 51.4414 39.8308 51.4414 39.8308Z" fill="white"/>
<path id="Vector_13" d="M51.0153 38.4229L50.6892 39.3609L51.1987 39.4425C51.3006 39.4425 51.3617 39.3609 51.3413 39.259L51.0153 38.4229Z" fill="#D4635F"/>
<path id="Vector_14" d="M49.8539 36.7719C49.6501 36.8535 50.0373 36.364 50.2818 36.364C50.5467 36.3436 50.7505 36.5068 50.7505 36.7311C50.7505 36.7311 50.3226 36.568 49.8539 36.7719Z" fill="#040F33"/>
<path id="Vector_15" d="M52.2164 36.9957C51.9923 36.8937 51.7274 36.9549 51.6255 37.1588C51.6255 37.1588 51.9312 37.1588 52.2368 37.3628" fill="#040F33"/>
<path id="Vector_16" d="M50.1587 38.0355C50.1383 38.1986 50.1791 38.3618 50.2606 38.3822C50.3421 38.3822 50.444 38.2598 50.4644 38.0967C50.5051 37.9131 50.4644 37.7704 50.3625 37.75C50.281 37.7296 50.1995 37.8724 50.1587 38.0355Z" fill="#040F33"/>
<path id="Vector_17" d="M51.4214 38.3005C51.3807 38.4637 51.4214 38.6064 51.503 38.6268C51.5845 38.6472 51.6863 38.5249 51.7067 38.3617C51.7271 38.1986 51.6863 38.0558 51.6048 38.0354C51.5233 38.015 51.4418 38.1374 51.4214 38.3005Z" fill="#040F33"/>
<path id="Vector_18" d="M49.1001 41.7076C49.1001 41.7076 48.7537 41.7687 48.2646 41.6464C47.8775 41.5444 47.2662 41.2793 47.2662 41.2793C47.2662 41.2793 47.6737 42.5437 48.285 42.5437C48.8556 42.5437 48.8148 42.2786 49.1001 41.7076Z" fill="#D66651"/>
<path id="Vector_19" d="M35.2427 116.06L33.7959 120.73C33.7959 120.73 32.6752 121.708 32.288 121.688C31.5545 121.627 31.1673 120.383 31.1673 120.383L31.045 116.06H35.2427Z" fill="#FFB0B0"/>
<path id="Vector_20" d="M33.1436 114.815L32.1247 122.544C32.1247 122.544 30.0463 123.095 31.1874 121.015L30.9429 115.06L33.1436 114.815Z" fill="#DC7B7B"/>
<path id="Vector_21" d="M31.1071 120.22L28.886 123.952C28.6619 124.319 28.7841 124.747 29.212 124.992C29.9049 125.42 30.4754 126.236 30.9237 126.256C31.7184 126.277 32.941 125.441 33.6542 125.135C34.1432 124.91 34.51 124.605 34.4489 124.217L33.8987 120.465C33.8987 120.424 33.8172 120.404 33.7765 120.444L32.9206 121.219C32.6354 121.464 31.8814 121.423 31.698 121.138C31.5554 120.913 31.2497 120.22 31.2497 120.22C31.209 120.179 31.1479 120.179 31.1071 120.22Z" fill="#163376"/>
<path id="Vector_22" d="M48.4885 116.426L49.1406 121.096C49.1406 121.096 50.2002 124.216 51.1782 123.013C52.1563 121.81 53.1344 121.178 53.1344 121.178L53.4604 116.304L48.4885 116.426Z" fill="#FFB0B0"/>
<path id="Vector_23" d="M51.0562 116.59L51.2192 122.973C51.2192 122.973 48.122 123.442 49.2631 121.362L48.5906 116.937L51.0562 116.59Z" fill="#DC7B7B"/>
<path id="Vector_24" d="M53.4605 121.138L57.3728 124.319C57.5766 124.482 57.434 124.727 57.1487 124.727L51.3617 124.768C51.219 124.768 51.0968 124.707 51.056 124.625L50.6077 123.728C50.4855 123.463 50.2409 123.442 50.2613 123.707L50.0372 124.584C50.0576 124.707 48.6719 124.686 48.6515 124.564C48.5904 123.789 48.7331 121.281 48.8757 120.567C48.8961 120.465 48.998 120.404 49.1406 120.383C49.2629 120.363 49.3851 120.383 49.4666 120.465C49.8538 120.832 51.0968 121.974 51.7692 121.75C52.2175 121.587 52.7881 121.321 52.9714 121.158C53.0937 121.056 53.3179 121.056 53.4605 121.138Z" fill="#163376"/>
<path id="Vector_25" d="M43.1697 62.4666C41.4581 62.487 39.1351 67.3813 38.2385 71.1744C37.1993 75.5385 27.0109 110.268 26.5422 118.221C27.8056 118.568 34.7745 118.69 35.5895 118.65C37.6069 112.328 45.3297 87.4481 47.5915 78.4548C47.6934 78.0061 48.3047 78.1081 48.3251 78.5771C48.6511 93.6272 45.7576 115.876 46.4097 119.486C47.0821 119.853 55.3755 119.465 56.1294 119.363C56.9852 109.554 60.8161 68.4825 52.3801 62.4258C48.1417 62.3238 46.2263 62.4258 43.1697 62.4666Z" fill="#163376"/>
<path id="Vector_26" d="M50.7304 62.4062C50.7304 62.4062 53.5016 65.0574 54.7854 71.1753C56.0487 77.2932 53.8684 116.876 53.8684 116.876" stroke="#008ECC" stroke-width="0.218975" stroke-miterlimit="10"/>
<path id="Vector_27" d="M43.189 62.4062C43.189 62.4062 38.5634 75.6414 29.7402 115.286" stroke="#008ECC" stroke-width="0.218975" stroke-miterlimit="10"/>
<path id="Vector_28" d="M56.0684 116.243H55.5589" stroke="#008ECC" stroke-width="0.218975" stroke-miterlimit="10"/>
<path id="Vector_29" d="M54.6001 116.222L47.4071 116.079" stroke="#008ECC" stroke-width="0.218975" stroke-miterlimit="10" stroke-dasharray="2.07 2.07"/>
<path id="Vector_30" d="M46.9185 116.06H46.409" stroke="#008ECC" stroke-width="0.218975" stroke-miterlimit="10"/>
<path id="Vector_31" d="M36.3223 115.795L26.7044 114.796" stroke="#008ECC" stroke-width="0.218975" stroke-miterlimit="10" stroke-dasharray="2.19 2.19"/>
<g id="Vector_32" style="mix-blend-mode:multiply" opacity="0.4">
<path d="M52.5229 62.3037L38.4629 70.2978C38.4629 70.2978 39.0131 66.9126 42.7217 62.3037H52.5229Z" fill="#16649C"/>
</g>
<path id="Vector_33" d="M42.2932 68.0148C42.2932 68.0964 42.3543 68.1576 42.4358 68.1576C42.497 68.1576 42.5581 68.0964 42.5581 68.0148C42.5581 67.9332 42.497 67.8721 42.4358 67.8721C42.3543 67.8721 42.2932 67.9332 42.2932 68.0148Z" fill="#ECF3F8"/>
<path id="Vector_34" d="M49.8537 54.5536C49.2831 54.037 48.6582 53.466 47.979 52.8406L50.0778 48.9455C49.6906 48.1706 49.385 47.4976 49.222 47.0694C49.1201 46.7839 49.1812 46.4576 49.222 46.4576C50.0982 46.5391 55.2739 52.6571 56.1501 53.4932C56.415 53.7583 56.8633 53.5136 57.0263 53.1873L61.9575 43.2966C62.0798 43.0315 63.4654 41.2981 64.4842 38.2188C67.2351 38.3411 65.3605 41.6856 65.1363 42.8072C65.1363 42.8072 61.6519 57.4087 58.0655 59.4888C58.0655 59.4888 53.3381 60.019 50.3427 54.9819C50.0574 55.2062 49.8537 55.3694 49.8537 55.3694C48.9775 54.8799 49.222 54.6556 49.8537 54.5536Z" fill="#FFB0B0"/>
<path id="Vector_35" d="M62.0145 43.1626C62.0145 43.1626 62.3609 39.3287 62.9315 39.6346C63.013 39.6957 63.2371 41.0621 63.3594 41.8778C63.3594 41.8778 62.3609 42.9382 62.0145 43.1626Z" fill="#F2A398"/>
<path id="Vector_36" d="M40.1743 47.3141C40.1743 47.3141 42.966 46.2332 44.3312 45.6826C44.8406 46.4372 47.2655 48.1706 48.6919 47.7423C49.5681 47.4568 49.3032 45.9885 49.3032 45.9885C49.2217 46.2332 52.808 50.5566 53.2767 52.8202C53.7046 54.9615 52.8488 61.9971 52.8488 62.8332L42.1305 62.5477C42.1305 62.5477 39.237 50.2099 40.1743 47.3141Z" fill="#008ECC"/>
<g id="Vector_37" style="mix-blend-mode:multiply" opacity="0.4">
<path d="M41.2945 49.0479L52.0942 63.0783L41.6613 63.5881L41.2945 49.0479Z" fill="black"/>
</g>
<path id="Vector_38" d="M41.8042 65.2602C40.3371 65.3621 39.0534 64.3425 38.7681 62.915L37.7085 56.0629H37.6881C37.6881 56.0629 36.8527 48.9049 38.8088 47.7833C39.1349 47.5997 39.7462 47.355 40.2352 47.1715L40.2148 47.1511C40.8261 46.9472 43.4548 46.2334 43.4548 46.2334C43.4751 47.1715 42.5378 49.5371 42.171 51.1685C42.4155 52.4941 42.5785 56.1445 42.9453 58.1022C43.1899 59.4685 44.3921 60.4678 45.7777 60.4678C50.3421 60.4678 60.1027 59.5093 60.2045 59.5093C60.5306 59.5093 61.4883 59.4685 61.7532 59.6725C61.9977 59.856 61.5902 59.9376 60.5509 60.0191C58.88 60.1415 63.0369 60.1007 63.0981 60.5494C63.1388 60.8349 61.3864 60.7737 61.366 60.8349C61.3864 60.998 63.1592 60.7329 63.1592 60.998C63.1388 61.3447 61.7736 61.3855 61.5902 61.4263C61.6309 61.4671 62.9758 61.2427 62.9554 61.4263C62.9554 61.6098 61.529 61.9361 61.5087 62.0381C61.4679 62.14 62.9147 61.9157 62.7516 62.2012C62.7109 62.2624 59.5321 62.8538 59.5321 62.8538C59.0023 62.9354 57.7593 63.2413 56.9442 63.4248C52.0538 64.5056 45.3294 65.0155 41.8042 65.2602Z" fill="#FFB0B0"/>
<path id="Vector_39" d="M43.8226 45.9287C43.8226 45.9287 38.871 47.1115 37.9337 48.2943C37.0167 49.4771 36.8333 53.7597 36.8333 53.7597L44.0264 55.5135L43.8226 45.9287Z" fill="#008ECC"/>
<path id="Vector_40" d="M52.8493 51.781L54.3979 50.7205C54.3979 50.7205 50.4245 45.8058 49.426 46.438L52.8493 51.781Z" fill="#008ECC"/>
<g id="Group" opacity="0.6">
<path id="Vector_41" d="M50.8507 49.9654C50.1375 49.9654 50.1375 48.8438 50.8507 48.8438C51.5843 48.8438 51.5843 49.9654 50.8507 49.9654Z" fill="#F1FAF9"/>
<path id="Vector_42" d="M48.3649 54.941C47.6517 54.941 47.6517 53.8193 48.3649 53.8193C49.0984 53.8193 49.0984 54.941 48.3649 54.941Z" fill="#F1FAF9"/>
<path id="Vector_43" d="M52.2169 58.6724C51.5037 58.6724 51.5037 57.5508 52.2169 57.5508C52.9505 57.5508 52.9505 58.6724 52.2169 58.6724Z" fill="#F1FAF9"/>
<path id="Vector_44" d="M44.6565 50.3521C43.9229 50.3521 43.9229 49.2305 44.6565 49.2305C45.3697 49.2305 45.3697 50.3521 44.6565 50.3521Z" fill="#F1FAF9"/>
<path id="Vector_45" d="M45.757 59.0396C45.0438 59.0396 45.0438 57.918 45.757 57.918C46.4905 57.918 46.4905 59.0396 45.757 59.0396Z" fill="#F1FAF9"/>
<path id="Vector_46" d="M39.4412 51.2095C38.7076 51.2095 38.7076 50.0879 39.4412 50.0879C40.1544 50.0879 40.1544 51.2095 39.4412 51.2095Z" fill="#F1FAF9"/>
</g>
<path id="Vector_47" d="M51.7078 27.1021C51.6193 26.5597 51.101 26.1813 50.5575 26.2696C50.0013 26.3579 49.6348 26.8625 49.7106 27.4175C49.7991 27.9724 50.3173 28.3382 50.8735 28.2499C51.417 28.1743 51.7963 27.6571 51.7078 27.1021Z" fill="#008ECC"/>
<path id="Vector_48" d="M96.8199 30.1905C95.657 29.6608 94.2792 30.1779 93.7483 31.3384C93.2301 32.5114 93.7483 33.8737 94.9112 34.4034C96.0741 34.9332 97.4519 34.416 97.9828 33.2556C98.5137 32.0826 97.9955 30.7203 96.8199 30.1905Z" stroke="#008ECC" stroke-width="1.05108" stroke-miterlimit="10"/>
<path id="Vector_49" d="M130.154 37.3831C130.154 41.0032 127.209 43.9547 123.568 43.9547C119.94 43.9547 116.995 41.0032 116.995 37.3831C116.995 33.7504 119.94 30.8115 123.568 30.8115C127.209 30.8115 130.154 33.7504 130.154 37.3831Z" fill="black"/>
<path id="Vector_50" d="M122.517 39.6644C123.604 39.6896 124.692 39.7023 125.69 39.6266C126.006 39.614 126.272 39.1094 125.892 38.9581C126.057 38.8698 126.221 38.7941 126.284 38.6049C126.36 38.4409 126.272 38.2139 126.095 38.1634C126.474 38.2517 126.626 37.6589 126.322 37.4697C126.486 37.3435 126.613 37.167 126.638 36.9651C126.676 36.7633 126.6 36.5363 126.411 36.448C126.297 36.3849 126.158 36.3723 126.031 36.3723C125.576 36.3723 125.126 36.3681 124.679 36.3597C124.793 35.666 124.831 34.8965 124.477 34.2785C124.376 34.1019 124.085 33.8749 123.845 34.0136C123.63 34.1524 123.693 34.4803 123.706 34.6947C123.756 35.5651 123.251 36.448 122.479 36.8516C122.479 36.8516 122.53 38.7184 122.517 39.6644Z" fill="white"/>
<path id="Vector_51" d="M122.127 39.6653H120.497V36.8525H122.127V39.6653Z" fill="white"/>
<path id="Vector_52" d="M75.2327 126.067H107.023C111.081 126.067 114.38 122.787 114.38 118.738V52.2151C114.38 48.1662 111.081 44.8867 107.023 44.8867H75.2327C71.1752 44.8867 67.8887 48.1662 67.8887 52.2151V118.738C67.8887 122.787 71.1752 126.067 75.2327 126.067Z" fill="#06477D"/>
<path id="Vector_53" d="M73.3338 126.067H105.124C109.182 126.067 112.468 122.787 112.468 118.738V52.2151C112.468 48.1662 109.182 44.8867 105.124 44.8867H73.3338C69.2762 44.8867 65.9897 48.1662 65.9897 52.2151V118.738C65.9897 122.787 69.2762 126.067 73.3338 126.067Z" fill="#008ECC"/>
<path id="Vector_54" d="M73.2973 123.846H105.176C107.97 123.846 110.232 121.589 110.232 118.801V52.6186C110.232 49.831 107.97 47.5732 105.176 47.5732H73.2973C70.5038 47.5732 68.2412 49.831 68.2412 52.6186V118.801C68.2412 121.589 70.5038 123.846 73.2973 123.846Z" fill="#F2F2ED"/>
<path id="Vector_55" d="M81.436 50.0587H96.6802C97.4386 50.0587 98.0454 49.4406 98.0454 48.6964V46.4639H80.0708V48.6964C80.0708 49.4406 80.6902 50.0587 81.436 50.0587Z" fill="#008ECC"/>
<path id="Vector_56" d="M86.2144 47.7637H91.9784" stroke="#312220" stroke-width="0.832106" stroke-linecap="round" stroke-linejoin="round"/>
<path id="Vector_57" d="M105.846 89.1747C105.846 90.1422 105.061 90.9265 104.094 90.9265H73.5443C72.5768 90.9265 71.7925 90.1422 71.7925 89.1747V84.6688C71.7925 83.7013 72.5768 82.917 73.5443 82.917H104.094C105.061 82.917 105.846 83.7013 105.846 84.6688V89.1747Z" fill="#008ECC"/>
<path id="Vector_58" d="M79.9455 84.8076L80.4638 86.1825L81.9174 86.2455L80.7798 87.1537L81.1716 88.5538L79.9455 87.7592L78.7321 88.5538L79.1113 87.1537L77.9736 86.2455L79.4273 86.1825L79.9455 84.8076Z" fill="#023259"/>
<path id="Vector_59" d="M85.8606 84.8076L86.3788 86.1825L87.8325 86.2455L86.6948 87.1537L87.0867 88.5538L85.8606 87.7592L84.6471 88.5538L85.0263 87.1537L83.8887 86.2455L85.3549 86.1825L85.8606 84.8076Z" fill="#023259"/>
<path id="Vector_60" d="M91.7776 84.8076L92.2958 86.1825L93.7494 86.2455L92.6118 87.1537L93.0037 88.5538L91.7776 87.7592L90.5641 88.5538L90.9559 87.1537L89.8057 86.2455L91.2719 86.1825L91.7776 84.8076Z" fill="#023259"/>
<path id="Vector_61" d="M97.6926 84.8076L98.2109 86.1825L99.6771 86.2455L98.5269 87.1537L98.9187 88.5538L97.6926 87.7592L96.4791 88.5538L96.871 87.1537L95.7207 86.2455L97.187 86.1825L97.6926 84.8076Z" fill="#023259"/>
<path id="Vector_62" d="M105.846 76.7984C105.846 77.5241 105.257 78.1123 104.532 78.1123H73.3466C72.6209 78.1123 72.0327 77.5241 72.0327 76.7984V57.7689C72.0327 57.0433 72.6209 56.4551 73.3466 56.4551H104.532C105.257 56.4551 105.846 57.0433 105.846 57.7689V76.7984Z" fill="#008ECC"/>
<path id="Vector_63" fill-rule="evenodd" clip-rule="evenodd" d="M94.5575 64.2366L93.8117 68.6765C93.7485 69.1053 93.3693 69.4207 92.9269 69.4207H84.5716L84.7739 70.7577H93.3061C93.5463 70.7577 93.7485 70.9595 93.7485 71.1992C93.7485 71.4388 93.5463 71.6406 93.3061 71.6406H84.7865C84.3441 71.6532 83.9649 71.3253 83.9017 70.8838L82.6756 62.7482H81.2725C81.0323 62.7482 80.8301 62.559 80.8301 62.3067C80.8301 62.067 81.0323 61.8652 81.2725 61.8652H82.6629C83.1053 61.8652 83.4845 62.1806 83.5604 62.622L83.6362 63.2023H93.6727C93.9255 63.2023 94.1783 63.3158 94.3552 63.5176C94.5196 63.7068 94.5954 63.9717 94.5575 64.2366ZM93.6727 64.0852H83.7753L84.4579 68.5377H92.9269L93.6727 64.0852Z" fill="#F2F2ED"/>
<path id="Vector_64" d="M85.7358 72.5352C86.2288 72.5352 86.6207 72.9262 86.6207 73.4181C86.6207 73.91 86.2288 74.3136 85.7358 74.3136C85.2429 74.3136 84.8384 73.91 84.8384 73.4181C84.8384 72.9262 85.2429 72.5352 85.7358 72.5352Z" fill="#F2F2ED"/>
<path id="Vector_65" d="M91.5244 72.5352C92.0174 72.5352 92.4092 72.9262 92.4092 73.4181C92.4092 73.91 92.0174 74.3136 91.5244 74.3136C91.0314 74.3136 90.627 73.91 90.627 73.4181C90.627 72.9262 91.0314 72.5352 91.5244 72.5352Z" fill="#F2F2ED"/>
<path id="Vector_66" d="M96.2513 63.19C96.2513 64.464 95.2148 65.5109 93.9255 65.5109C92.6488 65.5109 91.6123 64.464 91.6123 63.19C91.6123 61.9161 92.6488 60.8691 93.9255 60.8691C95.2148 60.8691 96.2513 61.9161 96.2513 63.19Z" fill="#023259"/>
<path id="Vector_67" d="M92.8887 63.3023L93.7609 63.933L94.7974 62.6338" stroke="white" stroke-width="0.43795" stroke-linecap="round" stroke-linejoin="round"/>
<path id="Vector_68" d="M89.2363 112.47C89.2363 113.438 88.452 114.222 87.4845 114.222H74.4798C73.5123 114.222 72.728 113.438 72.728 112.47V98.4413C72.728 97.4738 73.5123 96.6895 74.4798 96.6895H87.4845C88.452 96.6895 89.2363 97.4738 89.2363 98.4413V112.47Z" stroke="#023259" stroke-width="0.919696" stroke-miterlimit="10"/>
<path id="Vector_69" d="M85.0396 103.917H76.4063C75.5341 103.917 74.8389 103.211 74.8389 102.353C74.8389 101.496 75.5341 100.802 76.4063 100.802H85.0396C85.8992 100.802 86.5944 101.496 86.5944 102.353C86.5944 103.211 85.8992 103.917 85.0396 103.917Z" fill="#008ECC"/>
<path id="Vector_70" d="M74.8389 107.06H86.5944" stroke="white" stroke-width="0.919696" stroke-miterlimit="10"/>
<path id="Vector_71" d="M74.8389 109.089H79.1998" stroke="white" stroke-width="0.919696" stroke-miterlimit="10"/>
<path id="Vector_72" d="M74.8389 111.02H83.5607" stroke="white" stroke-width="0.919696" stroke-miterlimit="10"/>
<path id="Vector_73" d="M141.024 126.105H97.5919C96.1761 126.105 95.0259 124.97 95.0259 123.545V99.1504C95.0259 97.7377 96.1761 96.5898 97.5919 96.5898H141.024C142.44 96.5898 143.59 97.7377 143.59 99.1504V123.545C143.59 124.97 142.44 126.105 141.024 126.105Z" fill="#008ECC"/>
<path id="Vector_74" d="M137.143 102.909C137.143 104.258 136.043 105.368 134.691 105.368C133.326 105.368 132.226 104.258 132.226 102.909C132.226 101.547 133.326 100.449 134.691 100.449C136.043 100.449 137.143 101.547 137.143 102.909Z" fill="#06477D"/>
<path id="Vector_75" d="M139.607 102.909C139.607 104.258 138.507 105.368 137.142 105.368C135.79 105.368 134.69 104.258 134.69 102.909C134.69 101.547 135.79 100.449 137.142 100.449C138.507 100.449 139.607 101.547 139.607 102.909Z" fill="#74C2EF"/>
<path id="Vector_76" d="M126.17 102.908C126.17 103.291 125.86 103.601 125.477 103.601H99.9276C99.5445 103.601 99.2339 103.291 99.2339 102.908C99.2339 102.524 99.5445 102.214 99.9276 102.214H125.477C125.86 102.214 126.17 102.524 126.17 102.908Z" fill="#F2F2ED"/>
<path id="Vector_77" d="M108.221 116.709C108.221 117.093 107.911 117.403 107.527 117.403H99.9276C99.5445 117.403 99.2339 117.093 99.2339 116.709C99.2339 116.326 99.5445 116.016 99.9276 116.016H107.527C107.911 116.016 108.221 116.326 108.221 116.709Z" fill="#06477D"/>
<path id="Vector_78" d="M118.675 116.709C118.675 117.093 118.365 117.403 117.982 117.403H110.382C109.999 117.403 109.688 117.093 109.688 116.709C109.688 116.326 109.999 116.016 110.382 116.016H117.982C118.365 116.016 118.675 116.326 118.675 116.709Z" fill="#06477D"/>
<path id="Vector_79" d="M139.608 116.709C139.608 117.093 139.297 117.403 138.914 117.403H120.912C120.528 117.403 120.218 117.093 120.218 116.709C120.218 116.326 120.528 116.016 120.912 116.016H138.914C139.297 116.016 139.608 116.326 139.608 116.709Z" fill="#06477D"/>
<path id="Vector_80" d="M115.211 120.605C115.211 120.988 114.901 121.299 114.518 121.299H99.9276C99.5445 121.299 99.2339 120.988 99.2339 120.605C99.2339 120.222 99.5445 119.911 99.9276 119.911H114.518C114.901 119.911 115.211 120.222 115.211 120.605Z" fill="#06477D"/>
<path id="Vector_81" d="M121.506 120.605C121.506 120.988 121.196 121.299 120.813 121.299H117.27C116.887 121.299 116.577 120.988 116.577 120.605C116.577 120.222 116.887 119.911 117.27 119.911H120.813C121.196 119.911 121.506 120.222 121.506 120.605Z" fill="#06477D"/>
<path id="Vector_82" d="M106.679 112.458H100.106C99.6257 112.458 99.2339 112.067 99.2339 111.588V107.93C99.2339 107.451 99.6257 107.06 100.106 107.06H106.679C107.172 107.06 107.564 107.451 107.564 107.93V111.588C107.564 112.067 107.172 112.458 106.679 112.458Z" fill="#74C2EF"/>
<path id="Vector_83" d="M103.418 111.019H98.4629V108.496H103.418C104.113 108.496 104.669 109.064 104.669 109.757C104.669 110.451 104.113 111.019 103.418 111.019Z" stroke="#008ECC" stroke-width="1.18247" stroke-miterlimit="10"/>
<path id="Vector_84" d="M104.67 109.758H108.21" stroke="#008ECC" stroke-width="1.18247" stroke-miterlimit="10"/>
<path id="Vector_85" d="M63.5182 44.8706L66.361 45.0662C66.6596 45.1311 66.9349 44.8888 66.9196 44.5913L66.8554 37.3816C66.8376 37.2005 66.7175 37.0542 66.5335 37.0094L63.5405 36.7902C63.2953 36.7305 63.0608 36.923 63.0716 37.1752L63.15 44.4222C63.1546 44.6469 63.3067 44.8321 63.5182 44.8706Z" fill="#06477D"/>
<path id="Vector_86" d="M63.0832 44.8371L65.918 45.023C66.2166 45.0879 66.4901 44.8633 66.4846 44.5578L66.4027 37.3464C66.4025 37.167 66.2745 37.011 66.0985 36.9759L63.0975 36.747C62.8505 36.705 62.616 36.8975 62.6268 37.1497L62.7052 44.3967C62.7116 44.6036 62.8637 44.7888 63.0832 44.8371Z" fill="#B5B5B5"/>
<path id="Vector_87" d="M137.681 92.9448C137.593 92.3898 137.075 92.0114 136.518 92.0997C135.975 92.188 135.596 92.7051 135.684 93.2601C135.773 93.8025 136.291 94.1809 136.834 94.0926C137.391 94.0043 137.77 93.4872 137.681 92.9448Z" fill="#023259"/>
<path id="Vector_88" d="M133.296 73.6719C133.296 79.3101 128.708 83.8888 123.058 83.8888C117.395 83.8888 112.819 79.3101 112.819 73.6719C112.819 68.0211 117.395 63.4551 123.058 63.4551C128.708 63.4551 133.296 68.0211 133.296 73.6719Z" fill="#008ECC"/>
<path id="Vector_89" d="M124.181 73.3426L122.424 72.6741C122.121 72.5605 121.919 72.2704 121.919 71.9425C121.919 71.7407 121.995 71.5262 122.134 71.3875C122.285 71.2361 122.475 71.1731 122.702 71.1731H123.385C123.752 71.1731 124.042 71.3875 124.143 71.7407C124.245 72.1065 124.636 72.3209 125.016 72.22C125.395 72.1065 125.61 71.7154 125.496 71.337C125.268 70.5172 124.573 69.9243 123.752 69.7856V69.2054C123.752 68.8144 123.436 68.499 123.044 68.499C122.652 68.499 122.336 68.8144 122.336 69.2054V69.7982C121.893 69.8739 121.489 70.0883 121.16 70.4036C120.743 70.8073 120.528 71.3749 120.528 71.9425C120.528 72.8254 121.084 73.6453 121.931 73.9732L123.676 74.6418C123.992 74.7679 124.194 75.058 124.194 75.3733C124.194 75.8022 123.827 76.168 123.398 76.168H122.715C122.361 76.168 122.07 75.9409 121.969 75.6004C121.856 75.222 121.464 75.0075 121.084 75.1211C120.718 75.222 120.49 75.613 120.604 75.9914C120.832 76.8113 121.54 77.4167 122.336 77.5554V78.1357C122.336 78.5267 122.652 78.8294 123.044 78.8294C123.436 78.8294 123.752 78.5267 123.752 78.1357V77.5554C124.775 77.3789 125.584 76.4959 125.584 75.3986C125.584 74.4904 125.028 73.6831 124.181 73.3426Z" fill="white"/>
</g>
</g>
</svg>
