<svg width="25" height="24" viewBox="0 0 25 24" fill="none" xmlns="http://www.w3.org/2000/svg">
    <g id="Icon">
        <path id="Vector (Stroke)" fill-rule="evenodd" clip-rule="evenodd"
              d="M9.66748 6.15385H14.9993C14.9432 5.94144 14.8675 5.71605 14.7657 5.49453C14.5783 5.08689 14.3166 4.72182 13.9536 4.45854C13.6012 4.20293 13.0947 4 12.3334 4C11.572 4 11.0655 4.20293 10.7131 4.45854C10.3501 4.72182 10.0884 5.08689 9.90109 5.49453C9.79928 5.71605 9.72355 5.94144 9.66748 6.15385ZM17.0468 6.15385C16.9692 5.73016 16.8312 5.19961 16.5829 4.65932C16.293 4.0285 15.8387 3.35511 15.1279 2.83953C14.4064 2.3163 13.4811 2 12.3334 2C11.1856 2 10.2603 2.3163 9.53887 2.83953C8.82801 3.35511 8.37376 4.0285 8.08384 4.65932C7.83552 5.19961 7.69754 5.73016 7.61993 6.15385H5.33337C4.78109 6.15385 4.33337 6.60156 4.33337 7.15385V21C4.33337 21.5523 4.78109 22 5.33337 22H19.3334C19.8857 22 20.3334 21.5523 20.3334 21V7.15385C20.3334 6.60156 19.8857 6.15385 19.3334 6.15385H17.0468ZM6.33337 8.15385V20H18.3334V8.15385H6.33337Z"
              fill="#fff"/>
    </g>
</svg>
