<svg width="25" height="24" viewBox="0 0 25 24" fill="none" xmlns="http://www.w3.org/2000/svg">
    <g id="Icon">
        <path id="Union" fill-rule="evenodd" clip-rule="evenodd"
              d="M14.6995 2.40992C13.6019 1.41611 11.9433 1.37174 10.7942 2.30545L3.60822 8.14403C2.90709 8.7137 2.5 9.56899 2.5 10.4724V18.9996C2.5 20.6565 3.84314 21.9996 5.5 21.9996H19.5C21.1569 21.9996 22.5 20.6565 22.5 18.9996V10.8034C22.5 9.95607 22.1417 9.14825 21.5136 8.57954L14.6995 2.40992ZM16.5 19.9996L19.5 19.9996C20.0523 19.9996 20.5 19.5519 20.5 18.9996V10.8034C20.5 10.521 20.3806 10.2517 20.1712 10.0621L13.3571 3.8925C12.9913 3.56123 12.4384 3.54644 12.0554 3.85768L4.86941 9.69626C4.6357 9.88615 4.5 10.1712 4.5 10.4724V18.9996C4.5 19.5519 4.94772 19.9996 5.5 19.9996L8.5 19.9996V13.9996C8.5 12.895 9.39543 11.9996 10.5 11.9996H14.5C15.6046 11.9996 16.5 12.895 16.5 13.9996V19.9996ZM10.5 19.9996H14.5V13.9996H10.5V19.9996Z"
              fill="#fff"/>
    </g>
</svg>
