<svg width="25" height="24" viewBox="0 0 25 24" fill="none" xmlns="http://www.w3.org/2000/svg">
    <g id="Icon">
        <path id="Vector 2175 (Stroke)" fill-rule="evenodd" clip-rule="evenodd"
              d="M12.6666 7.50375C12.0774 7.50375 11.5181 7.2439 11.1381 6.79356C9.60436 4.97596 7.94799 4.77783 6.82712 5.16999C5.66725 5.5758 4.66663 6.74179 4.66663 8.56612C4.66663 9.08549 4.87002 9.81979 5.39573 10.77C5.91053 11.7005 6.65926 12.7032 7.55867 13.7208C9.14476 15.5152 11.0738 17.2154 12.6572 18.4731C12.697 18.4423 12.7369 18.4115 12.7768 18.3807C14.6052 16.9688 16.4835 15.5183 17.9965 13.9027C19.7154 12.0671 20.6666 10.32 20.6666 8.56612C20.6666 6.7418 19.666 5.57581 18.5061 5.17C17.3853 4.77783 15.7289 4.97596 14.1951 6.79356C13.8151 7.2439 13.2559 7.50375 12.6666 7.50375ZM11.2027 4.13811C11.7093 4.4997 12.2015 4.95253 12.6666 5.50375C13.1318 4.95253 13.6239 4.4997 14.1306 4.13811C17.9809 1.39011 22.6666 3.9116 22.6666 8.56612C22.6666 13.276 17.8688 16.978 13.9936 19.9682C13.7471 20.1584 13.5043 20.3458 13.2668 20.5303C12.9108 20.8068 12.4156 20.8162 12.0578 20.5421C8.58562 17.8817 2.66663 12.5364 2.66663 8.56612C2.66663 3.91158 7.35236 1.39011 11.2027 4.13811Z"
              fill="#686868"/>
    </g>
</svg>
