<svg width="18" height="18" viewBox="0 0 18 18" fill="none" xmlns="http://www.w3.org/2000/svg">
<path d="M5 14C5.28333 14 5.52083 13.9042 5.7125 13.7125C5.90417 13.5208 6 13.2833 6 13C6 12.7167 5.90417 12.4792 5.7125 12.2875C5.52083 12.0958 5.28333 12 5 12C4.71667 12 4.47917 12.0958 4.2875 12.2875C4.09583 12.4792 4 12.7167 4 13C4 13.2833 4.09583 13.5208 4.2875 13.7125C4.47917 13.9042 4.71667 14 5 14ZM5 10C5.28333 10 5.52083 9.90417 5.7125 9.7125C5.90417 9.52083 6 9.28333 6 9C6 8.71667 5.90417 8.47917 5.7125 8.2875C5.52083 8.09583 5.28333 8 5 8C4.71667 8 4.47917 8.09583 4.2875 8.2875C4.09583 8.47917 4 8.71667 4 9C4 9.28333 4.09583 9.52083 4.2875 9.7125C4.47917 9.90417 4.71667 10 5 10ZM5 6C5.28333 6 5.52083 5.90417 5.7125 5.7125C5.90417 5.52083 6 5.28333 6 5C6 4.71667 5.90417 4.47917 5.7125 4.2875C5.52083 4.09583 5.28333 4 5 4C4.71667 4 4.47917 4.09583 4.2875 4.2875C4.09583 4.47917 4 4.71667 4 5C4 5.28333 4.09583 5.52083 4.2875 5.7125C4.47917 5.90417 4.71667 6 5 6ZM9 14H13C13.2833 14 13.5208 13.9042 13.7125 13.7125C13.9042 13.5208 14 13.2833 14 13C14 12.7167 13.9042 12.4792 13.7125 12.2875C13.5208 12.0958 13.2833 12 13 12H9C8.71667 12 8.47917 12.0958 8.2875 12.2875C8.09583 12.4792 8 12.7167 8 13C8 13.2833 8.09583 13.5208 8.2875 13.7125C8.47917 13.9042 8.71667 14 9 14ZM9 10H13C13.2833 10 13.5208 9.90417 13.7125 9.7125C13.9042 9.52083 14 9.28333 14 9C14 8.71667 13.9042 8.47917 13.7125 8.2875C13.5208 8.09583 13.2833 8 13 8H9C8.71667 8 8.47917 8.09583 8.2875 8.2875C8.09583 8.47917 8 8.71667 8 9C8 9.28333 8.09583 9.52083 8.2875 9.7125C8.47917 9.90417 8.71667 10 9 10ZM9 6H13C13.2833 6 13.5208 5.90417 13.7125 5.7125C13.9042 5.52083 14 5.28333 14 5C14 4.71667 13.9042 4.47917 13.7125 4.2875C13.5208 4.09583 13.2833 4 13 4H9C8.71667 4 8.47917 4.09583 8.2875 4.2875C8.09583 4.47917 8 4.71667 8 5C8 5.28333 8.09583 5.52083 8.2875 5.7125C8.47917 5.90417 8.71667 6 9 6ZM2 18C1.45 18 0.979167 17.8042 0.5875 17.4125C0.195833 17.0208 0 16.55 0 16V2C0 1.45 0.195833 0.979167 0.5875 0.5875C0.979167 0.195833 1.45 0 2 0H16C16.55 0 17.0208 0.195833 17.4125 0.5875C17.8042 0.979167 18 1.45 18 2V16C18 16.55 17.8042 17.0208 17.4125 17.4125C17.0208 17.8042 16.55 18 16 18H2ZM2 16H16V2H2V16Z" fill="white"/>
</svg>
