<svg width="24" height="24" viewBox="0 0 24 24" fill="none" xmlns="http://www.w3.org/2000/svg">
    <g id="Icon">
        <path id="Union" fill-rule="evenodd" clip-rule="evenodd"
              d="M15.9458 14.7828C17.7898 13.5221 19 11.4024 19 9C19 5.13401 15.866 2 12 2C8.13401 2 5 5.13401 5 9C5 11.4024 6.21021 13.5221 8.05423 14.7828C7.03725 15.2004 6.07735 15.7793 5.20789 16.5057C3.89156 17.6053 2.83312 18.9999 2.09454 20.5756C1.86013 21.0756 2.07548 21.671 2.57555 21.9055C3.07562 22.1399 3.67103 21.9245 3.90545 21.4244C4.52537 20.102 5.40746 18.945 6.49009 18.0406C8.08147 16.7112 10.0185 16 12 16C13.9814 16 15.9185 16.7112 17.5099 18.0406C18.5925 18.945 19.4746 20.102 20.0945 21.4244C20.329 21.9245 20.9244 22.1399 21.4244 21.9055C21.9245 21.671 22.1399 21.0756 21.9054 20.5756C21.1669 18.9999 20.1084 17.6053 18.7921 16.5057C17.9226 15.7793 16.9627 15.2004 15.9458 14.7828ZM17 9C17 11.7614 14.7614 14 12 14C9.23858 14 7 11.7614 7 9C7 6.23858 9.23858 4 12 4C14.7614 4 17 6.23858 17 9Z"
              fill="#fff"/>
    </g>
</svg>
