<svg width="28" height="28" viewBox="0 0 28 28" fill="none" xmlns="http://www.w3.org/2000/svg">
    <rect width="28" height="28" rx="14" fill="white"/>
    <mask id="mask0_3107_27607" style="mask-type:alpha" maskUnits="userSpaceOnUse" x="4" y="4" width="20" height="20">
        <rect x="4" y="4" width="20" height="20" fill="#D9D9D9"/>
    </mask>
    <g mask="url(#mask0_3107_27607)">
        <path d="M14.0003 20.9374C13.8059 20.9374 13.608 20.9027 13.4066 20.8333C13.2052 20.7638 13.0281 20.6527 12.8753 20.4999L11.4378 19.1874C9.9656 17.8402 8.63574 16.5034 7.44824 15.177C6.26074 13.8506 5.66699 12.3888 5.66699 10.7916C5.66699 9.48603 6.10449 8.39575 6.97949 7.52075C7.85449 6.64575 8.94477 6.20825 10.2503 6.20825C10.9864 6.20825 11.6809 6.3645 12.3337 6.677C12.9864 6.9895 13.542 7.41659 14.0003 7.95825C14.4587 7.41659 15.0142 6.9895 15.667 6.677C16.3198 6.3645 17.0142 6.20825 17.7503 6.20825C19.0559 6.20825 20.1462 6.64575 21.0212 7.52075C21.8962 8.39575 22.3337 9.48603 22.3337 10.7916C22.3337 12.3888 21.7434 13.8541 20.5628 15.1874C19.3823 16.5208 18.042 17.861 16.542 19.2083L15.1253 20.4999C14.9725 20.6527 14.7955 20.7638 14.5941 20.8333C14.3927 20.9027 14.1948 20.9374 14.0003 20.9374ZM13.2087 9.62492C12.8059 9.05547 12.3753 8.62145 11.917 8.32284C11.4587 8.02422 10.9031 7.87492 10.2503 7.87492C9.41699 7.87492 8.72255 8.1527 8.16699 8.70825C7.61144 9.26381 7.33366 9.95825 7.33366 10.7916C7.33366 11.5138 7.5906 12.2812 8.10449 13.0937C8.61838 13.9062 9.23296 14.6944 9.94824 15.4583C10.6635 16.2221 11.3996 16.9374 12.1566 17.6041C12.9135 18.2708 13.5281 18.8194 14.0003 19.2499C14.4725 18.8194 15.0871 18.2708 15.8441 17.6041C16.601 16.9374 17.3371 16.2221 18.0524 15.4583C18.7677 14.6944 19.3823 13.9062 19.8962 13.0937C20.41 12.2812 20.667 11.5138 20.667 10.7916C20.667 9.95825 20.3892 9.26381 19.8337 8.70825C19.2781 8.1527 18.5837 7.87492 17.7503 7.87492C17.0975 7.87492 16.542 8.02422 16.0837 8.32284C15.6253 8.62145 15.1948 9.05547 14.792 9.62492C14.6948 9.76381 14.5767 9.86797 14.4378 9.93742C14.2989 10.0069 14.1531 10.0416 14.0003 10.0416C13.8475 10.0416 13.7017 10.0069 13.5628 9.93742C13.4239 9.86797 13.3059 9.76381 13.2087 9.62492Z"
              fill="#D83232"/>
    </g>
</svg>
