<svg width="22" height="21" viewBox="0 0 22 21" fill="none" xmlns="http://www.w3.org/2000/svg">
<path fill-rule="evenodd" clip-rule="evenodd" d="M3.4801 0H3.4001C3.0337 0 2.7185 1.19209e-08 2.4401 0.0656C2.00912 0.168584 1.61506 0.388874 1.30159 0.702063C0.988115 1.01525 0.76747 1.40911 0.664098 1.84C0.600098 2.1184 0.600098 2.432 0.600098 2.8V6.8C0.600098 7.1664 0.600098 7.4816 0.665698 7.76C0.768681 8.19098 0.988972 8.58504 1.30216 8.89851C1.61535 9.21198 2.00921 9.43263 2.4401 9.536C2.7185 9.6 3.0321 9.6 3.4001 9.6H7.4001C7.7665 9.6 8.0817 9.6 8.3601 9.5344C8.79108 9.43142 9.18514 9.21113 9.49861 8.89794C9.81208 8.58475 10.0327 8.19089 10.1361 7.76C10.2001 7.4816 10.2001 7.168 10.2001 6.8V2.8C10.2001 2.4336 10.2001 2.1184 10.1345 1.84C10.0315 1.40902 9.81122 1.01496 9.49803 0.701489C9.18484 0.388018 8.79099 0.167372 8.3601 0.0639999C8.0817 -5.96046e-08 7.7681 0 7.4001 0H3.4801ZM2.8129 1.6224C2.8817 1.6064 2.9889 1.6 3.4801 1.6H7.3201C7.8129 1.6 7.9185 1.6048 7.9873 1.6224C8.13103 1.65677 8.26242 1.73028 8.36692 1.83478C8.47142 1.93927 8.54493 2.07067 8.5793 2.2144C8.5953 2.2816 8.6001 2.3872 8.6001 2.88V6.72C8.6001 7.2128 8.5953 7.3184 8.5777 7.3872C8.54333 7.53093 8.46982 7.66233 8.36532 7.76682C8.26082 7.87132 8.12943 7.94483 7.9857 7.9792C7.9201 7.9936 7.8145 8 7.3201 8H3.4801C2.9873 8 2.8817 7.9952 2.8129 7.9776C2.66917 7.94323 2.53777 7.86972 2.43327 7.76522C2.32878 7.66073 2.25527 7.52933 2.2209 7.3856C2.2065 7.32 2.2001 7.2144 2.2001 6.72V2.88C2.2001 2.3872 2.2049 2.2816 2.2225 2.2128C2.25687 2.06907 2.33038 1.93767 2.43487 1.83318C2.53937 1.72868 2.67077 1.65517 2.8145 1.6208L2.8129 1.6224ZM14.6801 0H14.6001C14.2337 0 13.9185 1.19209e-08 13.6401 0.0656C13.2091 0.168584 12.8151 0.388874 12.5016 0.702063C12.1881 1.01525 11.9675 1.40911 11.8641 1.84C11.8001 2.1184 11.8001 2.432 11.8001 2.8V6.8C11.8001 7.1664 11.8001 7.4816 11.8657 7.76C11.9687 8.19098 12.189 8.58504 12.5022 8.89851C12.8153 9.21198 13.2092 9.43263 13.6401 9.536C13.9185 9.6 14.2321 9.6 14.6001 9.6H18.6001C18.9665 9.6 19.2817 9.6 19.5601 9.5344C19.9911 9.43142 20.3851 9.21113 20.6986 8.89794C21.0121 8.58475 21.2327 8.19089 21.3361 7.76C21.4001 7.4816 21.4001 7.168 21.4001 6.8V2.8C21.4001 2.4336 21.4001 2.1184 21.3345 1.84C21.2315 1.40902 21.0112 1.01496 20.698 0.701489C20.3848 0.388018 19.991 0.167372 19.5601 0.0639999C19.2817 -5.96046e-08 18.9681 0 18.6001 0H14.6801ZM14.0129 1.6224C14.0817 1.6064 14.1889 1.6 14.6801 1.6H18.5201C19.0129 1.6 19.1185 1.6048 19.1873 1.6224C19.331 1.65677 19.4624 1.73028 19.5669 1.83478C19.6714 1.93927 19.7449 2.07067 19.7793 2.2144C19.7953 2.2816 19.8001 2.3872 19.8001 2.88V6.72C19.8001 7.2128 19.7937 7.3184 19.7777 7.3872C19.7433 7.53093 19.6698 7.66233 19.5653 7.76682C19.4608 7.87132 19.3294 7.94483 19.1857 7.9792C19.1185 7.9952 19.0129 8 18.5201 8H14.6801C14.1873 8 14.0817 7.9952 14.0129 7.9776C13.8692 7.94323 13.7378 7.86972 13.6333 7.76522C13.5288 7.66073 13.4553 7.52933 13.4209 7.3856C13.4065 7.32 13.4001 7.2144 13.4001 6.72V2.88C13.4001 2.3872 13.4049 2.2816 13.4225 2.2128C13.4569 2.06907 13.5304 1.93767 13.6349 1.83318C13.7394 1.72868 13.8708 1.65517 14.0145 1.6208L14.0129 1.6224ZM3.4001 11.2H7.4001C7.7665 11.2 8.0817 11.2 8.3601 11.2656C8.79108 11.3686 9.18514 11.5889 9.49861 11.9021C9.81208 12.2153 10.0327 12.6091 10.1361 13.04C10.2001 13.3184 10.2001 13.632 10.2001 14V18C10.2001 18.3664 10.2001 18.6816 10.1345 18.96C10.0315 19.391 9.81122 19.785 9.49803 20.0985C9.18484 20.412 8.79099 20.6326 8.3601 20.736C8.0817 20.8 7.7681 20.8 7.4001 20.8H3.4001C3.0337 20.8 2.7185 20.8 2.4401 20.7344C2.00912 20.6314 1.61506 20.4111 1.30159 20.0979C0.988115 19.7847 0.76747 19.3909 0.664098 18.96C0.600098 18.6816 0.600098 18.368 0.600098 18V14C0.600098 13.6336 0.600098 13.3184 0.665698 13.04C0.768681 12.609 0.988972 12.215 1.30216 11.9015C1.61535 11.588 2.00921 11.3674 2.4401 11.264C2.7185 11.2 3.0321 11.2 3.4001 11.2ZM3.4801 12.8C2.9873 12.8 2.8817 12.8048 2.8129 12.8224C2.66917 12.8568 2.53777 12.9303 2.43327 13.0348C2.32878 13.1393 2.25527 13.2707 2.2209 13.4144C2.2065 13.48 2.2001 13.5856 2.2001 14.08V17.92C2.2001 18.4128 2.2049 18.5184 2.2225 18.5872C2.25687 18.7309 2.33038 18.8623 2.43487 18.9668C2.53937 19.0713 2.67077 19.1448 2.8145 19.1792C2.8817 19.1952 2.9873 19.2 3.4801 19.2H7.3201C7.8129 19.2 7.9185 19.1936 7.9873 19.1776C8.13103 19.1432 8.26242 19.0697 8.36692 18.9652C8.47142 18.8607 8.54493 18.7293 8.5793 18.5856C8.5953 18.5184 8.6001 18.4128 8.6001 17.92V14.08C8.6001 13.5872 8.5953 13.4816 8.5777 13.4128C8.54333 13.2691 8.46982 13.1377 8.36532 13.0332C8.26082 12.9287 8.12943 12.8552 7.9857 12.8208C7.9201 12.8064 7.8145 12.8 7.3201 12.8H3.4801ZM14.6801 11.2H14.6001C14.2337 11.2 13.9185 11.2 13.6401 11.2656C13.2091 11.3686 12.8151 11.5889 12.5016 11.9021C12.1881 12.2153 11.9675 12.6091 11.8641 13.04C11.8001 13.3184 11.8001 13.632 11.8001 14V18C11.8001 18.3664 11.8001 18.6816 11.8657 18.96C11.9687 19.391 12.189 19.785 12.5022 20.0985C12.8153 20.412 13.2092 20.6326 13.6401 20.736C13.9185 20.8016 14.2337 20.8016 14.6001 20.8016H18.6001C18.9665 20.8016 19.2817 20.8016 19.5601 20.736C19.9908 20.6328 20.3845 20.4123 20.6977 20.0992C21.0108 19.786 21.2313 19.3923 21.3345 18.9616C21.4001 18.6832 21.4001 18.368 21.4001 18.0016V14C21.4001 13.6336 21.4001 13.3184 21.3345 13.04C21.2315 12.609 21.0112 12.215 20.698 11.9015C20.3848 11.588 19.991 11.3674 19.5601 11.264C19.2817 11.2 18.9681 11.2 18.6001 11.2H14.6801ZM14.0129 12.8224C14.0817 12.8064 14.1889 12.8 14.6801 12.8H18.5201C19.0129 12.8 19.1185 12.8048 19.1873 12.8224C19.331 12.8568 19.4624 12.9303 19.5669 13.0348C19.6714 13.1393 19.7449 13.2707 19.7793 13.4144C19.7953 13.4816 19.8001 13.5872 19.8001 14.08V17.92C19.8001 18.4128 19.7937 18.5184 19.7777 18.5872C19.7433 18.7309 19.6698 18.8623 19.5653 18.9668C19.4608 19.0713 19.3294 19.1448 19.1857 19.1792C19.1185 19.1952 19.0129 19.2 18.5201 19.2H14.6801C14.1873 19.2 14.0817 19.1936 14.0129 19.1776C13.8692 19.1432 13.7378 19.0697 13.6333 18.9652C13.5288 18.8607 13.4553 18.7293 13.4209 18.5856C13.4065 18.52 13.4001 18.4144 13.4001 17.92V14.08C13.4001 13.5872 13.4049 13.4816 13.4225 13.4128C13.4569 13.2691 13.5304 13.1377 13.6349 13.0332C13.7394 12.9287 13.8708 12.8552 14.0145 12.8208L14.0129 12.8224Z" fill="#008ECC"/>
</svg>
