<?xml version="1.0" encoding="utf-8"?>
<!-- Generator: Adobe Illustrator 24.3.0, SVG Export Plug-In . SVG Version: 6.00 Build 0)  -->
<svg version="1.1" id="Layer_1" xmlns="http://www.w3.org/2000/svg" x="0px"
     y="0px"
     viewBox="0 0 1000 1000" style="enable-background:new 0 0 1000 1000;" xml:space="preserve">
<style type="text/css">
	.st0{clip-path:url(#SVGID_2_);fill:url(#SVGID_3_);}
	.st1{clip-path:url(#SVGID_5_);fill:url(#SVGID_6_);}
	.st2{clip-path:url(#SVGID_8_);fill:url(#SVGID_9_);}
	.st3{clip-path:url(#SVGID_11_);fill:url(#SVGID_12_);}
	.st4{clip-path:url(#SVGID_14_);fill:url(#SVGID_15_);}
	.st5{clip-path:url(#SVGID_17_);fill:#929497;}
	.st6{clip-path:url(#SVGID_17_);fill:#44813D;}
	.st7{clip-path:url(#SVGID_17_);fill:#F19B49;}
	.st8{clip-path:url(#SVGID_19_);fill:url(#SVGID_20_);}
	.st9{clip-path:url(#SVGID_22_);fill:url(#SVGID_23_);}
	.st10{clip-path:url(#SVGID_25_);fill:url(#SVGID_26_);}
	.st11{clip-path:url(#SVGID_28_);fill:url(#SVGID_29_);}
	.st12{clip-path:url(#SVGID_31_);fill:url(#SVGID_32_);}
	.st13{clip-path:url(#SVGID_34_);fill:url(#SVGID_35_);}
	.st14{clip-path:url(#SVGID_37_);fill:url(#SVGID_38_);}
	.st15{fill:url(#SVGID_39_);}
	.st16{fill:url(#SVGID_40_);}
	.st17{fill:url(#SVGID_41_);}
	.st18{fill:#FFFFFF;}
	.st19{fill:none;stroke:url(#SVGID_42_);stroke-width:8;stroke-miterlimit:10;}
	.st20{fill:none;stroke:url(#SVGID_43_);stroke-width:8;stroke-miterlimit:10;}
	.st21{fill:url(#SVGID_44_);}
	.st22{fill:url(#SVGID_45_);}
</style>
    <g>
	<linearGradient id="SVGID_2_" gradientUnits="userSpaceOnUse" x1="285.291" y1="500" x2="714.709" y2="500">
		<stop offset="0" style="stop-color:#00ADEE"/>
        <stop offset="1" style="stop-color:#1B75BB"/>
	</linearGradient>
        <path style="fill:url(#SVGID_2_);" d="M613.6,702.21H386.4c-55.61,0-101.11-45.5-101.11-101.11V398.89
		c0-55.61,45.5-101.11,101.11-101.11H613.6c55.61,0,101.11,45.5,101.11,101.11v202.21C714.71,656.71,669.21,702.21,613.6,702.21z"/>
        <g>
		<path class="st18" d="M370.99,596.95c1.66-3.89,3.16-7.5,4.73-11.08c1.66-3.78,3.48-7.5,4.98-11.34c0.37-0.96,0.08-2.51-0.48-3.44
			c-5.78-9.61-9.91-19.94-13.63-30.47c-0.1-0.27-0.23-0.56-0.22-0.83c0.17-6.72-4.26-9.12-9.79-10.83c-4.3-1.33-8.5-3.04-12.64-4.83
			c-4.08-1.76-6.13-4.84-6.05-9.52c0.17-9.33,0.03-18.66,0.02-28c0-4.31,2.09-7.31,6.04-8.86c5.53-2.17,10.95-4.68,16.59-6.51
			c3.55-1.16,4.42-3.72,5.48-6.69c2.92-8.21,5.93-16.39,9.18-24.47c1.28-3.19,3.45-6,4.87-9.15c0.57-1.28,0.68-3.17,0.17-4.45
			c-2.38-5.87-5.02-11.65-7.63-17.42c-1.93-4.25-0.97-7.8,2.25-11c6.41-6.37,12.75-12.81,19.14-19.21c4.25-4.27,8.11-4.86,13.6-2.28
			c5.31,2.49,10.6,5.03,16.03,7.22c1.22,0.49,3.24,0.05,4.47-0.68c8.99-5.3,18.49-9.4,28.39-12.62c2.55-0.83,5.22-1.38,7.65-2.46
			c1.33-0.59,2.78-1.81,3.33-3.1c2.45-5.84,4.62-11.8,6.85-17.73c1.32-3.49,4.9-6.02,8.66-6.02c9.62-0.01,19.24,0,28.86,0
			c4.43,0,7.82,2.36,9.43,6.62c1.84,4.86,4,9.62,5.39,14.6c1.18,4.25,3.93,6.13,7.77,7.01c11.46,2.64,21.98,7.54,32.04,13.44
			c2.61,1.53,4.57,1.43,7.17,0.17c5.52-2.67,11.19-5.08,16.88-7.36c3.65-1.46,7-0.5,9.78,2.28c6.81,6.79,13.64,13.57,20.42,20.39
			c3.12,3.14,3.78,6.74,1.91,10.84c-2.68,5.85-5.33,11.71-7.8,17.65c-0.44,1.06-0.46,2.77,0.11,3.7c5.79,9.5,9.93,19.71,13.58,30.16
			c0.25,0.72,0.58,1.48,0.57,2.22c-0.01,5.84,3.82,7.94,8.65,9.54c5.09,1.69,10.17,3.57,14.92,6.02c3.34,1.72,5.59,4.78,5.56,9.01
			c-0.07,8.75-0.17,17.51,0.05,26.26c0.11,4.26-1.88,7.3-5.11,9.22c-3.59,2.14-7.67,3.47-11.56,5.09c-2.48,1.03-4.95,2.15-7.53,2.87
			c-2.72,0.76-3.88,2.55-4.47,5.07c-2.76,11.89-7.47,22.98-13.78,33.39c-1.5,2.48-1.79,4.49-0.47,7.17
			c2.67,5.42,4.88,11.08,7.4,16.58c1.82,3.97,0.87,7.37-1.99,10.3c-6.73,6.87-13.49,13.71-20.38,20.42
			c-2.86,2.79-6.29,3.97-10.3,2.18c-5.7-2.56-11.49-4.91-17.13-7.59c-2.14-1.02-3.74-1.14-5.85,0.15
			c-10.38,6.36-21.47,11.12-33.29,14.08c-3.4,0.85-5.78,2.3-6.88,6.03c-1.51,5.15-3.68,10.11-5.56,15.15
			c-1.67,4.46-6.02,7.49-10.7,7.49c-8.85-0.01-17.7-0.01-26.55-0.01c-3.91,0-8.33-2.94-9.78-6.64c-2.24-5.72-4.55-11.43-6.57-17.23
			c-0.8-2.28-2.14-3.48-4.32-4.16c-5.21-1.62-10.56-2.95-15.56-5.08c-6.79-2.9-13.35-6.35-19.91-9.75
			c-1.79-0.93-3.13-1.18-5.06-0.27c-5.81,2.76-11.77,5.19-17.64,7.83c-3.87,1.74-7.29,0.77-10.09-1.94
			c-7.18-6.96-14.26-14.03-21.18-21.24C372.62,601.33,372.04,599.03,370.99,596.95z M604.17,594.45c-0.38-1.2-0.58-2.15-0.96-3.02
			c-2.25-5.09-4.54-10.17-6.84-15.25c-1.28-2.82-1.25-5.59,0.24-8.31c0.84-1.52,1.71-3.01,2.64-4.47
			c7.57-12,12.51-25.07,15.48-38.88c0.84-3.92,3.21-6.04,6.51-7.39c5.33-2.18,10.74-4.16,16.15-6.1c1.84-0.66,2.54-1.76,2.5-3.66
			c-0.08-3.94-0.23-7.9,0.04-11.83c0.19-2.85-1.01-4.27-3.48-5.16c-5.32-1.93-10.67-3.8-15.89-5.98c-2.89-1.2-5.03-3.24-5.73-6.68
			c-0.96-4.69-2.12-9.37-3.63-13.91c-3.42-10.25-8.22-19.89-14.06-28.97c-2.02-3.14-2.11-6.25-0.6-9.57
			c2.31-5.07,4.51-10.19,6.86-15.24c0.97-2.08,0.97-3.74-0.83-5.44c-3.08-2.9-6.08-5.9-8.96-8.99c-1.38-1.48-2.62-1.5-4.33-0.7
			c-5.4,2.51-10.91,4.79-16.28,7.35c-3.1,1.47-5.85,1.15-8.79-0.4c-8.05-4.24-16.05-8.63-24.32-12.41
			c-4.48-2.05-9.39-3.43-14.26-4.31c-6.84-1.24-11.3-4.45-13.22-11.37c-1.25-4.51-3.21-8.85-5.15-13.13c-0.45-1-2.07-2.02-3.2-2.08
			c-4.22-0.25-8.47-0.26-12.69-0.02c-1.15,0.07-2.78,1.06-3.25,2.07c-1.93,4.17-3.83,8.42-5.13,12.82
			c-1.83,6.19-5.33,9.81-11.83,11.47c-8.13,2.08-16.13,4.9-23.89,8.11c-5.64,2.33-10.71,6.02-16.23,8.69
			c-2.07,1-5.04,1.77-7.03,1.06c-6.13-2.19-12.02-5.08-17.92-7.86c-1.64-0.77-2.83-0.81-4.12,0.5c-3.1,3.16-6.23,6.29-9.4,9.37
			c-1.53,1.49-1.73,3.04-0.83,4.95c2.38,5.04,4.72,10.09,6.96,15.19c1.52,3.44,1.66,6.87-0.63,10.14c-0.88,1.26-1.56,2.65-2.37,3.96
			c-7.27,11.71-12.18,24.38-15.01,37.82c-0.87,4.13-3.12,6.39-6.77,7.79c-5.11,1.96-10.18,4-15.31,5.9
			c-2.41,0.89-3.45,2.31-3.27,4.99c0.24,3.54,0.26,7.13-0.02,10.67c-0.23,2.93,0.92,4.36,3.59,5.28c4.99,1.73,9.9,3.7,14.83,5.62
			c3.7,1.45,6.26,3.73,6.97,8.02c0.7,4.25,1.72,8.5,3.16,12.56c3.6,10.16,8.1,19.93,14.1,28.94c2.31,3.48,2.27,7,0.57,10.67
			c-2.22,4.8-4.39,9.62-6.58,14.43c-0.92,2.02-0.92,3.81,0.84,5.5c3.18,3.07,6.16,6.35,9.41,9.35c0.72,0.66,2.41,1.01,3.28,0.64
			c4.6-1.94,9.17-4,13.58-6.32c5.05-2.65,9.73-3.04,14.48,0.67c2.1,1.64,4.57,2.85,6.95,4.1c9.55,5.02,19.35,9.33,30.08,11.31
			c5.25,0.97,9.72,3.06,11.48,9.03c1.51,5.13,3.71,10.08,5.9,14.97c0.49,1.1,2.16,2.28,3.35,2.35c4.31,0.27,8.66,0.24,12.97-0.04
			c1.1-0.07,2.64-1.21,3.1-2.25c2.08-4.74,4.23-9.51,5.61-14.47c1.84-6.58,6.9-8.22,12.51-9.88c7.52-2.22,15.05-4.56,22.26-7.62
			c5.89-2.5,11.33-6.08,16.92-9.27c2.46-1.4,4.81-1.6,7.41-0.42c5.51,2.5,11.06,4.9,16.6,7.33c1.49,0.65,2.91,1.56,4.45-0.06
			c3.19-3.34,6.5-6.56,9.69-9.89C603.47,596.07,603.78,595.13,604.17,594.45z"/>
            <g>
			<path class="st18" d="M418.67,425.34c7.17,0,14.35,0,21.52,0.01c2.8,0.01,4.45,1.41,5.15,4.4c1.06,4.54,2.05,9.1,3.07,13.65
				c0.14,0.63,0.3,1.26,0.51,2.12c0.73,0,1.47,0,2.22,0c40.09,0,80.18,0,120.26-0.01c1.78,0,3.43,0.19,4.71,1.57
				c1.52,1.64,1.66,3.51,1.05,5.61c-3.5,12.08-6.95,24.17-10.41,36.27c-3.08,10.79-6.15,21.58-9.23,32.37
				c-1.22,4.26-2.55,5.26-6.93,5.26c-29.39,0-58.77,0-88.16,0.01c-0.88,0-1.78-0.02-2.65,0.12c-2.53,0.4-4.33,2.6-4.26,5.11
				c0.07,2.52,1.99,4.6,4.53,4.88c0.7,0.08,1.42,0.04,2.13,0.04c29.5,0,59.01,0,88.51,0c0.77,0,1.55-0.04,2.3,0.08
				c2.5,0.42,4.36,2.68,4.27,5.13c-0.09,2.56-2.04,4.68-4.73,4.89c-2,0.15-4.02,0.06-6.03,0.07c-0.41,0-0.81,0-1.29,0.15
				c4.16,1.21,7.52,3.44,9.76,7.16c2.28,3.79,2.88,7.84,1.61,12.08c-2.18,7.27-8.41,11.37-16.28,10.8
				c-6.3-0.45-12.21-5.96-13.17-12.27c-1.27-8.3,2.45-13.9,12.01-17.84c-21.88,0-43.55,0-65.22,0c4.03,1.21,7.34,3.4,9.6,6.97
				c2.28,3.61,3.01,7.57,1.92,11.72c-2.03,7.7-8.38,12.03-16.52,11.41c-6.87-0.52-12.49-6.27-13.29-13.74
				c-0.64-5.96,2.79-13.86,11.95-16.16c0-0.17,0.01-0.34,0.01-0.51c-2.94,0-5.9,0.2-8.83-0.04c-6.3-0.53-11.69-5.51-13.06-11.77
				c-1.39-6.39,1.6-13.19,7.33-16.3c1.24-0.68,1.42-1.29,1.13-2.6c-5.89-26.34-11.73-52.69-17.54-79.04
				c-0.29-1.31-0.84-1.65-2.13-1.64c-5.2,0.04-10.41,0.05-15.61,0.05"/>
		</g>
	</g>
</g>
</svg>
