<svg width="81" height="81" viewBox="0 0 81 81" fill="none" xmlns="http://www.w3.org/2000/svg">
<path d="M40.5 1.125C22.9241 1.125 8.625 15.4241 8.625 33C8.625 38.4433 10.2763 44.2992 13.5331 50.4062C16.0911 55.2023 19.6458 60.1742 24.0986 65.1838C31.6373 73.6642 39.0625 79.2656 39.375 79.5C39.6996 79.7434 40.0943 79.875 40.5 79.875C40.9057 79.875 41.3004 79.7434 41.625 79.5C41.9375 79.2656 49.3627 73.6642 56.9014 65.1833C61.3545 60.1737 64.9089 55.2019 67.4669 50.4058C70.7238 44.2992 72.375 38.4433 72.375 33C72.375 15.4241 58.0759 1.125 40.5 1.125ZM40.5 58C37.0322 58.0014 33.6022 57.2796 30.4291 55.8806C27.256 54.4816 24.4096 52.4362 22.0716 49.875H26.75V33.625H15.508C15.5028 33.4167 15.5001 33.2083 15.5 33C15.5 19.215 26.715 8 40.5 8C54.285 8 65.5 19.215 65.5 33C65.5 33.2089 65.4973 33.4172 65.492 33.625H54.25V49.875H58.9284C56.5904 52.4362 53.744 54.4816 50.5709 55.8806C47.3978 57.2796 43.9678 58.0014 40.5 58Z" fill="#008ECC"/>
<path fill-rule="evenodd" clip-rule="evenodd" d="M30.5 16.125H50.5C50.9973 16.125 51.4742 16.3225 51.8258 16.6742C52.1775 17.0258 52.375 17.5027 52.375 18V49.875H44.875V40.5C44.875 40.0027 44.6775 39.5258 44.3258 39.1742C43.9742 38.8225 43.4973 38.625 43 38.625H38C37.5027 38.625 37.0258 38.8225 36.6742 39.1742C36.3225 39.5258 36.125 40.0027 36.125 40.5V49.875H28.625V18C28.625 17.5027 28.8225 17.0258 29.1742 16.6742C29.5258 16.3225 30.0027 16.125 30.5 16.125ZM32.5 21C32.5 20.4477 32.9477 20 33.5 20H35.5C36.0523 20 36.5 20.4477 36.5 21V23C36.5 23.5523 36.0523 24 35.5 24H33.5C32.9477 24 32.5 23.5523 32.5 23V21ZM32.5 27C32.5 26.4477 32.9477 26 33.5 26H35.5C36.0523 26 36.5 26.4477 36.5 27V29C36.5 29.5523 36.0523 30 35.5 30H33.5C32.9477 30 32.5 29.5523 32.5 29V27ZM38.5 21C38.5 20.4477 38.9477 20 39.5 20H41.5C42.0523 20 42.5 20.4477 42.5 21V23C42.5 23.5523 42.0523 24 41.5 24H39.5C38.9477 24 38.5 23.5523 38.5 23V21ZM38.5 27C38.5 26.4477 38.9477 26 39.5 26H41.5C42.0523 26 42.5 26.4477 42.5 27V29C42.5 29.5523 42.0523 30 41.5 30H39.5C38.9477 30 38.5 29.5523 38.5 29V27ZM44.5 21C44.5 20.4477 44.9477 20 45.5 20H47.5C48.0523 20 48.5 20.4477 48.5 21V23C48.5 23.5523 48.0523 24 47.5 24H45.5C44.9477 24 44.5 23.5523 44.5 23V21ZM44.5 27C44.5 26.4477 44.9477 26 45.5 26H47.5C48.0523 26 48.5 26.4477 48.5 27V29C48.5 29.5523 48.0523 30 47.5 30H45.5C44.9477 30 44.5 29.5523 44.5 29V27Z" fill="#008ECC"/>
</svg>
