<svg width="24" height="24" viewBox="0 0 24 24" fill="none" xmlns="http://www.w3.org/2000/svg">
    <g id="material-symbols:shopping-bag-outline">
        <path id="Vector"
              d="M6.75 21C6.26875 21 5.85692 20.8239 5.5145 20.4717C5.17208 20.1195 5.00058 19.6956 5 19.2V8.4C5 7.905 5.1715 7.4814 5.5145 7.1292C5.8575 6.777 6.26933 6.6006 6.75 6.6H8.5C8.5 5.61 8.84271 4.7625 9.52812 4.0575C10.2135 3.3525 11.0375 3 12 3C12.9625 3 13.7865 3.3525 14.4719 4.0575C15.1573 4.7625 15.5 5.61 15.5 6.6H17.25C17.7312 6.6 18.1434 6.7764 18.4864 7.1292C18.8294 7.482 19.0006 7.9056 19 8.4V19.2C19 19.695 18.8288 20.1189 18.4864 20.4717C18.144 20.8245 17.7318 21.0006 17.25 21H6.75ZM6.75 19.2H17.25V8.4H15.5V10.2C15.5 10.455 15.416 10.6689 15.248 10.8417C15.08 11.0145 14.8723 11.1006 14.625 11.1C14.3771 11.1 14.1694 11.0136 14.002 10.8408C13.8346 10.668 13.7506 10.4544 13.75 10.2V8.4H10.25V10.2C10.25 10.455 10.166 10.6689 9.998 10.8417C9.83 11.0145 9.62233 11.1006 9.375 11.1C9.12708 11.1 8.91942 11.0136 8.752 10.8408C8.58458 10.668 8.50058 10.4544 8.5 10.2V8.4H6.75V19.2ZM10.25 6.6H13.75C13.75 6.105 13.5788 5.6814 13.2364 5.3292C12.894 4.977 12.4818 4.8006 12 4.8C11.5187 4.8 11.1069 4.9764 10.7645 5.3292C10.4221 5.682 10.2506 6.1056 10.25 6.6Z"
              fill="#008ECC"/>
    </g>
</svg>
