<svg width="129" height="129" viewBox="0 0 129 129" fill="none" xmlns="http://www.w3.org/2000/svg">
    <g clip-path="url(#clip0_222_20222)">
        <ellipse cx="64.7842" cy="99.5029" rx="64" ry="7" fill="#ECF3F8"/>
        <circle cx="46.7842" cy="92.5029" r="6" fill="#008ECC"/>
        <circle cx="78.7842" cy="92.5029" r="6" fill="#008ECC"/>
        <path fill-rule="evenodd" clip-rule="evenodd"
              d="M5.78418 32.0029C5.78418 30.6222 6.90347 29.5029 8.28418 29.5029H19.2842C20.1021 29.5029 20.8283 29.8957 21.2844 30.5029H25.4016C28.3714 30.5029 30.9635 32.5157 31.6991 35.393L32.622 39.0029H91.2527C93.5135 39.0029 95.1812 41.1143 94.6575 43.3136L86.1588 79.0085C85.4616 81.9365 82.8454 84.0029 79.8355 84.0029H45.7341C42.7242 84.0029 40.108 81.9365 39.4109 79.0085L34.7715 59.5229L28.7926 36.136C28.3965 34.5868 27.0007 33.5029 25.4016 33.5029H21.2844C20.8283 34.1102 20.1021 34.5029 19.2842 34.5029H8.28418C6.90347 34.5029 5.78418 33.3836 5.78418 32.0029ZM37.7279 58.9877L37.7309 58.9869L37.6841 58.8039L36.1839 52.5029H46.5582L47.7728 60.5029H38.0886L37.7279 58.9877ZM48.0765 62.5029H38.5648L40.4696 70.5029H49.2911L48.0765 62.5029ZM51.314 70.5029L50.0994 62.5029H61.9365V70.5029H51.314ZM49.5948 72.5029H40.9458L42.3293 78.3136C42.7047 79.8902 44.1134 81.0029 45.7341 81.0029H50.8853L49.5948 72.5029ZM52.9083 81.0029L51.6177 72.5029H61.9365V81.0029H52.9083ZM49.7957 60.5029L48.5811 52.5029H61.9365V60.5029H49.7957ZM48.2774 50.5029H61.9365V42.0029H46.9869L48.2774 50.5029ZM44.9639 42.0029H33.6839L35.7077 50.5029H46.2545L44.9639 42.0029ZM63.9365 60.5029V52.5029H77.3547L76.0841 60.5029H63.9365ZM63.9365 62.5029V70.5029H74.4957L75.7664 62.5029H63.9365ZM63.9365 72.5029V81.0029H72.828L74.1781 72.5029H63.9365ZM63.9365 42.0029V50.5029H77.6724L79.0225 42.0029H63.9365ZM76.5208 70.5029L77.7915 62.5029H87.0048L85.1 70.5029H76.5208ZM74.8531 81.0029L76.2031 72.5029H84.6238L83.2403 78.3136C82.865 79.8902 81.4562 81.0029 79.8355 81.0029H74.8531ZM78.1091 60.5029L79.3798 52.5029H89.3857L87.481 60.5029H78.1091ZM79.6975 50.5029H89.8619L91.7391 42.6187C91.8139 42.3046 91.5757 42.0029 91.2527 42.0029H81.0476L79.6975 50.5029Z"
              fill="#008ECC"/>
    </g>
    <defs>
        <clipPath id="clip0_222_20222">
            <rect width="128" height="128" fill="white" transform="translate(0.78418 0.50293)"/>
        </clipPath>
    </defs>
</svg>
