<svg width="128" height="129" viewBox="0 0 128 129" fill="none" xmlns="http://www.w3.org/2000/svg">
    <g id="Frame 1410086800">
        <ellipse id="Ellipse 2773" cx="64" cy="99.5029" rx="64" ry="7" fill="#ECF3F8"/>
        <g id="Group 1171275027">
            <circle id="Ellipse 2771" cx="46" cy="92.5029" r="6" fill="#008ECC"/>
            <circle id="Ellipse 2772" cx="78" cy="92.5029" r="6" fill="#008ECC"/>
            <path id="Union" fill-rule="evenodd" clip-rule="evenodd"
                  d="M5 32.0029C5 30.6222 6.11929 29.5029 7.5 29.5029H18.5C19.3179 29.5029 20.0441 29.8957 20.5002 30.5029H24.6174C27.5872 30.5029 30.1793 32.5157 30.9149 35.393L31.8378 39.0029H90.4685C92.7293 39.0029 94.397 41.1143 93.8734 43.3136L85.3746 79.0085C84.6774 81.9365 82.0612 84.0029 79.0513 84.0029H44.9499C41.94 84.0029 39.3238 81.9365 38.6267 79.0085L33.9873 59.5229L28.0084 36.136C27.6123 34.5868 26.2166 33.5029 24.6174 33.5029H20.5002C20.0441 34.1102 19.3179 34.5029 18.5 34.5029H7.5C6.11929 34.5029 5 33.3836 5 32.0029ZM36.9437 58.9877L36.9467 58.9869L36.9 58.8039L35.3997 52.5029H45.774L46.9886 60.5029H37.3045L36.9437 58.9877ZM47.2923 62.5029H37.7807L39.6854 70.5029H48.5069L47.2923 62.5029ZM50.5299 70.5029L49.3152 62.5029H61.1523V70.5029H50.5299ZM48.8106 72.5029H40.1616L41.5451 78.3136C41.9205 79.8902 43.3292 81.0029 44.9499 81.0029H50.1012L48.8106 72.5029ZM52.1241 81.0029L50.8335 72.5029H61.1523V81.0029H52.1241ZM49.0116 60.5029L47.7969 52.5029H61.1523V60.5029H49.0116ZM47.4932 50.5029H61.1523V42.0029H46.2027L47.4932 50.5029ZM44.1798 42.0029H32.8997L34.9235 50.5029H45.4703L44.1798 42.0029ZM63.1523 60.5029V52.5029H76.5705L75.2999 60.5029H63.1523ZM63.1523 62.5029V70.5029H73.7115L74.9822 62.5029H63.1523ZM63.1523 72.5029V81.0029H72.0438L73.3939 72.5029H63.1523ZM63.1523 42.0029V50.5029H76.8882L78.2383 42.0029H63.1523ZM75.7366 70.5029L77.0073 62.5029H86.2206L84.3158 70.5029H75.7366ZM74.0689 81.0029L75.419 72.5029H83.8397L82.4562 78.3136C82.0808 79.8902 80.6721 81.0029 79.0513 81.0029H74.0689ZM77.325 60.5029L78.5956 52.5029H88.6016L86.6968 60.5029H77.325ZM78.9133 50.5029H89.0778L90.9549 42.6187C91.0297 42.3046 90.7915 42.0029 90.4685 42.0029H80.2634L78.9133 50.5029Z"
                  fill="#008ECC"/>
        </g>
    </g>
</svg>
