<svg width="21" height="20" viewBox="0 0 21 20" fill="none" xmlns="http://www.w3.org/2000/svg">
    <path id="Union" fill-rule="evenodd" clip-rule="evenodd"
          d="M6.5 2C6.5 0.895431 7.39543 0 8.5 0H12.5C13.6046 0 14.5 0.89543 14.5 2V4H19.5C20.0523 4 20.5 4.44772 20.5 5C20.5 5.55228 20.0523 6 19.5 6H17.5V17C17.5 18.6569 16.1569 20 14.5 20H6.5C4.84315 20 3.5 18.6569 3.5 17V6H1.5C0.947716 6 0.5 5.55228 0.5 5C0.5 4.44772 0.947715 4 1.5 4H6.5V2ZM5.5 6V17C5.5 17.5523 5.94772 18 6.5 18H14.5C15.0523 18 15.5 17.5523 15.5 17V6H5.5ZM12.5 2V4H8.5V2H12.5ZM7.5 9C7.5 8.44772 7.94772 8 8.5 8C9.05228 8 9.5 8.44772 9.5 9V15C9.5 15.5523 9.05228 16 8.5 16C7.94772 16 7.5 15.5523 7.5 15V9ZM12.5 8C11.9477 8 11.5 8.44772 11.5 9V15C11.5 15.5523 11.9477 16 12.5 16C13.0523 16 13.5 15.5523 13.5 15V9C13.5 8.44772 13.0523 8 12.5 8Z"
          fill="#D83232"/>
</svg>
