<svg width="24" height="24" viewBox="0 0 24 24" fill="none" xmlns="http://www.w3.org/2000/svg">
    <g id="ic:round-download">
        <path id="Rectangle 41621"
              d="M19 12V5C19 3.89543 18.1046 3 17 3H5C3.89543 3 3 3.89543 3 5V19C3 20.1046 3.89543 21 5 21H11"
              stroke="#008ECC" stroke-width="1.5" stroke-linecap="round"/>
        <path id="Vector 2232" d="M6 7H16" stroke="#008ECC" stroke-width="1.5" stroke-linecap="round"/>
        <path id="Vector 2233" d="M6 11H16" stroke="#008ECC" stroke-width="1.5" stroke-linecap="round"/>
        <path id="Vector 2234" d="M6 15H13" stroke="#008ECC" stroke-width="1.5" stroke-linecap="round"/>
        <path id="Vector"
              d="M21.3761 17.8118H20.3806V14.6353C20.3806 14.2859 20.0989 14 19.7545 14H17.2502C16.9058 14 16.6241 14.2859 16.6241 14.6353V17.8118H15.6286C15.0714 17.8118 14.7896 18.4979 15.1841 18.8982L18.0578 21.8142C18.302 22.0619 18.6964 22.0619 18.9406 21.8142L21.8144 18.8982C22.2088 18.4979 21.9333 17.8118 21.3761 17.8118Z"
              fill="#008ECC"/>
    </g>
</svg>
