<svg width="19" height="19" viewBox="0 0 19 19" fill="none" xmlns="http://www.w3.org/2000/svg">
<path fill-rule="evenodd" clip-rule="evenodd" d="M3.23938 5.30078C3.23938 4.47235 3.91095 3.80078 4.73938 3.80078C5.56781 3.80078 6.23938 4.47235 6.23938 5.30078C6.23938 6.12921 5.56781 6.80078 4.73938 6.80078C3.91095 6.80078 3.23938 6.12921 3.23938 5.30078ZM4.73938 2.30078C3.08253 2.30078 1.73938 3.64393 1.73938 5.30078C1.73938 6.95764 3.08253 8.30078 4.73938 8.30078C6.13726 8.30078 7.31183 7.3447 7.64487 6.05078H15.9894C16.4036 6.05078 16.7394 5.71499 16.7394 5.30078C16.7394 4.88657 16.4036 4.55078 15.9894 4.55078H7.64487C7.31183 3.25686 6.13726 2.30078 4.73938 2.30078ZM2.48938 14.3008C2.48938 13.8866 2.82517 13.5508 3.23938 13.5508H10.8339C11.1669 12.2569 12.3415 11.3008 13.7394 11.3008C15.3962 11.3008 16.7394 12.6439 16.7394 14.3008C16.7394 15.9576 15.3962 17.3008 13.7394 17.3008C12.3415 17.3008 11.1669 16.3447 10.8339 15.0508H3.23938C2.82517 15.0508 2.48938 14.715 2.48938 14.3008ZM13.7394 12.8008C12.911 12.8008 12.2394 13.4724 12.2394 14.3008C12.2394 15.1292 12.911 15.8008 13.7394 15.8008C14.5678 15.8008 15.2394 15.1292 15.2394 14.3008C15.2394 13.4724 14.5678 12.8008 13.7394 12.8008Z" fill="#008ECC"/>
</svg>
