<svg width="14" height="14" viewBox="0 0 14 14" fill="none" xmlns="http://www.w3.org/2000/svg">
<path d="M6.1669 13.6666C5.93079 13.6666 5.73287 13.5867 5.57315 13.427C5.41342 13.2673 5.33356 13.0694 5.33356 12.8333V7.83325L0.50023 1.66659C0.291896 1.38881 0.260646 1.09714 0.40648 0.791585C0.552313 0.48603 0.805785 0.333252 1.1669 0.333252H12.8336C13.1947 0.333252 13.4481 0.48603 13.594 0.791585C13.7398 1.09714 13.7086 1.38881 13.5002 1.66659L8.6669 7.83325V12.8333C8.6669 13.0694 8.58704 13.2673 8.42731 13.427C8.26759 13.5867 8.06967 13.6666 7.83356 13.6666H6.1669ZM7.00023 7.24992L11.1252 1.99992H2.87523L7.00023 7.24992Z" fill="#008ECC"/>
</svg>
