<?xml version="1.0" encoding="utf-8"?>
<!-- Generator: Adobe Illustrator 24.3.0, SVG Export Plug-In . SVG Version: 6.00 Build 0)  -->
<svg version="1.1" id="Layer_1" xmlns="http://www.w3.org/2000/svg" x="0px"
     y="0px"
     viewBox="0 0 1000 1000" style="enable-background:new 0 0 1000 1000;" xml:space="preserve">
<style type="text/css">
	.st0{clip-path:url(#SVGID_2_);fill:url(#SVGID_3_);}
	.st1{clip-path:url(#SVGID_5_);fill:url(#SVGID_6_);}
	.st2{clip-path:url(#SVGID_8_);fill:url(#SVGID_9_);}
	.st3{clip-path:url(#SVGID_11_);fill:url(#SVGID_12_);}
	.st4{clip-path:url(#SVGID_14_);fill:url(#SVGID_15_);}
	.st5{clip-path:url(#SVGID_17_);fill:#929497;}
	.st6{clip-path:url(#SVGID_17_);fill:#44813D;}
	.st7{clip-path:url(#SVGID_17_);fill:#F19B49;}
	.st8{clip-path:url(#SVGID_19_);fill:url(#SVGID_20_);}
	.st9{clip-path:url(#SVGID_22_);fill:url(#SVGID_23_);}
	.st10{clip-path:url(#SVGID_25_);fill:url(#SVGID_26_);}
	.st11{clip-path:url(#SVGID_28_);fill:url(#SVGID_29_);}
	.st12{clip-path:url(#SVGID_31_);fill:url(#SVGID_32_);}
	.st13{clip-path:url(#SVGID_34_);fill:url(#SVGID_35_);}
	.st14{clip-path:url(#SVGID_37_);fill:url(#SVGID_38_);}
	.st15{fill:url(#SVGID_39_);}
	.st16{fill:url(#SVGID_40_);}
	.st17{fill:url(#SVGID_41_);}
	.st18{fill:#FFFFFF;}
	.st19{fill:none;stroke:url(#SVGID_42_);stroke-width:8;stroke-miterlimit:10;}
	.st20{fill:none;stroke:url(#SVGID_43_);stroke-width:8;stroke-miterlimit:10;}
	.st21{fill:url(#SVGID_44_);}
	.st22{fill:url(#SVGID_45_);}
</style>
    <g>
	<linearGradient id="SVGID_2_" gradientUnits="userSpaceOnUse" x1="284.8353" y1="500" x2="715.1647" y2="500">
		<stop offset="0" style="stop-color:#00ADEE"/>
        <stop offset="1" style="stop-color:#1B75BB"/>
	</linearGradient>
        <path style="fill:none;stroke:url(#SVGID_2_);stroke-width:8;stroke-miterlimit:10;" d="M288.84,588.18V411.82
		c0-61.36,49.74-111.11,111.11-111.11h200.12c61.36,0,111.11,49.74,111.11,111.11v176.36c0,61.36-49.74,111.11-111.11,111.11H399.94
		C338.58,699.28,288.84,649.54,288.84,588.18z"/>
        <linearGradient id="SVGID_3_" gradientUnits="userSpaceOnUse" x1="291.8851" y1="500.0002" x2="708.1151"
                        y2="500.0002">
		<stop offset="0" style="stop-color:#00ADEE"/>
            <stop offset="1" style="stop-color:#1B75BB"/>
	</linearGradient>
        <path style="fill:none;stroke:url(#SVGID_3_);stroke-width:8;stroke-miterlimit:10;" d="M603.01,692.24H396.99
		c-55.61,0-101.11-45.5-101.11-101.11V408.87c0-55.61,45.5-101.11,101.11-101.11h206.02c55.61,0,101.11,45.5,101.11,101.11v182.26
		C704.12,646.74,658.62,692.24,603.01,692.24z"/>
        <g>
		<linearGradient id="SVGID_5_" gradientUnits="userSpaceOnUse" x1="347.715" y1="501.187" x2="652.2852"
                        y2="501.187">
			<stop offset="0" style="stop-color:#00ADEE"/>
            <stop offset="1" style="stop-color:#1B75BB"/>
		</linearGradient>
            <path style="fill:url(#SVGID_5_);" d="M379.18,592.16c1.57-3.7,3.01-7.13,4.5-10.54c1.57-3.6,3.31-7.13,4.73-10.78
			c0.35-0.91,0.07-2.38-0.46-3.27c-5.49-9.14-9.42-18.96-12.95-28.96c-0.09-0.26-0.22-0.53-0.21-0.79c0.16-6.39-4.05-8.67-9.3-10.3
			c-4.09-1.26-8.08-2.89-12.02-4.59c-3.88-1.67-5.83-4.6-5.75-9.05c0.16-8.87,0.03-17.74,0.02-26.61c0-4.1,1.98-6.95,5.74-8.43
			c5.26-2.06,10.41-4.44,15.78-6.19c3.38-1.1,4.2-3.54,5.21-6.36c2.78-7.8,5.64-15.58,8.73-23.27c1.22-3.03,3.28-5.71,4.63-8.7
			c0.54-1.21,0.65-3.02,0.16-4.23c-2.26-5.58-4.77-11.07-7.26-16.56c-1.83-4.04-0.92-7.41,2.14-10.46
			c6.09-6.06,12.12-12.18,18.19-18.26c4.04-4.05,7.71-4.62,12.93-2.16c5.04,2.37,10.08,4.78,15.24,6.86
			c1.16,0.47,3.08,0.04,4.25-0.64c8.54-5.04,17.57-8.94,26.99-11.99c2.43-0.79,4.96-1.31,7.28-2.33c1.26-0.56,2.65-1.72,3.16-2.95
			c2.33-5.55,4.39-11.22,6.52-16.86c1.25-3.32,4.66-5.72,8.23-5.73c9.15-0.01,18.29,0,27.44,0c4.22,0,7.44,2.25,8.96,6.29
			c1.74,4.62,3.8,9.15,5.12,13.88c1.13,4.04,3.74,5.83,7.39,6.67c10.89,2.51,20.89,7.17,30.46,12.77c2.48,1.45,4.34,1.36,6.81,0.16
			c5.25-2.54,10.63-4.83,16.05-7c3.47-1.39,6.65-0.48,9.3,2.16c6.48,6.45,12.96,12.9,19.41,19.38c2.97,2.98,3.6,6.41,1.82,10.3
			c-2.54,5.56-5.06,11.13-7.42,16.78c-0.42,1.01-0.44,2.63,0.1,3.52c5.5,9.03,9.44,18.74,12.91,28.67c0.24,0.69,0.55,1.41,0.55,2.11
			c-0.01,5.56,3.64,7.55,8.22,9.07c4.84,1.61,9.67,3.4,14.19,5.73c3.17,1.64,5.32,4.54,5.29,8.57c-0.07,8.32-0.16,16.65,0.05,24.97
			c0.1,4.05-1.79,6.94-4.86,8.76c-3.41,2.03-7.29,3.3-10.99,4.83c-2.36,0.98-4.71,2.04-7.15,2.73c-2.58,0.72-3.69,2.42-4.25,4.82
			c-2.62,11.3-7.11,21.85-13.1,31.74c-1.43,2.36-1.7,4.26-0.44,6.82c2.54,5.16,4.64,10.53,7.04,15.76c1.73,3.78,0.83,7.01-1.89,9.79
			c-6.39,6.53-12.82,13.03-19.37,19.41c-2.72,2.65-5.98,3.78-9.79,2.07c-5.42-2.43-10.92-4.66-16.28-7.21
			c-2.03-0.97-3.55-1.08-5.56,0.15c-9.87,6.04-20.41,10.57-31.65,13.39c-3.23,0.81-5.5,2.19-6.54,5.73c-1.44,4.9-3.5,9.61-5.29,14.4
			c-1.59,4.24-5.72,7.12-10.17,7.12c-8.41-0.01-16.83-0.01-25.24-0.01c-3.71,0-7.92-2.8-9.29-6.32c-2.13-5.44-4.32-10.86-6.25-16.38
			c-0.76-2.17-2.04-3.31-4.11-3.95c-4.95-1.54-10.04-2.8-14.79-4.83c-6.45-2.75-12.69-6.04-18.93-9.27
			c-1.71-0.88-2.97-1.12-4.81-0.25c-5.52,2.62-11.19,4.93-16.77,7.44c-3.67,1.65-6.93,0.73-9.59-1.84
			c-6.83-6.61-13.55-13.34-20.13-20.2C380.73,596.33,380.18,594.15,379.18,592.16z M600.85,589.79c-0.36-1.14-0.55-2.04-0.92-2.87
			c-2.14-4.84-4.32-9.67-6.5-14.49c-1.22-2.68-1.19-5.32,0.23-7.9c0.79-1.44,1.63-2.86,2.51-4.25c7.2-11.41,11.89-23.84,14.72-36.96
			c0.8-3.72,3.05-5.75,6.19-7.03c5.06-2.07,10.21-3.95,15.36-5.8c1.75-0.63,2.41-1.67,2.38-3.48c-0.08-3.75-0.21-7.51,0.04-11.25
			c0.18-2.71-0.96-4.06-3.31-4.91c-5.06-1.83-10.14-3.62-15.11-5.69c-2.74-1.14-4.78-3.08-5.45-6.35
			c-0.91-4.46-2.02-8.91-3.46-13.23c-3.25-9.75-7.81-18.91-13.37-27.54c-1.92-2.99-2.01-5.94-0.57-9.1
			c2.2-4.82,4.29-9.68,6.53-14.48c0.92-1.98,0.92-3.56-0.79-5.17c-2.93-2.76-5.78-5.61-8.52-8.55c-1.31-1.41-2.49-1.42-4.11-0.67
			c-5.13,2.38-10.37,4.55-15.48,6.99c-2.94,1.4-5.56,1.09-8.35-0.38c-7.66-4.03-15.26-8.2-23.12-11.8
			c-4.26-1.95-8.93-3.26-13.55-4.09c-6.5-1.18-10.74-4.23-12.57-10.81c-1.19-4.29-3.05-8.41-4.9-12.48
			c-0.43-0.95-1.97-1.92-3.05-1.98c-4.01-0.24-8.05-0.25-12.06-0.02c-1.09,0.06-2.65,1.01-3.09,1.97
			c-1.84,3.97-3.64,8.01-4.87,12.19c-1.74,5.89-5.07,9.32-11.25,10.9c-7.73,1.98-15.33,4.65-22.71,7.71
			c-5.36,2.22-10.18,5.72-15.43,8.26c-1.97,0.95-4.79,1.69-6.68,1.01c-5.83-2.08-11.42-4.83-17.04-7.47
			c-1.56-0.73-2.69-0.77-3.92,0.48c-2.95,3-5.92,5.98-8.94,8.91c-1.46,1.42-1.64,2.89-0.79,4.7c2.26,4.79,4.48,9.59,6.62,14.44
			c1.44,3.27,1.58,6.53-0.6,9.64c-0.84,1.19-1.48,2.52-2.25,3.76c-6.91,11.13-11.58,23.18-14.27,35.95
			c-0.83,3.92-2.96,6.08-6.43,7.41c-4.85,1.86-9.68,3.8-14.55,5.61c-2.29,0.85-3.28,2.19-3.11,4.74c0.23,3.37,0.24,6.78-0.02,10.14
			c-0.21,2.79,0.88,4.14,3.41,5.02c4.74,1.65,9.41,3.52,14.09,5.35c3.52,1.37,5.96,3.55,6.63,7.62c0.67,4.04,1.64,8.08,3.01,11.94
			c3.43,9.66,7.7,18.95,13.4,27.51c2.2,3.3,2.16,6.65,0.54,10.14c-2.11,4.56-4.17,9.14-6.26,13.72c-0.88,1.92-0.88,3.62,0.79,5.23
			c3.02,2.92,5.86,6.04,8.95,8.89c0.68,0.63,2.29,0.96,3.12,0.61c4.37-1.84,8.71-3.8,12.91-6c4.8-2.52,9.25-2.89,13.77,0.63
			c2,1.56,4.34,2.71,6.61,3.9c9.08,4.77,18.39,8.87,28.59,10.75c4.99,0.92,9.24,2.91,10.91,8.59c1.43,4.88,3.53,9.58,5.61,14.23
			c0.47,1.04,2.05,2.16,3.18,2.23c4.1,0.26,8.23,0.22,12.33-0.04c1.05-0.07,2.51-1.15,2.94-2.14c1.97-4.51,4.02-9.04,5.34-13.76
			c1.75-6.26,6.56-7.82,11.9-9.39c7.15-2.11,14.31-4.33,21.16-7.24c5.6-2.38,10.77-5.78,16.09-8.81c2.33-1.33,4.58-1.53,7.05-0.4
			c5.23,2.38,10.51,4.65,15.78,6.97c1.41,0.62,2.76,1.48,4.23-0.05c3.03-3.17,6.18-6.24,9.21-9.41
			C600.19,591.33,600.49,590.44,600.85,589.79z"/>
            <g>
			<linearGradient id="SVGID_6_" gradientUnits="userSpaceOnUse" x1="424.5019" y1="501.187" x2="575.4984"
                            y2="501.187">
				<stop offset="0" style="stop-color:#00ADEE"/>
                <stop offset="1" style="stop-color:#1B75BB"/>
			</linearGradient>
                <path style="fill:url(#SVGID_6_);" d="M424.5,429.02c6.82,0,13.64,0,20.46,0.01c2.66,0.01,4.23,1.34,4.9,4.18
				c1.01,4.32,1.95,8.65,2.92,12.98c0.13,0.6,0.29,1.2,0.48,2.02c0.69,0,1.4,0,2.11,0c38.11,0,76.22,0,114.33-0.01
				c1.69,0,3.26,0.18,4.48,1.49c1.45,1.56,1.57,3.34,1,5.33c-3.32,11.48-6.61,22.98-9.89,34.48c-2.93,10.26-5.84,20.52-8.77,30.78
				c-1.16,4.05-2.42,5-6.59,5c-27.94,0-55.87,0-83.81,0.01c-0.84,0-1.7-0.02-2.52,0.11c-2.41,0.38-4.12,2.47-4.05,4.85
				c0.07,2.39,1.89,4.37,4.31,4.64c0.67,0.07,1.35,0.04,2.02,0.04c28.05,0,56.1,0,84.15,0c0.73,0,1.47-0.04,2.19,0.08
				c2.38,0.39,4.14,2.55,4.06,4.88c-0.08,2.43-1.94,4.45-4.5,4.65c-1.9,0.15-3.82,0.05-5.73,0.07c-0.39,0-0.77,0-1.23,0.14
				c3.95,1.15,7.15,3.27,9.28,6.81c2.17,3.6,2.74,7.45,1.53,11.49c-2.07,6.91-8,10.81-15.47,10.27c-5.99-0.43-11.6-5.66-12.52-11.66
				c-1.21-7.89,2.33-13.22,11.41-16.96c-20.8,0-41.41,0-62.01,0c3.83,1.15,6.98,3.23,9.13,6.63c2.17,3.43,2.86,7.2,1.82,11.14
				c-1.93,7.32-7.97,11.44-15.7,10.85c-6.53-0.49-11.87-5.96-12.64-13.06c-0.61-5.67,2.66-13.17,11.36-15.37
				c0-0.16,0.01-0.32,0.01-0.48c-2.8,0-5.61,0.19-8.39-0.04c-5.99-0.5-11.12-5.24-12.41-11.19c-1.32-6.07,1.52-12.54,6.97-15.5
				c1.18-0.64,1.35-1.23,1.07-2.47c-5.6-25.04-11.15-50.09-16.68-75.14c-0.27-1.25-0.8-1.57-2.02-1.56
				c-4.95,0.03-9.89,0.05-14.84,0.04"/>
		</g>
	</g>
</g>
</svg>
