<svg width="101" height="100" viewBox="0 0 101 100" fill="none" xmlns="http://www.w3.org/2000/svg">
    <path fill-rule="evenodd" clip-rule="evenodd"
          d="M65.0096 71.5807L28.9193 35.4904C22.1056 45.6008 23.1709 59.4405 32.1152 68.3848C41.0595 77.3291 54.8992 78.3944 65.0096 71.5807ZM72.0807 64.5096C78.8944 54.3992 77.8291 40.5595 68.8848 31.6152C59.9405 22.6709 46.1008 21.6056 35.9904 28.4193L72.0807 64.5096ZM75.9558 24.5442C90.0147 38.603 90.0147 61.397 75.9558 75.4558C61.897 89.5147 39.103 89.5147 25.0442 75.4558C10.9853 61.397 10.9853 38.603 25.0442 24.5442C39.103 10.4853 61.897 10.4853 75.9558 24.5442Z"
          fill="#008ECC"/>
</svg>
