<svg width="24" height="25" viewBox="0 0 24 25" fill="none" xmlns="http://www.w3.org/2000/svg">
<g clip-path="url(#clip0_3229_34609)">
<path d="M9 11.5V4.5C9 3.94772 9.44772 3.5 10 3.5H19.6667H20C20.5523 3.5 21 3.94772 21 4.5V20.5C21 21.0523 20.5523 21.5 20 21.5H18.5" stroke="white" stroke-width="2" stroke-linecap="round" stroke-linejoin="round"/>
<path d="M13 9H17" stroke="white" stroke-width="2" stroke-linecap="round"/>
<path d="M8 14.5H10" stroke="white" stroke-width="2" stroke-linecap="round"/>
<path d="M9 15.5L9 16.5" stroke="white" stroke-width="2" stroke-linecap="round"/>
<path d="M14 21.5C14 20.1739 13.4732 18.9021 12.5355 17.9645C11.5979 17.0268 10.3261 16.5 9 16.5C7.67392 16.5 6.40215 17.0268 5.46447 17.9645C4.52678 18.9021 4 20.1739 4 21.5L9 21.5H14Z" stroke="white" stroke-width="2"/>
<path d="M3 21.5H15" stroke="white" stroke-width="2" stroke-linecap="round"/>
</g>
<defs>
<clipPath id="clip0_3229_34609">
<rect width="24" height="24" fill="white" transform="translate(0 0.5)"/>
</clipPath>
</defs>
</svg>
