<svg width="48" height="48" viewBox="0 0 48 48" fill="none" xmlns="http://www.w3.org/2000/svg">
<path d="M42.75 40.5V42.75H5.25V40.5C5.25 40.0875 5.5875 39.75 6 39.75H42C42.4125 39.75 42.75 40.0875 42.75 40.5ZM42.75 16.095V17.0625C42.75 19.65 38.745 19.7025 38.6775 17.115C38.6625 14.925 38.3925 13.125 37.185 11.25H40.17L41.355 12.525C42.2516 13.4977 42.7496 14.7721 42.75 16.095ZM39.75 20.46V38.25H19.5V25.5C19.5 24.675 18.825 24 18 24H12C11.175 24 10.5 24.675 10.5 25.5V38.25H8.25V20.46C8.97188 20.2563 9.6102 19.8282 10.0725 19.2375C11.4675 21.0225 14.25 21.0225 15.645 19.2375C17.04 21.0225 19.8225 21.0225 21.2175 19.2375C22.605 21.0225 25.3875 21.0225 26.7825 19.2375C28.1775 21.0225 30.96 21.0225 32.355 19.2375C33.75 21.0225 36.5325 21.0225 37.9275 19.2375C38.3898 19.8282 39.0281 20.2563 39.75 20.46ZM37.5 30V25.5C37.5 24.675 36.825 24 36 24H24C23.175 24 22.5 24.675 22.5 25.5V30C22.5 30.825 23.175 31.5 24 31.5H36C36.825 31.5 37.5 30.825 37.5 30ZM39.75 7.5V9.75H8.25V7.5C8.25 6.255 9.255 5.25 10.5 5.25H37.5C38.745 5.25 39.75 6.255 39.75 7.5Z" fill="#B5B5B5"/>
<path d="M36.855 13.905C37.185 14.94 37.17 15.99 37.1775 17.0625C37.17 19.665 33.15 19.695 33.105 17.0925C33.2175 15.09 32.9325 13.11 32.175 11.25H35.385C35.94 12.0975 36.5475 12.93 36.855 13.905ZM25.7025 11.25C25.9725 13.1775 26.085 15.12 26.0325 17.0625C26.0325 19.6875 21.9675 19.6875 21.9675 17.0625C21.915 15.12 22.0275 13.1775 22.2975 11.25H25.7025ZM17.4375 11.25H20.79C20.5275 13.1775 20.415 15.12 20.4675 17.055V17.0625C20.4675 19.6875 16.395 19.6875 16.395 17.0625C16.245 15.0675 16.605 13.065 17.4375 11.25ZM12.615 11.25H15.825C15.0675 13.11 14.79 15.09 14.895 17.0925C14.85 19.695 10.83 19.665 10.8225 17.07V17.0625C10.83 15.99 10.815 14.94 11.145 13.905C11.4525 12.93 12.06 12.0975 12.615 11.25ZM7.83 11.25H10.815C9.84 12.6375 9.315 14.2875 9.3225 15.9825V17.0625C9.3225 19.6875 5.25 19.6875 5.25 17.0625V16.095C5.25 14.7675 5.7525 13.4925 6.645 12.525L7.83 11.25ZM30.5625 11.25H27.21C27.4725 13.1775 27.585 15.12 27.5325 17.055V17.0625C27.5325 19.6875 31.605 19.6875 31.605 17.0625C31.755 15.0675 31.395 13.065 30.5625 11.25Z" fill="#B5B5B5"/>
</svg>
