<svg width="42" height="42" viewBox="0 0 42 42" fill="none" xmlns="http://www.w3.org/2000/svg">
    <g id="Frame 1171275014">
        <rect width="42" height="42" rx="21" fill="#ECF3F8"/>
        <g id="Group">
            <path id="Vector"
                  d="M28.3325 26.5942L21.6409 28.3341C21.2273 28.4417 20.7934 28.4438 20.3788 28.3405L13.3195 26.5802C12.2001 26.3011 11.4144 25.2955 11.4144 24.1417V16.4292C11.4144 11.6641 15.2773 7.80127 20.0424 7.80127H21.5853C26.3504 7.80127 30.2133 11.6641 30.2133 16.4292V24.1619C30.2133 25.3063 29.4401 26.3061 28.3325 26.5942Z"
                  fill="#1A1A1A"/>
            <path id="Vector_2"
                  d="M21.5849 7.80127H20.042C19.6544 7.80127 19.273 7.82725 18.8989 7.87675C23.1237 8.43602 26.3839 12.0517 26.3839 16.4292V24.1619C26.3839 25.3063 25.6108 26.3062 24.5032 26.5942L19.0557 28.0107L20.3784 28.3405C20.793 28.4439 21.227 28.4417 21.6405 28.3341L28.3322 26.5942C29.4398 26.3061 30.2129 25.3063 30.2129 24.1618V16.4292C30.2128 11.6641 26.35 7.80127 21.5849 7.80127Z"
                  fill="#686868"/>
            <path id="Vector_3"
                  d="M11.8134 21.8155H13.6442V17.3456H11.8134C11.2755 17.3456 10.8395 17.7816 10.8395 18.3195V20.8415C10.8395 21.3795 11.2755 21.8155 11.8134 21.8155ZM30.1824 21.8155H28.3516V17.3456H30.1824C30.7203 17.3456 31.1563 17.7816 31.1563 18.3195V20.8415C31.1563 21.3795 30.7203 21.8155 30.1824 21.8155Z"
                  fill="#008ECC"/>
            <path id="Vector_4"
                  d="M25.132 29.6148C24.8215 29.5524 24.5421 29.3844 24.3414 29.1393C24.1407 28.8942 24.0311 28.5873 24.0311 28.2705V25.1797H17.965V28.2705C17.965 28.5873 17.8553 28.8942 17.6546 29.1393C17.4539 29.3844 17.1746 29.5524 16.864 29.6148L16.125 29.7634V34.7268H25.871V29.7634L25.132 29.6148Z"
                  fill="#FED9A8"/>
            <path id="Vector_5"
                  d="M31.447 31.2813L25.3635 29.3845C25.2708 29.3556 25.172 29.3519 25.0774 29.3739C24.9827 29.3959 24.8957 29.4427 24.8251 29.5095L20.998 33.1364L17.1709 29.5096C17.1004 29.4427 17.0133 29.3959 16.9187 29.374C16.8241 29.352 16.7253 29.3557 16.6325 29.3846L10.549 31.2814C7.85188 32.0755 6 34.5513 6 37.363V41.4158C6 41.5707 6.06155 41.7193 6.1711 41.8289C6.28066 41.9384 6.42925 42 6.58418 42H35.4119C35.5669 42 35.7155 41.9384 35.825 41.8289C35.9346 41.7193 35.9961 41.5707 35.9961 41.4158V37.363C35.996 34.5513 34.1442 32.0755 31.447 31.2813Z"
                  fill="#008ECC"/>
            <path id="Vector_6"
                  d="M31.4471 31.2813L25.3636 29.3845C25.2709 29.3556 25.1721 29.3519 25.0774 29.3739C24.9828 29.3959 24.8957 29.4427 24.8252 29.5095L24.1099 30.1875L27.6182 31.2813C30.3153 32.0755 32.1672 34.5513 32.1672 37.3629V41.9999H35.412C35.567 41.9999 35.7155 41.9384 35.8251 41.8288C35.9347 41.7193 35.9962 41.5707 35.9962 41.4157V37.3629C35.9961 34.5513 34.1443 32.0755 31.4471 31.2813Z"
                  fill="#023259"/>
            <path id="Vector_7"
                  d="M20.9981 27.7497C16.8227 27.7497 13.4379 24.3648 13.4379 20.1894V18.0648C13.4379 13.8894 16.8227 10.5045 20.9981 10.5045C25.1735 10.5045 28.5584 13.8894 28.5584 18.0648V20.1894C28.5584 24.3649 25.1736 27.7497 20.9981 27.7497Z"
                  fill="#FED9A8"/>
            <path id="Vector_8"
                  d="M24.7295 11.4883V20.1894C24.7295 23.7033 22.3321 26.6571 19.0837 27.5049C19.7088 27.6678 20.3522 27.7501 20.9982 27.7497C25.1737 27.7497 28.5585 24.3648 28.5585 20.1894V18.0648C28.5585 15.2464 27.0161 12.7885 24.7295 11.4883Z"
                  fill="#F4C892"/>
            <path id="Vector_9"
                  d="M17.1708 29.5096L20.9979 33.1364L18.6377 33.9405C18.3549 34.0368 18.0499 34.047 17.7613 33.9698C17.4728 33.8926 17.2136 33.7314 17.0167 33.5067L14.0974 30.175L16.6325 29.3846C16.7252 29.3557 16.824 29.352 16.9186 29.374C17.0133 29.396 17.1003 29.4428 17.1708 29.5096ZM24.8251 29.5096L20.9979 33.1364L23.1371 33.8651C23.4853 33.9838 23.8609 33.9963 24.2162 33.9012C24.5715 33.8062 24.8906 33.6077 25.1331 33.3311L27.8985 30.175L25.3634 29.3846C25.2707 29.3557 25.1719 29.352 25.0773 29.374C24.9826 29.396 24.8956 29.4428 24.8251 29.5096Z"
                  fill="#06477D"/>
            <path id="Vector_10"
                  d="M16.4819 39.0001H12.5906C12.4868 39.0001 12.3873 38.9589 12.3139 38.8855C12.2406 38.8121 12.1993 38.7126 12.1993 38.6089V36.8853C12.1993 36.7815 12.2406 36.682 12.3139 36.6087C12.3873 36.5353 12.4868 36.4941 12.5906 36.4941H16.4819C16.5856 36.4941 16.6851 36.5353 16.7585 36.6087C16.8319 36.682 16.8731 36.7815 16.8731 36.8853V38.6089C16.8731 38.7126 16.8319 38.8121 16.7585 38.8855C16.6851 38.9589 16.5856 39.0001 16.4819 39.0001Z"
                  fill="#EDA558"/>
            <path id="Vector_11"
                  d="M30.2133 18.0229C30.2133 18.0229 26.9515 17.764 25.8353 14.7637C25.8353 14.7637 17.9503 21.0765 11.4144 18.0229V16.4292C11.4144 11.6641 15.2774 7.80127 20.0425 7.80127H21.5854C26.3505 7.80127 30.2133 11.6641 30.2133 16.4292V18.0229Z"
                  fill="#1A1A1A"/>
            <path id="Vector_12"
                  d="M21.5849 7.80127H20.042C19.6544 7.80127 19.273 7.82725 18.8989 7.87675C22.916 8.4085 26.0608 11.7037 26.3603 15.7895C27.7358 17.8259 30.2128 18.0229 30.2128 18.0229V16.4292C30.2128 11.6641 26.35 7.80127 21.5849 7.80127Z"
                  fill="#686868"/>
            <path id="Vector_13"
                  d="M32.1052 36.2447C31.9682 36.2447 31.8368 36.2991 31.7399 36.396C31.643 36.4929 31.5886 36.6243 31.5886 36.7613V42H32.6217V36.7612C32.6217 36.6934 32.6084 36.6262 32.5824 36.5635C32.5565 36.5009 32.5184 36.4439 32.4704 36.396C32.4225 36.348 32.3655 36.3099 32.3029 36.284C32.2402 36.258 32.173 36.2447 32.1052 36.2447ZM9.8911 36.2447C9.75409 36.2447 9.6227 36.2991 9.52582 36.396C9.42894 36.4929 9.37451 36.6243 9.37451 36.7613V42H10.4076V36.7612C10.4076 36.6242 10.3532 36.4928 10.2563 36.396C10.1595 36.2991 10.0281 36.2447 9.8911 36.2447Z"
                  fill="#06477D"/>
            <path id="Vector_14"
                  d="M28.7691 21.8155V22.7578C28.7698 23.1502 28.6314 23.5302 28.3785 23.8303C28.1255 24.1303 27.7743 24.3309 27.3874 24.3965L22.1893 25.2879C22.1225 25.2993 22.0586 25.3238 22.0012 25.36C21.9439 25.3961 21.8943 25.4432 21.8551 25.4985C21.816 25.5539 21.7881 25.6164 21.7731 25.6825C21.7582 25.7486 21.7563 25.817 21.7678 25.8838C21.7792 25.9506 21.8037 26.0145 21.8399 26.0718C21.876 26.1291 21.9231 26.1788 21.9784 26.2179C22.0338 26.2571 22.0963 26.2849 22.1624 26.2999C22.2285 26.3149 22.2969 26.3167 22.3637 26.3052L27.5618 25.4139C28.1889 25.3076 28.7581 24.9824 29.1681 24.4961C29.5781 24.0098 29.8024 23.3939 29.8012 22.7578V21.8155H28.7691Z"
                  fill="#008ECC"/>
            <path id="Vector_15"
                  d="M22.3461 26.8097C21.8686 26.8097 21.4463 26.4662 21.3629 25.9797C21.2697 25.4361 21.6348 24.9198 22.1784 24.8266L23.8624 24.5378C24.4061 24.4444 24.9223 24.8096 25.0156 25.3533C25.1088 25.8968 24.7437 26.4132 24.2001 26.5064L22.5161 26.7952C22.459 26.805 22.4021 26.8097 22.3461 26.8097Z"
                  fill="#008ECC"/>
        </g>
    </g>
</svg>
