<svg width="101" height="101" viewBox="0 0 101 101" fill="none" xmlns="http://www.w3.org/2000/svg">
<path d="M68 10.5H33C28.875 10.5 25.5 13.875 25.5 18V83C25.5 87.125 28.875 90.5 33 90.5H68C72.125 90.5 75.5 87.125 75.5 83V18C75.5 13.875 72.125 10.5 68 10.5ZM40.5 15.25C40.5 14.6977 40.9477 14.25 41.5 14.25H59.5C60.0523 14.25 60.5 14.6977 60.5 15.25V15.75C60.5 16.3023 60.0523 16.75 59.5 16.75H50.5H41.5C40.9477 16.75 40.5 16.3023 40.5 15.75V15.25ZM50.5 85.5C49.1739 85.5 47.9021 84.9732 46.9645 84.0355C46.0268 83.0978 45.5 81.8261 45.5 80.5C45.5 79.1739 46.0268 77.9022 46.9645 76.9645C47.9021 76.0268 49.1739 75.5 50.5 75.5C51.8261 75.5 53.0979 76.0268 54.0355 76.9645C54.9732 77.9022 55.5 79.1739 55.5 80.5C55.5 81.8261 54.9732 83.0978 54.0355 84.0355C53.0979 84.9732 51.8261 85.5 50.5 85.5ZM70.5 66.5C70.5 68.7091 68.7091 70.5 66.5 70.5H34.5C32.2909 70.5 30.5 68.7091 30.5 66.5V24.5C30.5 22.2909 32.2909 20.5 34.5 20.5H66.5C68.7091 20.5 70.5 22.2909 70.5 24.5V66.5Z" fill="#008ECC"/>
</svg>
