<svg width="67" height="89" viewBox="0 0 67 89" fill="none" xmlns="http://www.w3.org/2000/svg">
    <path d="M25.6921 77.0402C23.5798 77.0402 21.8768 78.7432 21.8768 80.8555C21.8768 82.9679 23.5798 84.6709 25.6921 84.6709C27.8045 84.6709 29.5075 82.9679 29.5075 80.8555C29.5075 78.7596 27.8045 77.0402 25.6921 77.0402ZM25.6921 82.6077C24.7261 82.6077 23.9564 81.8217 23.9564 80.8719C23.9564 79.9058 24.7424 79.1362 25.6921 79.1362C26.6583 79.1362 27.4279 79.9222 27.4279 80.8719C27.4279 81.8217 26.6583 82.6077 25.6921 82.6077Z"
          fill="#D61C4E"/>
    <path d="M65.4175 49.514C64.4186 48.4987 62.9285 48.0894 61.5203 48.4496C61.1109 48.5479 60.7343 48.728 60.3904 48.9572C59.8828 47.287 58.3599 46.0753 56.526 46.0753C55.74 46.0753 55.0031 46.3045 54.3645 46.7139C53.8569 45.06 52.334 43.8319 50.5 43.8319C49.7795 43.8319 49.1245 44.0448 48.535 44.3559V38.9358H61.553C62.1262 38.9358 62.601 38.461 62.601 37.8878V23.347C62.601 22.7738 62.1262 22.299 61.553 22.299H51.3679V7.13587C51.3679 3.50065 48.404 0.536804 44.7688 0.536804H6.59904C2.96382 0.536804 -1.52588e-05 3.50065 -1.52588e-05 7.13587V82.1654C-1.52588e-05 85.8006 2.96382 88.7645 6.59904 88.7645H44.7852C48.4204 88.7645 51.3843 85.8006 51.3843 82.1654V82.0836H58.2617C61.2092 82.0836 63.5999 79.6928 63.5999 76.7454C63.5999 75.3699 63.8291 74.0108 64.2549 72.7171L65.8596 67.9029C66.3672 66.3801 66.6129 64.8081 66.6129 63.2361V52.3305C66.6129 51.2661 66.1708 50.2345 65.4175 49.514ZM60.5378 36.8562H48.0438C47.356 35.6117 46.0297 34.7275 44.5068 34.7275C42.984 34.7275 41.6576 35.5954 40.9699 36.8562H16.6532V24.4113H60.5378V36.8562ZM34.731 2.64915V6.661C34.731 6.8575 34.5837 7.00487 34.3872 7.00487H17.0134C16.817 7.00487 16.6696 6.8575 16.6696 6.661V2.64915H34.731ZM2.07959 7.15224C2.07959 4.66326 4.11006 2.63278 6.59904 2.63278H14.5572V6.64462C14.5572 7.97098 15.6543 9.0681 16.9807 9.0681H34.3708C35.6972 9.0681 36.7943 7.97099 36.7943 6.64462V2.63278H44.7524C47.2414 2.63278 49.2719 4.66326 49.2719 7.15224V22.3154H15.5889C15.0157 22.3154 14.5408 22.7902 14.5408 23.3633V37.9042C14.5408 38.4773 15.0157 38.9522 15.5889 38.9522H40.4295V55.4253C38.5628 54.2136 36.4995 53.5586 35.1077 53.2474C34.076 53.0182 33.0444 53.1165 32.1929 53.5258C31.2268 54.0007 30.8993 54.6721 30.8011 55.1469C30.5718 56.2113 31.3087 57.1119 31.4725 57.2757C35.4515 61.0255 36.4832 64.235 36.4832 64.235C37.0072 67.2152 39.0704 69.5568 40.6915 70.9814C41.3792 71.5873 41.936 72.2423 42.3945 72.9464H2.04684L2.07959 7.15224ZM44.7852 86.7012H6.59904C4.11006 86.7012 2.07957 84.6708 2.07957 82.1818V75.026H43.377C43.5079 75.3699 43.6226 75.7137 43.7208 76.074C43.8682 76.6144 43.9828 77.1384 44.0647 77.6296C44.5232 80.2168 46.7011 82.0836 49.2719 82.0836V82.1654C49.3047 84.6708 47.2905 86.7012 44.7852 86.7012ZM64.5332 63.2688C64.5332 64.6116 64.304 65.9707 63.8783 67.2807L62.2735 72.0949C61.7659 73.6014 61.5039 75.1897 61.5039 76.7945C61.5039 78.5793 60.0466 80.0531 58.2453 80.0531H49.321C47.749 80.0531 46.4227 78.9068 46.1443 77.3185C46.0461 76.7617 45.9151 76.1722 45.7513 75.5663C45.5712 74.8786 45.3419 74.2236 45.08 73.6014C44.4577 72.0621 43.4425 70.6703 42.067 69.4422C40.9371 68.4597 38.9885 66.4128 38.5136 63.7765C38.4645 63.6291 37.3674 59.9939 32.9626 55.851C32.9298 55.8019 32.8316 55.6382 32.8316 55.6054C32.8316 55.6054 32.8807 55.5236 33.1099 55.4089C33.5357 55.1961 34.076 55.1633 34.6328 55.2779C36.2212 55.6545 40.0856 56.8172 41.7886 59.6172C42.0833 60.1085 42.722 60.2722 43.2132 59.9611C43.7045 59.6664 43.8682 59.0114 43.5571 58.5365C43.246 58.0289 42.8857 57.5868 42.5091 57.1774V38.8048C42.5091 37.7241 43.377 36.8398 44.4741 36.8398C45.5712 36.8398 46.4391 37.7077 46.4391 38.8048V54.0825C46.4391 54.6557 46.9139 55.1306 47.487 55.1306C48.0602 55.1306 48.535 54.6557 48.535 54.0825V48.6789V47.8929C48.535 46.8121 49.4029 45.9279 50.5 45.9279C51.5971 45.9279 52.465 46.7957 52.465 47.8929V54.0825C52.465 54.6557 52.9399 55.1306 53.513 55.1306C54.0861 55.1306 54.561 54.6557 54.561 54.0825V50.1362C54.561 49.0555 55.4289 48.1712 56.526 48.1712C57.6067 48.1712 58.491 49.0391 58.491 50.1362V52.5106V52.5269V54.0825C58.491 54.6557 58.9658 55.1306 59.539 55.1306C60.1121 55.1306 60.5869 54.6557 60.5869 54.0825V52.5106C60.5869 51.5444 61.1928 50.693 62.0279 50.4801C62.7157 50.3 63.4362 50.4965 63.9438 51.0041C64.304 51.3643 64.5169 51.872 64.5169 52.3796L64.5332 63.2688Z"
          fill="#D61C4E"/>
    <path d="M27.0022 28.1446C26.5928 27.7352 25.9378 27.7352 25.5284 28.1446L24.5132 29.1599L23.4979 28.1446C23.0885 27.7352 22.4336 27.7352 22.0242 28.1446C21.6148 28.554 21.6148 29.209 22.0242 29.6184L23.0394 30.6336L22.0242 31.6488C21.6148 32.0582 21.6148 32.7132 22.0242 33.1226C22.2371 33.3354 22.499 33.4337 22.761 33.4337C23.0231 33.4337 23.2851 33.3354 23.4979 33.1226L24.5132 32.1073L25.5284 33.1226C25.7413 33.3354 26.0033 33.4337 26.2653 33.4337C26.5273 33.4337 26.7893 33.3354 27.0022 33.1226C27.4115 32.7132 27.4115 32.0582 27.0022 31.6488L25.9869 30.6336L27.0022 29.6184C27.3951 29.209 27.3951 28.5376 27.0022 28.1446Z"
          fill="#D61C4E"/>
    <path d="M36.385 28.1446C35.9756 27.7352 35.3206 27.7352 34.9112 28.1446L33.896 29.1599L32.8807 28.1446C32.4714 27.7352 31.8164 27.7352 31.407 28.1446C30.9976 28.554 30.9976 29.209 31.407 29.6184L32.4222 30.6336L31.407 31.6488C30.9976 32.0582 30.9976 32.7132 31.407 33.1226C31.6199 33.3354 31.8819 33.4337 32.1439 33.4337C32.4059 33.4337 32.6679 33.3354 32.8807 33.1226L33.896 32.1073L34.9112 33.1226C35.1241 33.3354 35.3861 33.4337 35.6481 33.4337C35.9101 33.4337 36.1721 33.3354 36.385 33.1226C36.7943 32.7132 36.7943 32.0582 36.385 31.6488L35.3697 30.6336L36.385 29.6184C36.7943 29.209 36.7943 28.5376 36.385 28.1446Z"
          fill="#D61C4E"/>
    <path d="M45.7677 28.1446C45.3583 27.7352 44.7033 27.7352 44.294 28.1446L43.2787 29.1599L42.2635 28.1446C41.8541 27.7352 41.1991 27.7352 40.7897 28.1446C40.3804 28.554 40.3804 29.209 40.7897 29.6184L41.805 30.6336L40.7897 31.6488C40.3804 32.0582 40.3804 32.7132 40.7897 33.1226C41.0026 33.3354 41.2646 33.4337 41.5266 33.4337C41.7886 33.4337 42.0506 33.3354 42.2635 33.1226L43.2787 32.1073L44.294 33.1226C44.5069 33.3354 44.7688 33.4337 45.0308 33.4337C45.2928 33.4337 45.5548 33.3354 45.7677 33.1226C46.1771 32.7132 46.1771 32.0582 45.7677 31.6488L44.7525 30.6336L45.7677 29.6184C46.1771 29.209 46.1771 28.5376 45.7677 28.1446Z"
          fill="#D61C4E"/>
    <path d="M50.1889 29.6022L51.2042 30.6175L50.1889 31.6327C49.7796 32.0421 49.7796 32.6971 50.1889 33.1065C50.4018 33.3193 50.6638 33.4176 50.9258 33.4176C51.1878 33.4176 51.4498 33.3193 51.6627 33.1065L52.6779 32.0912L53.6931 33.1065C53.906 33.3193 54.168 33.4176 54.43 33.4176C54.692 33.4176 54.954 33.3193 55.1669 33.1065C55.5762 32.6971 55.5762 32.0421 55.1669 31.6327L54.1516 30.6175L55.1669 29.6022C55.5762 29.1929 55.5762 28.5379 55.1669 28.1285C54.7575 27.7191 54.1025 27.7191 53.6931 28.1285L52.6779 29.1437L51.6627 28.1285C51.2533 27.7191 50.5983 27.7191 50.1889 28.1285C49.7796 28.5379 49.7796 29.2092 50.1889 29.6022Z"
          fill="#D61C4E"/>
</svg>
