<svg width="128" height="129" viewBox="0 0 128 129" fill="none" xmlns="http://www.w3.org/2000/svg">
<path d="M56.0987 31.3088L81.8069 35.396C82.1446 35.4498 82.4471 35.6354 82.648 35.9121L90.2102 46.3349C90.411 46.6116 90.4936 46.9568 90.4399 47.2944L84.8971 82.1576M84.1887 86.6134L82.2151 99.0267C82.1033 99.7298 81.4427 100.209 80.7396 100.097L37.2005 93.1752C36.4974 93.0635 36.0181 92.4029 36.1298 91.6998L45.7844 30.9742C45.8962 30.2711 46.5568 29.7917 47.2599 29.9035L51.643 30.6004" stroke="#008ECC" stroke-width="1.93359" stroke-miterlimit="10" stroke-linecap="round" stroke-linejoin="round"/>
<path d="M82.3149 35.5955L80.9874 43.9452C80.8756 44.6479 81.3553 45.3089 82.058 45.4206L90.4072 46.748" stroke="#008ECC" stroke-width="1.93359" stroke-miterlimit="10" stroke-linecap="round" stroke-linejoin="round"/>
<rect x="27" y="57" width="28.5714" height="28.5714" rx="14.2857" fill="#008ECC"/>
<mask id="mask0_3520_36579" style="mask-type:alpha" maskUnits="userSpaceOnUse" x="31" y="61" width="21" height="21">
<rect x="31" y="61" width="20.5714" height="20.5714" fill="#D9D9D9"/>
</mask>
<g mask="url(#mask0_3520_36579)">
<path d="M41.2863 78.4215C41.0863 78.4215 40.8827 78.3858 40.6756 78.3143C40.4684 78.2429 40.2863 78.1286 40.1291 77.9715L38.6506 76.6215C37.1363 75.2358 35.7684 73.8608 34.547 72.4965C33.3256 71.1322 32.7148 69.6286 32.7148 67.9858C32.7148 66.6429 33.1648 65.5215 34.0648 64.6215C34.9648 63.7215 36.0863 63.2715 37.4291 63.2715C38.1863 63.2715 38.9006 63.4322 39.572 63.7536C40.2434 64.0751 40.8148 64.5143 41.2863 65.0715C41.7577 64.5143 42.3291 64.0751 43.0006 63.7536C43.672 63.4322 44.3863 63.2715 45.1434 63.2715C46.4863 63.2715 47.6077 63.7215 48.5077 64.6215C49.4077 65.5215 49.8577 66.6429 49.8577 67.9858C49.8577 69.6286 49.2506 71.1358 48.0363 72.5072C46.822 73.8786 45.4434 75.2572 43.9006 76.6429L42.4434 77.9715C42.2863 78.1286 42.1041 78.2429 41.897 78.3143C41.6898 78.3858 41.4863 78.4215 41.2863 78.4215ZM40.472 66.7858C40.0577 66.2001 39.6148 65.7536 39.1434 65.4465C38.672 65.1393 38.1006 64.9858 37.4291 64.9858C36.572 64.9858 35.8577 65.2715 35.2863 65.8429C34.7148 66.4143 34.4291 67.1286 34.4291 67.9858C34.4291 68.7286 34.6934 69.5179 35.222 70.3536C35.7506 71.1893 36.3827 72.0001 37.1184 72.7858C37.8541 73.5715 38.6113 74.3072 39.3898 74.9929C40.1684 75.6786 40.8006 76.2429 41.2863 76.6858C41.772 76.2429 42.4041 75.6786 43.1827 74.9929C43.9613 74.3072 44.7184 73.5715 45.4541 72.7858C46.1898 72.0001 46.822 71.1893 47.3506 70.3536C47.8791 69.5179 48.1434 68.7286 48.1434 67.9858C48.1434 67.1286 47.8577 66.4143 47.2863 65.8429C46.7148 65.2715 46.0006 64.9858 45.1434 64.9858C44.472 64.9858 43.9006 65.1393 43.4291 65.4465C42.9577 65.7536 42.5148 66.2001 42.1006 66.7858C42.0006 66.9286 41.8791 67.0358 41.7363 67.1072C41.5934 67.1786 41.4434 67.2143 41.2863 67.2143C41.1291 67.2143 40.9791 67.1786 40.8363 67.1072C40.6934 67.0358 40.572 66.9286 40.472 66.7858Z" fill="white"/>
</g>
</svg>
